<?xml version="1.0" encoding="UTF-8" standalone="no"?>
<!-- Created with Inkscape (http://www.inkscape.org/) -->

<svg
   width="210mm"
   height="297mm"
   viewBox="0 0 210 297"
   version="1.1"
   id="svg5"
   sodipodi:docname="diodeplate.svg"
   inkscape:version="1.1.2 (b8e25be8, 2022-02-05)"
   xmlns:inkscape="http://www.inkscape.org/namespaces/inkscape"
   xmlns:sodipodi="http://sodipodi.sourceforge.net/DTD/sodipodi-0.dtd"
   xmlns="http://www.w3.org/2000/svg"
   xmlns:svg="http://www.w3.org/2000/svg">
  <sodipodi:namedview
     id="namedview7"
     pagecolor="#ffffff"
     bordercolor="#666666"
     borderopacity="1.0"
     inkscape:pageshadow="2"
     inkscape:pageopacity="0.0"
     inkscape:pagecheckerboard="0"
     inkscape:document-units="mm"
     showgrid="false"
     inkscape:zoom="0.69219276"
     inkscape:cx="396.56583"
     inkscape:cy="561.25984"
     inkscape:window-width="1920"
     inkscape:window-height="1027"
     inkscape:window-x="0"
     inkscape:window-y="25"
     inkscape:window-maximized="1"
     inkscape:current-layer="layer1" />
  <defs
     id="defs2">
    <rect
       x="228.26012"
       y="242.70696"
       width="486.8586"
       height="398.73286"
       id="rect3135" />
  </defs>
  <g
     inkscape:label="Ebene 1"
     inkscape:groupmode="layer"
     id="layer1">
    <g
       aria-label="diodeplate v0.1 github.com/janekc"
       transform="scale(0.26458333)"
       id="text3133"
       style="font-size:40px;line-height:1.25;white-space:pre;shape-inside:url(#rect3135)">
      <path
         d="m 245.87695,262.43359 v -12.77343 h 3.55469 q 0,0.15625 -0.27344,0.70312 -0.19531,0.35156 -0.19531,0.625 l 0.0391,27.57813 q 0,0.9375 0.23438,1.95312 h -3.32031 q -0.23438,-0.78125 -0.23438,-1.5625 v -1.83594 q -1.01562,1.79688 -2.77344,2.85157 -1.71875,1.01562 -3.75,1.01562 -3.39843,0 -5.9375,-2.89062 -2.5,-2.89063 -2.5,-8.35938 0,-2.89062 0.82032,-5.07812 0.82031,-2.22657 2.14843,-3.4375 1.36719,-1.25 2.85157,-1.83594 1.52343,-0.58594 3.125,-0.58594 2.14843,0 3.78906,0.97656 1.64062,0.97657 2.42187,2.65625 z m -6.05468,-0.89843 q -2.26563,0 -4.0625,1.79687 -1.79688,1.79688 -1.79688,5.85938 0,4.6875 1.83594,6.79687 1.875,2.07031 4.14062,2.07031 1.71875,0 3.125,-1.05468 1.44532,-1.09375 2.07032,-2.96875 0.46875,-1.40625 0.46875,-3.86719 0,-3.28125 -0.35157,-4.53125 -0.58593,-2.14844 -2.1875,-3.125 -1.5625,-0.97656 -3.24218,-0.97656 z"
         style="font-family:'InconsolataLGC Nerd Font Mono';-inkscape-font-specification:'InconsolataLGC Nerd Font Mono'"
         id="path12" />
      <path
         d="m 258.10352,259.30859 h 8.47656 v 18.51563 h 4.96094 v 2.69531 h -13.71094 v -2.69531 h 5.39062 v -15.78125 h -5.11718 z m 5.15625,-8.47656 q 0.70312,-0.70312 1.71875,-0.70312 1.01562,0 1.71875,0.70312 0.70312,0.70313 0.70312,1.67969 0,0.97656 -0.70312,1.67969 -0.70313,0.70312 -1.71875,0.70312 -1.01563,0 -1.71875,-0.70312 -0.66407,-0.70313 -0.66407,-1.67969 0,-0.97656 0.66407,-1.67969 z"
         style="font-family:'InconsolataLGC Nerd Font Mono';-inkscape-font-specification:'InconsolataLGC Nerd Font Mono'"
         id="path14" />
      <path
         d="m 299.04102,270.01172 q 0,5.07812 -2.8125,8.08594 -2.77344,2.96875 -6.71875,2.96875 -4.10157,0 -7.03125,-3.125 -2.89063,-3.125 -2.89063,-7.85157 0,-4.80468 2.92969,-8.00781 2.96875,-3.20312 7.10937,-3.20312 3.86719,0 6.64063,2.96875 2.77344,2.96875 2.77344,8.16406 z m -9.64844,-8.28125 q -2.57813,0 -4.45313,2.1875 -1.83593,2.1875 -1.83593,5.89844 0,3.78906 1.875,6.09375 1.91406,2.30468 4.57031,2.30468 2.5,0 4.29687,-2.10937 1.83594,-2.14844 1.83594,-5.9375 0,-4.10156 -1.875,-6.25 -1.875,-2.1875 -4.41406,-2.1875 z"
         style="font-family:'InconsolataLGC Nerd Font Mono';-inkscape-font-specification:'InconsolataLGC Nerd Font Mono'"
         id="path16" />
      <path
         d="m 319.4707,262.43359 v -12.77343 h 3.55469 q 0,0.15625 -0.27344,0.70312 -0.19531,0.35156 -0.19531,0.625 l 0.0391,27.57813 q 0,0.9375 0.23438,1.95312 h -3.32031 q -0.23438,-0.78125 -0.23438,-1.5625 v -1.83594 q -1.01562,1.79688 -2.77344,2.85157 -1.71875,1.01562 -3.75,1.01562 -3.39843,0 -5.9375,-2.89062 -2.5,-2.89063 -2.5,-8.35938 0,-2.89062 0.82032,-5.07812 0.82031,-2.22657 2.14843,-3.4375 1.36719,-1.25 2.85157,-1.83594 1.52343,-0.58594 3.125,-0.58594 2.14843,0 3.78906,0.97656 1.64062,0.97657 2.42187,2.65625 z m -6.05468,-0.89843 q -2.26563,0 -4.0625,1.79687 -1.79688,1.79688 -1.79688,5.85938 0,4.6875 1.83594,6.79687 1.875,2.07031 4.14062,2.07031 1.71875,0 3.125,-1.05468 1.44532,-1.09375 2.07032,-2.96875 0.46875,-1.40625 0.46875,-3.86719 0,-3.28125 -0.35157,-4.53125 -0.58593,-2.14844 -2.1875,-3.125 -1.5625,-0.97656 -3.24218,-0.97656 z"
         style="font-family:'InconsolataLGC Nerd Font Mono';-inkscape-font-specification:'InconsolataLGC Nerd Font Mono'"
         id="path18" />
      <path
         d="m 338.76758,258.83984 q 2.96875,0 5.3125,1.83594 2.38281,1.79688 3.04687,5.70313 0.23438,1.17187 0.23438,2.5 0,1.01562 -0.0391,1.52343 H 332.2832 q 0.0781,2.26563 0.78125,3.90625 0.74219,1.64063 1.83594,2.46094 1.13281,0.82031 2.26563,1.21094 1.13281,0.35156 2.30468,0.35156 3.28125,0 5.46875,-2.42187 l 1.83594,1.79687 q -2.73437,3.28125 -7.57812,3.28125 -4.45313,0 -7.30469,-2.85156 -2.85156,-2.85156 -2.85156,-7.96875 0,-5.50781 2.8125,-8.39844 2.8125,-2.92969 6.91406,-2.92969 z m -6.36719,8.98438 h 11.64063 q 0.0391,-0.23438 0.0391,-0.70313 0,-2.38281 -1.60156,-4.02343 -1.5625,-1.67969 -3.94532,-1.67969 -2.07031,0 -3.90625,1.52344 -1.79687,1.48437 -2.22656,4.88281 z"
         style="font-family:'InconsolataLGC Nerd Font Mono';-inkscape-font-specification:'InconsolataLGC Nerd Font Mono'"
         id="path20" />
      <path
         d="m 354.08008,259.34766 h 3.39844 v 3.24218 q 1.09375,-1.71875 2.85156,-2.69531 1.79687,-1.01562 3.82812,-1.01562 3.4375,0 6.01563,2.77343 2.57812,2.77344 2.57812,8.00782 0,5.46875 -2.65625,8.4375 -2.61718,2.96875 -6.21093,2.96875 -1.91407,0 -3.63282,-0.89844 -1.67968,-0.89844 -2.73437,-2.46094 v 10.54688 h -3.39844 z m 8.86719,2.38281 q -1.64063,0 -3.00782,0.85937 -1.32812,0.82032 -1.91406,2.22657 -0.54687,1.28906 -0.54687,4.14062 0,4.80469 0.58593,6.25 0.625,1.40625 1.95313,2.1875 1.32812,0.74219 2.89062,0.74219 0.89844,0 1.83594,-0.27344 0.97656,-0.3125 2.07031,-1.05469 1.09375,-0.78125 1.75782,-2.42187 0.70312,-1.64063 0.70312,-3.98438 0,-2.69531 -0.70312,-4.57031 -0.70313,-1.875 -1.83594,-2.69531 -1.09375,-0.82031 -1.99219,-1.09375 -0.89844,-0.3125 -1.79687,-0.3125 z"
         style="font-family:'InconsolataLGC Nerd Font Mono';-inkscape-font-specification:'InconsolataLGC Nerd Font Mono'"
         id="path22" />
      <path
         d="m 379.7832,249.73828 h 9.33594 v 28.08594 h 6.25 v 2.69531 H 379.4707 v -2.69531 h 6.28907 v -25.42969 h -5.97657 z"
         style="font-family:'InconsolataLGC Nerd Font Mono';-inkscape-font-specification:'InconsolataLGC Nerd Font Mono'"
         id="path24" />
      <path
         d="m 404.58789,261.84766 q 2.85156,-2.96875 7.53906,-2.96875 5.23438,0 7.38282,3.51562 1.01562,1.71875 1.01562,5 v 13.125 h -3.16406 v -2.30469 q -3.47656,2.8125 -7.57813,2.8125 -3.20312,0 -5.15625,-1.75781 -1.95312,-1.75781 -1.95312,-4.21875 0,-1.875 1.21094,-3.51562 1.25,-1.64063 3.63281,-2.53907 2.46094,-0.9375 8.4375,-0.9375 h 0.70312 0.66407 v -0.78125 q 0,-2.46093 -0.66407,-3.63281 -1.17187,-2.03125 -4.375,-2.03125 -3.82812,0 -6.05468,2.34375 z m 12.85156,8.75 h -0.74218 -2.5 q -3.00782,0 -4.45313,0.3125 -1.875,0.42968 -2.8125,1.5625 -0.89844,1.09375 -0.89844,2.38281 0,1.48437 1.17188,2.57812 1.21094,1.05469 3.24219,1.05469 3.20312,0 5.58593,-2.5 0.66407,-0.70312 0.97657,-1.52344 0.35156,-0.82031 0.39062,-1.25 0.0391,-0.42968 0.0391,-1.21093 z"
         style="font-family:'InconsolataLGC Nerd Font Mono';-inkscape-font-specification:'InconsolataLGC Nerd Font Mono'"
         id="path26" />
      <path
         d="m 433.61133,253.68359 3.67187,-0.58593 q 0.0391,0.0781 0.0391,0.23437 0,0.19531 -0.15625,0.50781 -0.15625,0.3125 -0.19532,0.46875 l -0.50781,5 h 6.91406 v 2.77344 h -6.95312 q -0.39063,3.94531 -0.39063,8.28125 0,1.36719 0,2.34375 0.0391,0.9375 0.0781,1.32813 l 0.0391,0.39062 q 0.23438,1.75781 1.21094,2.57813 1.01562,0.82031 2.34375,0.82031 2.1875,0 4.76562,-1.91406 l 1.05469,2.65625 q -3.16406,2.34375 -6.75781,2.34375 -3.24219,0 -4.84375,-2.22657 -1.25,-1.75781 -1.25,-5.78125 0,-5.11718 0.42969,-10.82031 h -4.96094 l 0.0391,-2.73437 h 5.03906 z"
         style="font-family:'InconsolataLGC Nerd Font Mono';-inkscape-font-specification:'InconsolataLGC Nerd Font Mono'"
         id="path28" />
      <path
         d="m 461.42383,258.83984 q 2.96875,0 5.3125,1.83594 2.38281,1.79688 3.04687,5.70313 0.23438,1.17187 0.23438,2.5 0,1.01562 -0.0391,1.52343 h -15.03907 q 0.0781,2.26563 0.78125,3.90625 0.74219,1.64063 1.83594,2.46094 1.13281,0.82031 2.26563,1.21094 1.13281,0.35156 2.30468,0.35156 3.28125,0 5.46875,-2.42187 l 1.83594,1.79687 q -2.73437,3.28125 -7.57812,3.28125 -4.45313,0 -7.30469,-2.85156 -2.85156,-2.85156 -2.85156,-7.96875 0,-5.50781 2.8125,-8.39844 2.8125,-2.92969 6.91406,-2.92969 z m -6.36719,8.98438 h 11.64063 q 0.0391,-0.23438 0.0391,-0.70313 0,-2.38281 -1.60156,-4.02343 -1.5625,-1.67969 -3.94532,-1.67969 -2.07031,0 -3.90625,1.52344 -1.79687,1.48437 -2.22656,4.88281 z"
         style="font-family:'InconsolataLGC Nerd Font Mono';-inkscape-font-specification:'InconsolataLGC Nerd Font Mono'"
         id="path30" />
      <path
         d="m 500.33008,259.30859 h 4.02344 q 0.0391,0.23438 -0.0781,0.54688 -0.0781,0.3125 -0.0781,0.39062 0,0.0391 0.0781,0.27344 l 6.09375,15.46875 3.39844,-7.85156 q 2.22656,-5.11719 2.89062,-8.82813 h 3.00782 q -0.78125,3.67188 -3.16407,9.29688 l -5.15625,12.07031 h -2.61718 z"
         style="font-family:'InconsolataLGC Nerd Font Mono';-inkscape-font-specification:'InconsolataLGC Nerd Font Mono'"
         id="path32" />
      <path
         d="m 528.18164,255.59766 q 2.85156,-4.14063 6.48438,-4.14063 3.63281,0 6.40625,4.10156 2.8125,4.0625 2.8125,11.01563 0,3.55469 -0.85938,6.40625 -0.82031,2.85156 -2.1875,4.57031 -1.32812,1.67969 -2.92969,2.57813 -1.5625,0.89843 -3.16406,0.89843 -3.67187,0 -6.52344,-4.02343 -2.85156,-4.0625 -2.85156,-10.70313 0,-6.60156 2.8125,-10.70312 z m 11.01563,2.46093 q -0.89844,-1.83593 -2.14844,-2.8125 -1.21094,-0.97656 -2.42188,-0.97656 -2.34375,0 -4.29687,3.16406 -1.95313,3.125 -1.95313,8.32032 0,2.73437 0.66407,5.46875 z m 1.05468,3.08594 -10.15625,13.00781 q 0.9375,1.875 2.1875,2.92969 1.28907,1.01563 2.57813,1.01563 2.26562,0 4.14062,-2.8125 1.875,-2.8125 1.875,-8.35938 0,-3.16406 -0.625,-5.78125 z"
         style="font-family:'InconsolataLGC Nerd Font Mono';-inkscape-font-specification:'InconsolataLGC Nerd Font Mono'"
         id="path34" />
      <path
         d="m 560.56445,276.49609 q 0.82032,0.78125 0.82032,1.875 0,1.09375 -0.82032,1.875 -0.82031,0.78125 -1.95312,0.78125 -1.13281,0 -1.95313,-0.78125 -0.78125,-0.78125 -0.78125,-1.875 0,-1.09375 0.78125,-1.875 0.82032,-0.78125 1.95313,-0.78125 1.13281,0 1.95312,0.78125 z"
         style="font-family:'InconsolataLGC Nerd Font Mono';-inkscape-font-specification:'InconsolataLGC Nerd Font Mono'"
         id="path36" />
      <path
         d="m 585.99414,251.61328 v 28.94531 h -3.24219 v -24.92187 l -5.82031,1.71875 -0.74219,-1.79688 7.53907,-3.94531 z"
         style="font-family:'InconsolataLGC Nerd Font Mono';-inkscape-font-specification:'InconsolataLGC Nerd Font Mono'"
         id="path38" />
      <path
         d="m 234.50977,317.26849 q 0,1.91407 1.36718,3.28125 1.36719,1.36719 3.28125,1.36719 1.95313,0 3.28125,-1.32812 1.36719,-1.36719 1.36719,-3.32032 0,-1.95312 -1.36719,-3.32031 -1.32812,-1.36719 -3.24218,-1.36719 -1.95313,0 -3.32032,1.36719 -1.36718,1.36719 -1.36718,3.32031 z m 4.88281,-7.30468 q 2.96875,0 5,2.03125 2.34375,-1.91407 5.27344,-1.91407 0.0781,0 0.27343,0.0391 0.19532,0 0.3125,0 l 0.39063,2.73437 q -0.58594,-0.11719 -1.21094,-0.11719 -1.99219,0 -3.71094,1.01563 1.09375,1.64062 1.09375,3.59375 0,2.92969 -2.26562,5.11719 -2.22656,2.14843 -5.35156,2.14843 -1.25,0 -2.69532,-0.50781 -1.52343,1.21094 -1.52343,2.38281 0,1.01563 1.28906,1.40625 1.09375,0.27344 3.04687,0.27344 0.46875,0 1.44532,-0.0391 1.01562,-0.0391 1.52343,-0.0391 2.61719,0 4.17969,0.66406 1.60156,0.66406 2.42188,1.91406 0.85937,1.25 0.85937,2.69531 0,2.5 -2.42187,4.45313 -2.38282,1.99219 -7.30469,1.99219 -5.07813,0 -7.34375,-1.48438 -2.26563,-1.48437 -2.26563,-3.51562 0,-2.46094 3.47657,-4.6875 -1.71875,-0.89844 -1.71875,-2.85157 0,-2.03125 2.42187,-4.0625 -1.48437,-0.97656 -2.30469,-2.5 -0.82031,-1.52343 -0.82031,-3.24218 0,-3.08594 2.34375,-5.27344 2.38281,-2.22656 5.58594,-2.22656 z m -3.24219,20.74218 q -2.65625,1.36719 -2.65625,3.28125 0,1.83594 2.07031,2.61719 1.71875,0.66406 4.375,0.66406 3.16407,0 4.76563,-0.89843 1.99219,-1.05469 1.99219,-2.8125 0,-0.85938 -0.58594,-1.5625 -0.58594,-0.70313 -1.91406,-0.89844 -0.9375,-0.11719 -2.14844,-0.11719 h -0.78125 q -1.05469,0 -1.5625,-0.0391 -1.60156,-0.0391 -3.55469,-0.23438 z"
         style="font-family:'InconsolataLGC Nerd Font Mono';-inkscape-font-specification:'InconsolataLGC Nerd Font Mono'"
         id="path40" />
      <path
         d="m 258.10352,310.62787 h 8.47656 v 18.51562 h 4.96094 v 2.69532 h -13.71094 v -2.69532 h 5.39062 v -15.78125 h -5.11718 z m 5.15625,-8.47656 q 0.70312,-0.70313 1.71875,-0.70313 1.01562,0 1.71875,0.70313 0.70312,0.70312 0.70312,1.67968 0,0.97657 -0.70312,1.67969 -0.70313,0.70313 -1.71875,0.70313 -1.01563,0 -1.71875,-0.70313 -0.66407,-0.70312 -0.66407,-1.67969 0,-0.97656 0.66407,-1.67968 z"
         style="font-family:'InconsolataLGC Nerd Font Mono';-inkscape-font-specification:'InconsolataLGC Nerd Font Mono'"
         id="path42" />
      <path
         d="m 286.42383,305.00287 3.67187,-0.58594 q 0.0391,0.0781 0.0391,0.23438 0,0.19531 -0.15625,0.50781 -0.15625,0.3125 -0.19532,0.46875 l -0.50781,5 h 6.91406 v 2.77344 h -6.95312 q -0.39063,3.94531 -0.39063,8.28125 0,1.36718 0,2.34375 0.0391,0.9375 0.0781,1.32812 l 0.0391,0.39063 q 0.23438,1.75781 1.21094,2.57812 1.01562,0.82031 2.34375,0.82031 2.1875,0 4.76562,-1.91406 l 1.05469,2.65625 q -3.16406,2.34375 -6.75781,2.34375 -3.24219,0 -4.84375,-2.22656 -1.25,-1.75781 -1.25,-5.78125 0,-5.11719 0.42969,-10.82031 h -4.96094 l 0.0391,-2.73438 h 5.03906 z"
         style="font-family:'InconsolataLGC Nerd Font Mono';-inkscape-font-specification:'InconsolataLGC Nerd Font Mono'"
         id="path44" />
      <path
         d="m 305.48633,331.83881 v -30.78125 h 3.82812 q 0,0 0.0391,0.0391 0.0391,0.0391 0.0391,0.0781 0,0.19532 -0.3125,0.50782 -0.19531,0.19531 -0.19531,0.42968 v 12.30469 q 1.25,-1.875 3.08593,-3.04687 1.875,-1.21094 3.94532,-1.21094 1.83593,0 3.35937,1.01562 1.52344,0.97657 2.30469,2.73438 0.74219,1.71875 0.74219,5.07812 v 12.85157 h -3.28125 v -12.77344 q 0,-3.32031 -1.13282,-4.6875 -1.09375,-1.32813 -2.89062,-1.32813 -1.48438,0 -2.85156,0.9375 -1.36719,0.89844 -2.22657,1.99219 -1.05468,1.36719 -1.05468,3.67188 v 12.1875 z"
         style="font-family:'InconsolataLGC Nerd Font Mono';-inkscape-font-specification:'InconsolataLGC Nerd Font Mono'"
         id="path46" />
      <path
         d="m 329.70508,310.66693 h 3.35937 v 11.79688 q 0,3.08593 0.74219,4.57031 1.32813,2.61719 4.0625,2.61719 1.48438,0 2.8125,-0.85938 1.32813,-0.89844 2.07031,-2.26562 0.82032,-1.5625 0.82032,-4.21875 v -11.64063 h 3.35937 v 19.25781 q 0,1.17188 0.23438,1.91407 h -3.51563 q -0.0781,-0.54688 -0.0781,-1.64063 l 0.0391,-1.60156 q -1.01563,1.71875 -2.77344,2.73437 -1.75781,1.01563 -3.75,1.01563 -2.14844,0 -3.94531,-1.09375 -1.75781,-1.13281 -2.65625,-3.20313 -0.82031,-1.75781 -0.82031,-5.58593 z"
         style="font-family:'InconsolataLGC Nerd Font Mono';-inkscape-font-specification:'InconsolataLGC Nerd Font Mono'"
         id="path48" />
      <path
         d="m 354.08008,300.97943 h 3.90625 q 0.0781,0.23438 -0.23438,0.54688 -0.27343,0.19531 -0.27343,0.50781 v 11.875 q 1.01562,-1.71875 2.73437,-2.73438 1.75781,-1.01562 3.78906,-1.01562 3.4375,0 5.97657,2.8125 2.53906,2.8125 2.53906,8.00781 0,5.42969 -2.65625,8.39844 -2.61719,2.96875 -6.17188,2.96875 -4.02343,0 -6.28906,-3.32031 l -1.17187,2.8125 h -2.14844 z m 8.75,12.07031 q -1.5625,0 -2.89063,0.85938 -1.32812,0.82031 -1.91406,2.22656 -0.54687,1.36719 -0.54687,4.41406 0,3.08594 0.11718,4.21875 0.19532,1.40625 0.82032,2.42188 0.625,0.97656 1.44531,1.40625 0.85937,0.42969 1.5625,0.625 0.70312,0.15625 1.36719,0.15625 0.9375,0 1.875,-0.3125 0.9375,-0.3125 1.99218,-1.05469 1.05469,-0.78125 1.71875,-2.42187 0.66407,-1.64063 0.66407,-3.90625 0,-2.10938 -0.46875,-3.75 -0.46875,-1.64063 -1.13282,-2.53907 -0.66406,-0.89843 -1.5625,-1.44531 -0.89843,-0.54687 -1.64062,-0.70312 -0.70313,-0.19532 -1.40625,-0.19532 z"
         style="font-family:'InconsolataLGC Nerd Font Mono';-inkscape-font-specification:'InconsolataLGC Nerd Font Mono'"
         id="path50" />
      <path
         d="m 388.8457,327.81537 q 0.82032,0.78125 0.82032,1.875 0,1.09375 -0.82032,1.875 -0.82031,0.78125 -1.95312,0.78125 -1.13281,0 -1.95313,-0.78125 -0.78125,-0.78125 -0.78125,-1.875 0,-1.09375 0.78125,-1.875 0.82032,-0.78125 1.95313,-0.78125 1.13281,0 1.95312,0.78125 z"
         style="font-family:'InconsolataLGC Nerd Font Mono';-inkscape-font-specification:'InconsolataLGC Nerd Font Mono'"
         id="path52" />
      <path
         d="m 421.54102,314.14349 -2.34375,2.77344 q -0.19532,-0.15625 -0.23438,-0.54687 0,-0.39063 -0.0781,-0.50782 -0.0781,-0.11718 -0.27344,-0.35156 -0.19531,-0.27344 -0.66406,-0.70312 -0.46875,-0.46875 -1.05469,-0.82032 -0.58594,-0.35156 -1.52344,-0.625 -0.9375,-0.27343 -1.95312,-0.27343 -3.00782,0 -5,2.14843 -1.99219,2.10938 -1.99219,5.66407 0,3.71093 2.07031,6.09375 2.07031,2.38281 5.19531,2.38281 3.32032,0 5.625,-2.61719 l 1.91407,2.22656 q -3.125,3.35938 -7.8125,3.35938 -4.49219,0 -7.46094,-3.16406 -2.96875,-3.16407 -2.96875,-7.92969 0,-4.80469 2.96875,-7.89063 3.00781,-3.125 7.65625,-3.125 2.53906,0 4.60937,1.01563 2.07032,1.01562 3.32032,2.89062 z"
         style="font-family:'InconsolataLGC Nerd Font Mono';-inkscape-font-specification:'InconsolataLGC Nerd Font Mono'"
         id="path54" />
      <path
         d="m 446.22852,321.33099 q 0,5.07813 -2.8125,8.08594 -2.77344,2.96875 -6.71875,2.96875 -4.10157,0 -7.03125,-3.125 -2.89063,-3.125 -2.89063,-7.85156 0,-4.80469 2.92969,-8.00781 2.96875,-3.20313 7.10937,-3.20313 3.86719,0 6.64063,2.96875 2.77344,2.96875 2.77344,8.16406 z m -9.64844,-8.28125 q -2.57813,0 -4.45313,2.1875 -1.83593,2.1875 -1.83593,5.89844 0,3.78906 1.875,6.09375 1.91406,2.30469 4.57031,2.30469 2.5,0 4.29687,-2.10938 1.83594,-2.14843 1.83594,-5.9375 0,-4.10156 -1.875,-6.25 -1.875,-2.1875 -4.41406,-2.1875 z"
         style="font-family:'InconsolataLGC Nerd Font Mono';-inkscape-font-specification:'InconsolataLGC Nerd Font Mono'"
         id="path56" />
      <path
         d="m 451.18945,331.83881 v -21.17188 h 3.08594 l -0.0391,2.10938 q 0.74219,-1.17188 1.91406,-1.875 1.17188,-0.74219 2.42188,-0.74219 1.40625,0 2.46093,0.89844 1.05469,0.85937 1.28907,2.1875 0.625,-1.40625 1.91406,-2.22657 1.32812,-0.85937 2.85156,-0.85937 2.22656,0 3.28125,1.67969 0.85938,1.21093 0.85938,4.21875 v 0.74218 15.07813 h -3.16407 v -15.03906 q 0,-0.15625 0,-0.54688 0.0391,-0.42969 0.0391,-0.625 0,-1.13281 -0.3125,-1.91406 -0.54688,-1.17188 -1.67969,-1.17188 -1.28906,0 -2.46094,1.95313 -0.89844,1.5625 -0.89844,3.32031 v 13.98438 h -3.125 v -14.72657 q 0,-0.15625 0,-0.46875 0.0391,-0.3125 0.0391,-0.50781 0,-1.13281 -0.23438,-1.83594 -0.46875,-1.5625 -1.95312,-1.5625 -1.52344,0 -2.53907,1.95313 -0.70312,1.36719 -0.70312,3.04687 v 14.10157 z"
         style="font-family:'InconsolataLGC Nerd Font Mono';-inkscape-font-specification:'InconsolataLGC Nerd Font Mono'"
         id="path58" />
      <path
         d="m 476.93164,332.42474 14.53125,-31.36718 2.73438,1.36718 -14.53125,31.36719 z"
         style="font-family:'InconsolataLGC Nerd Font Mono';-inkscape-font-specification:'InconsolataLGC Nerd Font Mono'"
         id="path60" />
      <path
         d="m 504.35352,310.62787 h 11.21093 v 19.72656 q 0,3.51563 -0.9375,5.35156 -1.05468,2.03125 -3.08593,3.125 -1.99219,1.09375 -4.33594,1.09375 -4.02344,0 -6.44531,-2.96875 l 2.14843,-2.89062 q 0.15625,0.11719 0.23438,0.42969 0.0781,0.3125 0.15625,0.42968 0.15625,0.27344 0.54687,0.66407 0.39063,0.42968 1.40625,0.9375 1.01563,0.50781 2.1875,0.50781 1.36719,0 2.5,-0.70313 1.17188,-0.70312 1.75782,-1.95312 0.50781,-1.13281 0.50781,-3.39844 v -17.57812 h -7.85156 z m 7.89062,-8.47656 q 0.70313,-0.70313 1.71875,-0.70313 1.01563,0 1.67969,0.70313 0.70312,0.70312 0.70312,1.67968 0,0.97657 -0.70312,1.67969 -0.66406,0.70313 -1.67969,0.70313 -1.01562,0 -1.71875,-0.70313 -0.70312,-0.70312 -0.70312,-1.67969 0,-0.97656 0.70312,-1.67968 z"
         style="font-family:'InconsolataLGC Nerd Font Mono';-inkscape-font-specification:'InconsolataLGC Nerd Font Mono'"
         id="path62" />
      <path
         d="m 527.24414,313.16693 q 2.85156,-2.96875 7.53906,-2.96875 5.23438,0 7.38282,3.51563 1.01562,1.71875 1.01562,5 v 13.125 h -3.16406 v -2.30469 q -3.47656,2.8125 -7.57813,2.8125 -3.20312,0 -5.15625,-1.75781 -1.95312,-1.75782 -1.95312,-4.21875 0,-1.875 1.21094,-3.51563 1.25,-1.64062 3.63281,-2.53906 2.46094,-0.9375 8.4375,-0.9375 h 0.70312 0.66407 v -0.78125 q 0,-2.46094 -0.66407,-3.63281 -1.17187,-2.03125 -4.375,-2.03125 -3.82812,0 -6.05468,2.34375 z m 12.85156,8.75 h -0.74218 -2.5 q -3.00782,0 -4.45313,0.3125 -1.875,0.42969 -2.8125,1.5625 -0.89844,1.09375 -0.89844,2.38281 0,1.48438 1.17188,2.57813 1.21094,1.05469 3.24219,1.05469 3.20312,0 5.58593,-2.5 0.66407,-0.70313 0.97657,-1.52344 0.35156,-0.82031 0.39062,-1.25 0.0391,-0.42969 0.0391,-1.21094 z"
         style="font-family:'InconsolataLGC Nerd Font Mono';-inkscape-font-specification:'InconsolataLGC Nerd Font Mono'"
         id="path64" />
      <path
         d="m 550.7207,331.83881 v -21.17188 h 3.39844 v 3.75 q 1.25,-1.875 3.08594,-3.04687 1.875,-1.21094 3.94531,-1.21094 1.83594,0 3.35938,1.01562 1.52343,0.97657 2.30468,2.73438 0.74219,1.71875 0.74219,5.07812 v 12.85157 h -3.28125 v -12.77344 q 0,-3.32031 -1.13281,-4.6875 -1.09375,-1.32813 -2.89063,-1.32813 -1.48437,0 -2.85156,0.9375 -1.36719,0.89844 -2.22656,1.99219 -1.05469,1.36719 -1.05469,3.67188 v 12.1875 z"
         style="font-family:'InconsolataLGC Nerd Font Mono';-inkscape-font-specification:'InconsolataLGC Nerd Font Mono'"
         id="path66" />
      <path
         d="m 584.08008,310.15912 q 2.96875,0 5.3125,1.83594 2.38281,1.79687 3.04687,5.70312 0.23438,1.17188 0.23438,2.5 0,1.01563 -0.0391,1.52344 H 577.5957 q 0.0781,2.26562 0.78125,3.90625 0.74219,1.64062 1.83594,2.46094 1.13281,0.82031 2.26563,1.21093 1.13281,0.35157 2.30468,0.35157 3.28125,0 5.46875,-2.42188 l 1.83594,1.79688 q -2.73437,3.28125 -7.57812,3.28125 -4.45313,0 -7.30469,-2.85157 -2.85156,-2.85156 -2.85156,-7.96875 0,-5.50781 2.8125,-8.39843 2.8125,-2.92969 6.91406,-2.92969 z m -6.36719,8.98437 h 11.64063 q 0.0391,-0.23437 0.0391,-0.70312 0,-2.38281 -1.60156,-4.02344 -1.5625,-1.67969 -3.94532,-1.67969 -2.07031,0 -3.90625,1.52344 -1.79687,1.48438 -2.22656,4.88281 z"
         style="font-family:'InconsolataLGC Nerd Font Mono';-inkscape-font-specification:'InconsolataLGC Nerd Font Mono'"
         id="path68" />
      <path
         d="m 599.70508,301.05756 h 3.78906 q 0.0391,0.3125 -0.23437,0.66406 -0.19532,0.23437 -0.19532,0.50781 v 18.16406 l 10.58594,-9.84375 q 1.01563,0.23438 2.5,0.23438 h 1.21094 l -8.94531,8.39844 10.42968,12.69531 q 0,0 -0.35156,0 0,0 -3.98437,0.15625 l -8.63282,-10.78125 -2.8125,2.57812 v 8.04688 h -3.35937 z"
         style="font-family:'InconsolataLGC Nerd Font Mono';-inkscape-font-specification:'InconsolataLGC Nerd Font Mono'"
         id="path70" />
      <path
         d="m 642.32227,314.14349 -2.34375,2.77344 q -0.19532,-0.15625 -0.23438,-0.54687 0,-0.39063 -0.0781,-0.50782 -0.0781,-0.11718 -0.27344,-0.35156 -0.19531,-0.27344 -0.66406,-0.70312 -0.46875,-0.46875 -1.05469,-0.82032 -0.58594,-0.35156 -1.52344,-0.625 -0.9375,-0.27343 -1.95312,-0.27343 -3.00782,0 -5,2.14843 -1.99219,2.10938 -1.99219,5.66407 0,3.71093 2.07031,6.09375 2.07031,2.38281 5.19531,2.38281 3.32032,0 5.625,-2.61719 l 1.91407,2.22656 q -3.125,3.35938 -7.8125,3.35938 -4.49219,0 -7.46094,-3.16406 -2.96875,-3.16407 -2.96875,-7.92969 0,-4.80469 2.96875,-7.89063 3.00781,-3.125 7.65625,-3.125 2.53906,0 4.60937,1.01563 2.07032,1.01562 3.32032,2.89062 z"
         style="font-family:'InconsolataLGC Nerd Font Mono';-inkscape-font-specification:'InconsolataLGC Nerd Font Mono'"
         id="path72" />
    </g>
  </g>
</svg>
