%TF.GenerationSoftware,KiCad,Pcbnew,7.0.8*%
%TF.CreationDate,2023-11-02T15:02:26+01:00*%
%TF.ProjectId,led-tube,6c65642d-7475-4626-952e-6b696361645f,rev?*%
%TF.SameCoordinates,Original*%
%TF.FileFunction,Drillmap*%
%TF.FilePolarity,Positive*%
%FSLAX45Y45*%
G04 Gerber Fmt 4.5, Leading zero omitted, Abs format (unit mm)*
G04 Created by KiCad (PCBNEW 7.0.8) date 2023-11-02 15:02:26*
%MOMM*%
%LPD*%
G01*
G04 APERTURE LIST*
%ADD10C,0.100000*%
%ADD11C,0.200000*%
%ADD12C,0.040000*%
%ADD13C,0.070002*%
%ADD14C,0.080000*%
%ADD15C,0.099999*%
%ADD16C,0.119999*%
%ADD17C,0.125999*%
G04 APERTURE END LIST*
D10*
X60000000Y-40000000D02*
X63200000Y-40000000D01*
X63200000Y-55000000D01*
X60000000Y-55000000D01*
X60000000Y-40000000D01*
D11*
D12*
X60070000Y-45210000D02*
X60110000Y-45250000D01*
X60110000Y-45210000D02*
X60070000Y-45250000D01*
X60250000Y-47260000D02*
X60290000Y-47300000D01*
X60290000Y-47260000D02*
X60250000Y-47300000D01*
X60270000Y-43390000D02*
X60310000Y-43430000D01*
X60310000Y-43390000D02*
X60270000Y-43430000D01*
X60779156Y-53558052D02*
X60819156Y-53598052D01*
X60819156Y-53558052D02*
X60779156Y-53598052D01*
X60795000Y-51540000D02*
X60835000Y-51580000D01*
X60835000Y-51540000D02*
X60795000Y-51580000D01*
X60915000Y-53190000D02*
X60955000Y-53230000D01*
X60955000Y-53190000D02*
X60915000Y-53230000D01*
X61017289Y-53216154D02*
X61057289Y-53256154D01*
X61057289Y-53216154D02*
X61017289Y-53256154D01*
X61055000Y-53680000D02*
X61095000Y-53720000D01*
X61095000Y-53680000D02*
X61055000Y-53720000D01*
X61055538Y-53308496D02*
X61095538Y-53348496D01*
X61095538Y-53308496D02*
X61055538Y-53348496D01*
X61140000Y-50860000D02*
X61180000Y-50900000D01*
X61180000Y-50860000D02*
X61140000Y-50900000D01*
X61186108Y-53050050D02*
X61226108Y-53090050D01*
X61226108Y-53050050D02*
X61186108Y-53090050D01*
X61195000Y-53440000D02*
X61235000Y-53480000D01*
X61235000Y-53440000D02*
X61195000Y-53480000D01*
X61250000Y-52760000D02*
X61290000Y-52800000D01*
X61290000Y-52760000D02*
X61250000Y-52800000D01*
X61490000Y-49955000D02*
X61530000Y-49995000D01*
X61530000Y-49955000D02*
X61490000Y-49995000D01*
X61523700Y-53930000D02*
X61563700Y-53970000D01*
X61563700Y-53930000D02*
X61523700Y-53970000D01*
X61741996Y-54515107D02*
X61781996Y-54555107D01*
X61781996Y-54515107D02*
X61741996Y-54555107D01*
X61870000Y-52720000D02*
X61910000Y-52760000D01*
X61910000Y-52720000D02*
X61870000Y-52760000D01*
X61875000Y-53520000D02*
X61915000Y-53560000D01*
X61915000Y-53520000D02*
X61875000Y-53560000D01*
X61875000Y-53619950D02*
X61915000Y-53659950D01*
X61915000Y-53619950D02*
X61875000Y-53659950D01*
X61940000Y-52540000D02*
X61980000Y-52580000D01*
X61980000Y-52540000D02*
X61940000Y-52580000D01*
X61965000Y-53030000D02*
X62005000Y-53070000D01*
X62005000Y-53030000D02*
X61965000Y-53070000D01*
X61980000Y-52760000D02*
X62020000Y-52800000D01*
X62020000Y-52760000D02*
X61980000Y-52800000D01*
X61985000Y-53275000D02*
X62025000Y-53315000D01*
X62025000Y-53275000D02*
X61985000Y-53315000D01*
X62270000Y-54010000D02*
X62310000Y-54050000D01*
X62310000Y-54010000D02*
X62270000Y-54050000D01*
X62770000Y-41690000D02*
X62810000Y-41730000D01*
X62810000Y-41690000D02*
X62770000Y-41730000D01*
X62860000Y-46590000D02*
X62900000Y-46630000D01*
X62900000Y-46590000D02*
X62860000Y-46630000D01*
X62860000Y-49480000D02*
X62900000Y-49520000D01*
X62900000Y-49480000D02*
X62860000Y-49520000D01*
X62945000Y-54160000D02*
X62985000Y-54200000D01*
X62985000Y-54160000D02*
X62945000Y-54200000D01*
X62947550Y-50010000D02*
X62987550Y-50050000D01*
X62987550Y-50010000D02*
X62947550Y-50050000D01*
X63092450Y-49500000D02*
X63132450Y-49540000D01*
X63132450Y-49500000D02*
X63092450Y-49540000D01*
D13*
X61234993Y-54455000D02*
G75*
G03*
X61234993Y-54455000I-35001J0D01*
G01*
D11*
X61164991Y-54400001D02*
X61164991Y-54509999D01*
X61164991Y-54509999D02*
G75*
G03*
X61234993Y-54509999I35001J0D01*
G01*
X61234993Y-54509999D02*
X61234993Y-54400001D01*
X61234993Y-54400001D02*
G75*
G03*
X61164991Y-54400001I-35001J0D01*
G01*
D13*
X61234993Y-54873009D02*
G75*
G03*
X61234993Y-54873009I-35001J0D01*
G01*
D11*
X61164991Y-54843010D02*
X61164991Y-54903007D01*
X61164991Y-54903007D02*
G75*
G03*
X61234993Y-54903007I35001J0D01*
G01*
X61234993Y-54903007D02*
X61234993Y-54843010D01*
X61234993Y-54843010D02*
G75*
G03*
X61164991Y-54843010I-35001J0D01*
G01*
D13*
X62099001Y-54455000D02*
G75*
G03*
X62099001Y-54455000I-35001J0D01*
G01*
D11*
X62028999Y-54400001D02*
X62028999Y-54509999D01*
X62028999Y-54509999D02*
G75*
G03*
X62099001Y-54509999I35001J0D01*
G01*
X62099001Y-54509999D02*
X62099001Y-54400001D01*
X62099001Y-54400001D02*
G75*
G03*
X62028999Y-54400001I-35001J0D01*
G01*
D13*
X62099001Y-54873009D02*
G75*
G03*
X62099001Y-54873009I-35001J0D01*
G01*
D11*
X62028999Y-54843010D02*
X62028999Y-54903007D01*
X62028999Y-54903007D02*
G75*
G03*
X62099001Y-54903007I35001J0D01*
G01*
X62099001Y-54903007D02*
X62099001Y-54843010D01*
X62099001Y-54843010D02*
G75*
G03*
X62028999Y-54843010I-35001J0D01*
G01*
D14*
X60624102Y-53405531D02*
X60624102Y-53485531D01*
X60584102Y-53445531D02*
X60664102Y-53445531D01*
X61046996Y-54305062D02*
X61046996Y-54385062D01*
X61006996Y-54345062D02*
X61086996Y-54345062D01*
X61100000Y-54030050D02*
X61100000Y-54110050D01*
X61060000Y-54070050D02*
X61140000Y-54070050D01*
X61100500Y-49990500D02*
X61100500Y-50070500D01*
X61060500Y-50030500D02*
X61140500Y-50030500D01*
X61600000Y-52230000D02*
X61600000Y-52310000D01*
X61560000Y-52270000D02*
X61640000Y-52270000D01*
X61725000Y-53905000D02*
X61725000Y-53985000D01*
X61685000Y-53945000D02*
X61765000Y-53945000D01*
D15*
X60145356Y-43960356D02*
X60145356Y-43889644D01*
X60074644Y-43889644D01*
X60074644Y-43960356D01*
X60145356Y-43960356D01*
X60145356Y-44710356D02*
X60145356Y-44639644D01*
X60074644Y-44639644D01*
X60074644Y-44710356D01*
X60145356Y-44710356D01*
X60145356Y-45660356D02*
X60145356Y-45589644D01*
X60074644Y-45589644D01*
X60074644Y-45660356D01*
X60145356Y-45660356D01*
X60145356Y-46410356D02*
X60145356Y-46339644D01*
X60074644Y-46339644D01*
X60074644Y-46410356D01*
X60145356Y-46410356D01*
X60145356Y-47345356D02*
X60145356Y-47274644D01*
X60074644Y-47274644D01*
X60074644Y-47345356D01*
X60145356Y-47345356D01*
X60145356Y-48095356D02*
X60145356Y-48024644D01*
X60074644Y-48024644D01*
X60074644Y-48095356D01*
X60145356Y-48095356D01*
D10*
X60202730Y-51850570D02*
X60252730Y-51800570D01*
X60202730Y-51750570D01*
X60152730Y-51800570D01*
X60202730Y-51850570D01*
X60202730Y-52104570D02*
X60252730Y-52054570D01*
X60202730Y-52004570D01*
X60152730Y-52054570D01*
X60202730Y-52104570D01*
X60202730Y-52358570D02*
X60252730Y-52308570D01*
X60202730Y-52258570D01*
X60152730Y-52308570D01*
X60202730Y-52358570D01*
X60202730Y-52612570D02*
X60252730Y-52562570D01*
X60202730Y-52512570D01*
X60152730Y-52562570D01*
X60202730Y-52612570D01*
X60202730Y-52866570D02*
X60252730Y-52816570D01*
X60202730Y-52766570D01*
X60152730Y-52816570D01*
X60202730Y-52866570D01*
X60202730Y-53120570D02*
X60252730Y-53070570D01*
X60202730Y-53020570D01*
X60152730Y-53070570D01*
X60202730Y-53120570D01*
X60202730Y-53374570D02*
X60252730Y-53324570D01*
X60202730Y-53274570D01*
X60152730Y-53324570D01*
X60202730Y-53374570D01*
X60202730Y-53628570D02*
X60252730Y-53578570D01*
X60202730Y-53528570D01*
X60152730Y-53578570D01*
X60202730Y-53628570D01*
X60202730Y-53882570D02*
X60252730Y-53832570D01*
X60202730Y-53782570D01*
X60152730Y-53832570D01*
X60202730Y-53882570D01*
X60456730Y-51850570D02*
X60506730Y-51800570D01*
X60456730Y-51750570D01*
X60406730Y-51800570D01*
X60456730Y-51850570D01*
X60456730Y-52104570D02*
X60506730Y-52054570D01*
X60456730Y-52004570D01*
X60406730Y-52054570D01*
X60456730Y-52104570D01*
X60456730Y-52358570D02*
X60506730Y-52308570D01*
X60456730Y-52258570D01*
X60406730Y-52308570D01*
X60456730Y-52358570D01*
X60456730Y-52612570D02*
X60506730Y-52562570D01*
X60456730Y-52512570D01*
X60406730Y-52562570D01*
X60456730Y-52612570D01*
X60456730Y-52866570D02*
X60506730Y-52816570D01*
X60456730Y-52766570D01*
X60406730Y-52816570D01*
X60456730Y-52866570D01*
X60456730Y-53120570D02*
X60506730Y-53070570D01*
X60456730Y-53020570D01*
X60406730Y-53070570D01*
X60456730Y-53120570D01*
X60456730Y-53374570D02*
X60506730Y-53324570D01*
X60456730Y-53274570D01*
X60406730Y-53324570D01*
X60456730Y-53374570D01*
X60456730Y-53628570D02*
X60506730Y-53578570D01*
X60456730Y-53528570D01*
X60406730Y-53578570D01*
X60456730Y-53628570D01*
X60456730Y-53882570D02*
X60506730Y-53832570D01*
X60456730Y-53782570D01*
X60406730Y-53832570D01*
X60456730Y-53882570D01*
X62742730Y-51850570D02*
X62792730Y-51800570D01*
X62742730Y-51750570D01*
X62692730Y-51800570D01*
X62742730Y-51850570D01*
X62742730Y-52104570D02*
X62792730Y-52054570D01*
X62742730Y-52004570D01*
X62692730Y-52054570D01*
X62742730Y-52104570D01*
X62742730Y-52358570D02*
X62792730Y-52308570D01*
X62742730Y-52258570D01*
X62692730Y-52308570D01*
X62742730Y-52358570D01*
X62742730Y-52612570D02*
X62792730Y-52562570D01*
X62742730Y-52512570D01*
X62692730Y-52562570D01*
X62742730Y-52612570D01*
X62742730Y-52866570D02*
X62792730Y-52816570D01*
X62742730Y-52766570D01*
X62692730Y-52816570D01*
X62742730Y-52866570D01*
X62742730Y-53120570D02*
X62792730Y-53070570D01*
X62742730Y-53020570D01*
X62692730Y-53070570D01*
X62742730Y-53120570D01*
X62742730Y-53374570D02*
X62792730Y-53324570D01*
X62742730Y-53274570D01*
X62692730Y-53324570D01*
X62742730Y-53374570D01*
X62742730Y-53628570D02*
X62792730Y-53578570D01*
X62742730Y-53528570D01*
X62692730Y-53578570D01*
X62742730Y-53628570D01*
X62742730Y-53882570D02*
X62792730Y-53832570D01*
X62742730Y-53782570D01*
X62692730Y-53832570D01*
X62742730Y-53882570D01*
X62996730Y-51850570D02*
X63046730Y-51800570D01*
X62996730Y-51750570D01*
X62946730Y-51800570D01*
X62996730Y-51850570D01*
X62996730Y-52104570D02*
X63046730Y-52054570D01*
X62996730Y-52004570D01*
X62946730Y-52054570D01*
X62996730Y-52104570D01*
X62996730Y-52358570D02*
X63046730Y-52308570D01*
X62996730Y-52258570D01*
X62946730Y-52308570D01*
X62996730Y-52358570D01*
X62996730Y-52612570D02*
X63046730Y-52562570D01*
X62996730Y-52512570D01*
X62946730Y-52562570D01*
X62996730Y-52612570D01*
X62996730Y-52866570D02*
X63046730Y-52816570D01*
X62996730Y-52766570D01*
X62946730Y-52816570D01*
X62996730Y-52866570D01*
X62996730Y-53120570D02*
X63046730Y-53070570D01*
X62996730Y-53020570D01*
X62946730Y-53070570D01*
X62996730Y-53120570D01*
X62996730Y-53374570D02*
X63046730Y-53324570D01*
X62996730Y-53274570D01*
X62946730Y-53324570D01*
X62996730Y-53374570D01*
X62996730Y-53628570D02*
X63046730Y-53578570D01*
X62996730Y-53528570D01*
X62946730Y-53578570D01*
X62996730Y-53628570D01*
X62996730Y-53882570D02*
X63046730Y-53832570D01*
X62996730Y-53782570D01*
X62946730Y-53832570D01*
X62996730Y-53882570D01*
D16*
X62770000Y-50270000D02*
X62890000Y-50390000D01*
X62890000Y-50270000D02*
X62770000Y-50390000D01*
X62890000Y-50330000D02*
G75*
G03*
X62890000Y-50330000I-60000J0D01*
G01*
D11*
X62795000Y-50390000D02*
X62865000Y-50390000D01*
X62865000Y-50390000D02*
G75*
G03*
X62865000Y-50270000I0J60000D01*
G01*
X62865000Y-50270000D02*
X62795000Y-50270000D01*
X62795000Y-50270000D02*
G75*
G03*
X62795000Y-50390000I0J-60000D01*
G01*
D16*
X62770000Y-50740000D02*
X62890000Y-50860000D01*
X62890000Y-50740000D02*
X62770000Y-50860000D01*
X62890000Y-50800000D02*
G75*
G03*
X62890000Y-50800000I-60000J0D01*
G01*
D11*
X62795000Y-50860000D02*
X62865000Y-50860000D01*
X62865000Y-50860000D02*
G75*
G03*
X62865000Y-50740000I0J60000D01*
G01*
X62865000Y-50740000D02*
X62795000Y-50740000D01*
X62795000Y-50740000D02*
G75*
G03*
X62795000Y-50860000I0J-60000D01*
G01*
D16*
X62770000Y-51210000D02*
X62890000Y-51330000D01*
X62890000Y-51210000D02*
X62770000Y-51330000D01*
X62890000Y-51270000D02*
G75*
G03*
X62890000Y-51270000I-60000J0D01*
G01*
D11*
X62795000Y-51330000D02*
X62865000Y-51330000D01*
X62865000Y-51330000D02*
G75*
G03*
X62865000Y-51210000I0J60000D01*
G01*
X62865000Y-51210000D02*
X62795000Y-51210000D01*
X62795000Y-51210000D02*
G75*
G03*
X62795000Y-51330000I0J-60000D01*
G01*
D17*
X61147000Y-40737000D02*
X61273000Y-40863000D01*
X61273000Y-40737000D02*
X61147000Y-40863000D01*
X61210000Y-40737000D02*
X61210000Y-40863000D01*
X61147000Y-40800000D02*
X61273000Y-40800000D01*
X61528000Y-40737000D02*
X61654000Y-40863000D01*
X61654000Y-40737000D02*
X61528000Y-40863000D01*
X61591000Y-40737000D02*
X61591000Y-40863000D01*
X61528000Y-40800000D02*
X61654000Y-40800000D01*
X61909000Y-40737000D02*
X62035000Y-40863000D01*
X62035000Y-40737000D02*
X61909000Y-40863000D01*
X61972000Y-40737000D02*
X61972000Y-40863000D01*
X61909000Y-40800000D02*
X62035000Y-40800000D01*
D11*
X60255777Y-55316484D02*
X60255777Y-55116484D01*
X60255777Y-55116484D02*
X60303396Y-55116484D01*
X60303396Y-55116484D02*
X60331967Y-55126008D01*
X60331967Y-55126008D02*
X60351015Y-55145055D01*
X60351015Y-55145055D02*
X60360539Y-55164103D01*
X60360539Y-55164103D02*
X60370062Y-55202198D01*
X60370062Y-55202198D02*
X60370062Y-55230769D01*
X60370062Y-55230769D02*
X60360539Y-55268865D01*
X60360539Y-55268865D02*
X60351015Y-55287912D01*
X60351015Y-55287912D02*
X60331967Y-55306960D01*
X60331967Y-55306960D02*
X60303396Y-55316484D01*
X60303396Y-55316484D02*
X60255777Y-55316484D01*
X60455777Y-55316484D02*
X60455777Y-55183150D01*
X60455777Y-55221246D02*
X60465301Y-55202198D01*
X60465301Y-55202198D02*
X60474824Y-55192674D01*
X60474824Y-55192674D02*
X60493872Y-55183150D01*
X60493872Y-55183150D02*
X60512920Y-55183150D01*
X60579586Y-55316484D02*
X60579586Y-55183150D01*
X60579586Y-55116484D02*
X60570062Y-55126008D01*
X60570062Y-55126008D02*
X60579586Y-55135531D01*
X60579586Y-55135531D02*
X60589110Y-55126008D01*
X60589110Y-55126008D02*
X60579586Y-55116484D01*
X60579586Y-55116484D02*
X60579586Y-55135531D01*
X60703396Y-55316484D02*
X60684348Y-55306960D01*
X60684348Y-55306960D02*
X60674824Y-55287912D01*
X60674824Y-55287912D02*
X60674824Y-55116484D01*
X60808158Y-55316484D02*
X60789110Y-55306960D01*
X60789110Y-55306960D02*
X60779586Y-55287912D01*
X60779586Y-55287912D02*
X60779586Y-55116484D01*
X61036729Y-55316484D02*
X61036729Y-55116484D01*
X61036729Y-55116484D02*
X61103396Y-55259341D01*
X61103396Y-55259341D02*
X61170062Y-55116484D01*
X61170062Y-55116484D02*
X61170062Y-55316484D01*
X61351015Y-55316484D02*
X61351015Y-55211722D01*
X61351015Y-55211722D02*
X61341491Y-55192674D01*
X61341491Y-55192674D02*
X61322443Y-55183150D01*
X61322443Y-55183150D02*
X61284348Y-55183150D01*
X61284348Y-55183150D02*
X61265301Y-55192674D01*
X61351015Y-55306960D02*
X61331967Y-55316484D01*
X61331967Y-55316484D02*
X61284348Y-55316484D01*
X61284348Y-55316484D02*
X61265301Y-55306960D01*
X61265301Y-55306960D02*
X61255777Y-55287912D01*
X61255777Y-55287912D02*
X61255777Y-55268865D01*
X61255777Y-55268865D02*
X61265301Y-55249817D01*
X61265301Y-55249817D02*
X61284348Y-55240293D01*
X61284348Y-55240293D02*
X61331967Y-55240293D01*
X61331967Y-55240293D02*
X61351015Y-55230769D01*
X61446253Y-55183150D02*
X61446253Y-55383150D01*
X61446253Y-55192674D02*
X61465301Y-55183150D01*
X61465301Y-55183150D02*
X61503396Y-55183150D01*
X61503396Y-55183150D02*
X61522443Y-55192674D01*
X61522443Y-55192674D02*
X61531967Y-55202198D01*
X61531967Y-55202198D02*
X61541491Y-55221246D01*
X61541491Y-55221246D02*
X61541491Y-55278388D01*
X61541491Y-55278388D02*
X61531967Y-55297436D01*
X61531967Y-55297436D02*
X61522443Y-55306960D01*
X61522443Y-55306960D02*
X61503396Y-55316484D01*
X61503396Y-55316484D02*
X61465301Y-55316484D01*
X61465301Y-55316484D02*
X61446253Y-55306960D01*
X61627205Y-55297436D02*
X61636729Y-55306960D01*
X61636729Y-55306960D02*
X61627205Y-55316484D01*
X61627205Y-55316484D02*
X61617682Y-55306960D01*
X61617682Y-55306960D02*
X61627205Y-55297436D01*
X61627205Y-55297436D02*
X61627205Y-55316484D01*
X61627205Y-55192674D02*
X61636729Y-55202198D01*
X61636729Y-55202198D02*
X61627205Y-55211722D01*
X61627205Y-55211722D02*
X61617682Y-55202198D01*
X61617682Y-55202198D02*
X61627205Y-55192674D01*
X61627205Y-55192674D02*
X61627205Y-55211722D01*
D12*
X59955000Y-55625000D02*
X59995000Y-55665000D01*
X59995000Y-55625000D02*
X59955000Y-55665000D01*
D11*
X60293872Y-55536484D02*
X60312920Y-55536484D01*
X60312920Y-55536484D02*
X60331967Y-55546008D01*
X60331967Y-55546008D02*
X60341491Y-55555531D01*
X60341491Y-55555531D02*
X60351015Y-55574579D01*
X60351015Y-55574579D02*
X60360539Y-55612674D01*
X60360539Y-55612674D02*
X60360539Y-55660293D01*
X60360539Y-55660293D02*
X60351015Y-55698388D01*
X60351015Y-55698388D02*
X60341491Y-55717436D01*
X60341491Y-55717436D02*
X60331967Y-55726960D01*
X60331967Y-55726960D02*
X60312920Y-55736484D01*
X60312920Y-55736484D02*
X60293872Y-55736484D01*
X60293872Y-55736484D02*
X60274824Y-55726960D01*
X60274824Y-55726960D02*
X60265301Y-55717436D01*
X60265301Y-55717436D02*
X60255777Y-55698388D01*
X60255777Y-55698388D02*
X60246253Y-55660293D01*
X60246253Y-55660293D02*
X60246253Y-55612674D01*
X60246253Y-55612674D02*
X60255777Y-55574579D01*
X60255777Y-55574579D02*
X60265301Y-55555531D01*
X60265301Y-55555531D02*
X60274824Y-55546008D01*
X60274824Y-55546008D02*
X60293872Y-55536484D01*
X60446253Y-55717436D02*
X60455777Y-55726960D01*
X60455777Y-55726960D02*
X60446253Y-55736484D01*
X60446253Y-55736484D02*
X60436729Y-55726960D01*
X60436729Y-55726960D02*
X60446253Y-55717436D01*
X60446253Y-55717436D02*
X60446253Y-55736484D01*
X60627205Y-55603150D02*
X60627205Y-55736484D01*
X60579586Y-55526960D02*
X60531967Y-55669817D01*
X60531967Y-55669817D02*
X60655777Y-55669817D01*
X60770062Y-55536484D02*
X60789110Y-55536484D01*
X60789110Y-55536484D02*
X60808158Y-55546008D01*
X60808158Y-55546008D02*
X60817682Y-55555531D01*
X60817682Y-55555531D02*
X60827205Y-55574579D01*
X60827205Y-55574579D02*
X60836729Y-55612674D01*
X60836729Y-55612674D02*
X60836729Y-55660293D01*
X60836729Y-55660293D02*
X60827205Y-55698388D01*
X60827205Y-55698388D02*
X60817682Y-55717436D01*
X60817682Y-55717436D02*
X60808158Y-55726960D01*
X60808158Y-55726960D02*
X60789110Y-55736484D01*
X60789110Y-55736484D02*
X60770062Y-55736484D01*
X60770062Y-55736484D02*
X60751015Y-55726960D01*
X60751015Y-55726960D02*
X60741491Y-55717436D01*
X60741491Y-55717436D02*
X60731967Y-55698388D01*
X60731967Y-55698388D02*
X60722443Y-55660293D01*
X60722443Y-55660293D02*
X60722443Y-55612674D01*
X60722443Y-55612674D02*
X60731967Y-55574579D01*
X60731967Y-55574579D02*
X60741491Y-55555531D01*
X60741491Y-55555531D02*
X60751015Y-55546008D01*
X60751015Y-55546008D02*
X60770062Y-55536484D01*
X60960539Y-55536484D02*
X60979586Y-55536484D01*
X60979586Y-55536484D02*
X60998634Y-55546008D01*
X60998634Y-55546008D02*
X61008158Y-55555531D01*
X61008158Y-55555531D02*
X61017682Y-55574579D01*
X61017682Y-55574579D02*
X61027205Y-55612674D01*
X61027205Y-55612674D02*
X61027205Y-55660293D01*
X61027205Y-55660293D02*
X61017682Y-55698388D01*
X61017682Y-55698388D02*
X61008158Y-55717436D01*
X61008158Y-55717436D02*
X60998634Y-55726960D01*
X60998634Y-55726960D02*
X60979586Y-55736484D01*
X60979586Y-55736484D02*
X60960539Y-55736484D01*
X60960539Y-55736484D02*
X60941491Y-55726960D01*
X60941491Y-55726960D02*
X60931967Y-55717436D01*
X60931967Y-55717436D02*
X60922443Y-55698388D01*
X60922443Y-55698388D02*
X60912920Y-55660293D01*
X60912920Y-55660293D02*
X60912920Y-55612674D01*
X60912920Y-55612674D02*
X60922443Y-55574579D01*
X60922443Y-55574579D02*
X60931967Y-55555531D01*
X60931967Y-55555531D02*
X60941491Y-55546008D01*
X60941491Y-55546008D02*
X60960539Y-55536484D01*
X61112920Y-55736484D02*
X61112920Y-55603150D01*
X61112920Y-55622198D02*
X61122443Y-55612674D01*
X61122443Y-55612674D02*
X61141491Y-55603150D01*
X61141491Y-55603150D02*
X61170063Y-55603150D01*
X61170063Y-55603150D02*
X61189110Y-55612674D01*
X61189110Y-55612674D02*
X61198634Y-55631722D01*
X61198634Y-55631722D02*
X61198634Y-55736484D01*
X61198634Y-55631722D02*
X61208158Y-55612674D01*
X61208158Y-55612674D02*
X61227205Y-55603150D01*
X61227205Y-55603150D02*
X61255777Y-55603150D01*
X61255777Y-55603150D02*
X61274824Y-55612674D01*
X61274824Y-55612674D02*
X61284348Y-55631722D01*
X61284348Y-55631722D02*
X61284348Y-55736484D01*
X61379586Y-55736484D02*
X61379586Y-55603150D01*
X61379586Y-55622198D02*
X61389110Y-55612674D01*
X61389110Y-55612674D02*
X61408158Y-55603150D01*
X61408158Y-55603150D02*
X61436729Y-55603150D01*
X61436729Y-55603150D02*
X61455777Y-55612674D01*
X61455777Y-55612674D02*
X61465301Y-55631722D01*
X61465301Y-55631722D02*
X61465301Y-55736484D01*
X61465301Y-55631722D02*
X61474824Y-55612674D01*
X61474824Y-55612674D02*
X61493872Y-55603150D01*
X61493872Y-55603150D02*
X61522443Y-55603150D01*
X61522443Y-55603150D02*
X61541491Y-55612674D01*
X61541491Y-55612674D02*
X61551015Y-55631722D01*
X61551015Y-55631722D02*
X61551015Y-55736484D01*
X61941491Y-55526960D02*
X61770063Y-55784103D01*
X62198634Y-55536484D02*
X62217682Y-55536484D01*
X62217682Y-55536484D02*
X62236729Y-55546008D01*
X62236729Y-55546008D02*
X62246253Y-55555531D01*
X62246253Y-55555531D02*
X62255777Y-55574579D01*
X62255777Y-55574579D02*
X62265301Y-55612674D01*
X62265301Y-55612674D02*
X62265301Y-55660293D01*
X62265301Y-55660293D02*
X62255777Y-55698388D01*
X62255777Y-55698388D02*
X62246253Y-55717436D01*
X62246253Y-55717436D02*
X62236729Y-55726960D01*
X62236729Y-55726960D02*
X62217682Y-55736484D01*
X62217682Y-55736484D02*
X62198634Y-55736484D01*
X62198634Y-55736484D02*
X62179586Y-55726960D01*
X62179586Y-55726960D02*
X62170063Y-55717436D01*
X62170063Y-55717436D02*
X62160539Y-55698388D01*
X62160539Y-55698388D02*
X62151015Y-55660293D01*
X62151015Y-55660293D02*
X62151015Y-55612674D01*
X62151015Y-55612674D02*
X62160539Y-55574579D01*
X62160539Y-55574579D02*
X62170063Y-55555531D01*
X62170063Y-55555531D02*
X62179586Y-55546008D01*
X62179586Y-55546008D02*
X62198634Y-55536484D01*
X62351015Y-55717436D02*
X62360539Y-55726960D01*
X62360539Y-55726960D02*
X62351015Y-55736484D01*
X62351015Y-55736484D02*
X62341491Y-55726960D01*
X62341491Y-55726960D02*
X62351015Y-55717436D01*
X62351015Y-55717436D02*
X62351015Y-55736484D01*
X62484348Y-55536484D02*
X62503396Y-55536484D01*
X62503396Y-55536484D02*
X62522444Y-55546008D01*
X62522444Y-55546008D02*
X62531967Y-55555531D01*
X62531967Y-55555531D02*
X62541491Y-55574579D01*
X62541491Y-55574579D02*
X62551015Y-55612674D01*
X62551015Y-55612674D02*
X62551015Y-55660293D01*
X62551015Y-55660293D02*
X62541491Y-55698388D01*
X62541491Y-55698388D02*
X62531967Y-55717436D01*
X62531967Y-55717436D02*
X62522444Y-55726960D01*
X62522444Y-55726960D02*
X62503396Y-55736484D01*
X62503396Y-55736484D02*
X62484348Y-55736484D01*
X62484348Y-55736484D02*
X62465301Y-55726960D01*
X62465301Y-55726960D02*
X62455777Y-55717436D01*
X62455777Y-55717436D02*
X62446253Y-55698388D01*
X62446253Y-55698388D02*
X62436729Y-55660293D01*
X62436729Y-55660293D02*
X62436729Y-55612674D01*
X62436729Y-55612674D02*
X62446253Y-55574579D01*
X62446253Y-55574579D02*
X62455777Y-55555531D01*
X62455777Y-55555531D02*
X62465301Y-55546008D01*
X62465301Y-55546008D02*
X62484348Y-55536484D01*
X62741491Y-55736484D02*
X62627206Y-55736484D01*
X62684348Y-55736484D02*
X62684348Y-55536484D01*
X62684348Y-55536484D02*
X62665301Y-55565055D01*
X62665301Y-55565055D02*
X62646253Y-55584103D01*
X62646253Y-55584103D02*
X62627206Y-55593627D01*
X62922444Y-55536484D02*
X62827206Y-55536484D01*
X62827206Y-55536484D02*
X62817682Y-55631722D01*
X62817682Y-55631722D02*
X62827206Y-55622198D01*
X62827206Y-55622198D02*
X62846253Y-55612674D01*
X62846253Y-55612674D02*
X62893872Y-55612674D01*
X62893872Y-55612674D02*
X62912920Y-55622198D01*
X62912920Y-55622198D02*
X62922444Y-55631722D01*
X62922444Y-55631722D02*
X62931967Y-55650769D01*
X62931967Y-55650769D02*
X62931967Y-55698388D01*
X62931967Y-55698388D02*
X62922444Y-55717436D01*
X62922444Y-55717436D02*
X62912920Y-55726960D01*
X62912920Y-55726960D02*
X62893872Y-55736484D01*
X62893872Y-55736484D02*
X62846253Y-55736484D01*
X62846253Y-55736484D02*
X62827206Y-55726960D01*
X62827206Y-55726960D02*
X62817682Y-55717436D01*
X62998634Y-55536484D02*
X63131967Y-55536484D01*
X63131967Y-55536484D02*
X63046253Y-55736484D01*
X63198634Y-55536484D02*
X63198634Y-55574579D01*
X63274825Y-55536484D02*
X63274825Y-55574579D01*
X63570063Y-55812674D02*
X63560539Y-55803150D01*
X63560539Y-55803150D02*
X63541491Y-55774579D01*
X63541491Y-55774579D02*
X63531968Y-55755531D01*
X63531968Y-55755531D02*
X63522444Y-55726960D01*
X63522444Y-55726960D02*
X63512920Y-55679341D01*
X63512920Y-55679341D02*
X63512920Y-55641246D01*
X63512920Y-55641246D02*
X63522444Y-55593627D01*
X63522444Y-55593627D02*
X63531968Y-55565055D01*
X63531968Y-55565055D02*
X63541491Y-55546008D01*
X63541491Y-55546008D02*
X63560539Y-55517436D01*
X63560539Y-55517436D02*
X63570063Y-55507912D01*
X63627206Y-55536484D02*
X63751015Y-55536484D01*
X63751015Y-55536484D02*
X63684348Y-55612674D01*
X63684348Y-55612674D02*
X63712920Y-55612674D01*
X63712920Y-55612674D02*
X63731968Y-55622198D01*
X63731968Y-55622198D02*
X63741491Y-55631722D01*
X63741491Y-55631722D02*
X63751015Y-55650769D01*
X63751015Y-55650769D02*
X63751015Y-55698388D01*
X63751015Y-55698388D02*
X63741491Y-55717436D01*
X63741491Y-55717436D02*
X63731968Y-55726960D01*
X63731968Y-55726960D02*
X63712920Y-55736484D01*
X63712920Y-55736484D02*
X63655777Y-55736484D01*
X63655777Y-55736484D02*
X63636729Y-55726960D01*
X63636729Y-55726960D02*
X63627206Y-55717436D01*
X63874825Y-55536484D02*
X63893872Y-55536484D01*
X63893872Y-55536484D02*
X63912920Y-55546008D01*
X63912920Y-55546008D02*
X63922444Y-55555531D01*
X63922444Y-55555531D02*
X63931968Y-55574579D01*
X63931968Y-55574579D02*
X63941491Y-55612674D01*
X63941491Y-55612674D02*
X63941491Y-55660293D01*
X63941491Y-55660293D02*
X63931968Y-55698388D01*
X63931968Y-55698388D02*
X63922444Y-55717436D01*
X63922444Y-55717436D02*
X63912920Y-55726960D01*
X63912920Y-55726960D02*
X63893872Y-55736484D01*
X63893872Y-55736484D02*
X63874825Y-55736484D01*
X63874825Y-55736484D02*
X63855777Y-55726960D01*
X63855777Y-55726960D02*
X63846253Y-55717436D01*
X63846253Y-55717436D02*
X63836729Y-55698388D01*
X63836729Y-55698388D02*
X63827206Y-55660293D01*
X63827206Y-55660293D02*
X63827206Y-55612674D01*
X63827206Y-55612674D02*
X63836729Y-55574579D01*
X63836729Y-55574579D02*
X63846253Y-55555531D01*
X63846253Y-55555531D02*
X63855777Y-55546008D01*
X63855777Y-55546008D02*
X63874825Y-55536484D01*
X64179587Y-55736484D02*
X64179587Y-55536484D01*
X64265301Y-55736484D02*
X64265301Y-55631722D01*
X64265301Y-55631722D02*
X64255777Y-55612674D01*
X64255777Y-55612674D02*
X64236730Y-55603150D01*
X64236730Y-55603150D02*
X64208158Y-55603150D01*
X64208158Y-55603150D02*
X64189110Y-55612674D01*
X64189110Y-55612674D02*
X64179587Y-55622198D01*
X64389110Y-55736484D02*
X64370063Y-55726960D01*
X64370063Y-55726960D02*
X64360539Y-55717436D01*
X64360539Y-55717436D02*
X64351015Y-55698388D01*
X64351015Y-55698388D02*
X64351015Y-55641246D01*
X64351015Y-55641246D02*
X64360539Y-55622198D01*
X64360539Y-55622198D02*
X64370063Y-55612674D01*
X64370063Y-55612674D02*
X64389110Y-55603150D01*
X64389110Y-55603150D02*
X64417682Y-55603150D01*
X64417682Y-55603150D02*
X64436730Y-55612674D01*
X64436730Y-55612674D02*
X64446253Y-55622198D01*
X64446253Y-55622198D02*
X64455777Y-55641246D01*
X64455777Y-55641246D02*
X64455777Y-55698388D01*
X64455777Y-55698388D02*
X64446253Y-55717436D01*
X64446253Y-55717436D02*
X64436730Y-55726960D01*
X64436730Y-55726960D02*
X64417682Y-55736484D01*
X64417682Y-55736484D02*
X64389110Y-55736484D01*
X64570063Y-55736484D02*
X64551015Y-55726960D01*
X64551015Y-55726960D02*
X64541491Y-55707912D01*
X64541491Y-55707912D02*
X64541491Y-55536484D01*
X64722444Y-55726960D02*
X64703396Y-55736484D01*
X64703396Y-55736484D02*
X64665301Y-55736484D01*
X64665301Y-55736484D02*
X64646253Y-55726960D01*
X64646253Y-55726960D02*
X64636730Y-55707912D01*
X64636730Y-55707912D02*
X64636730Y-55631722D01*
X64636730Y-55631722D02*
X64646253Y-55612674D01*
X64646253Y-55612674D02*
X64665301Y-55603150D01*
X64665301Y-55603150D02*
X64703396Y-55603150D01*
X64703396Y-55603150D02*
X64722444Y-55612674D01*
X64722444Y-55612674D02*
X64731968Y-55631722D01*
X64731968Y-55631722D02*
X64731968Y-55650769D01*
X64731968Y-55650769D02*
X64636730Y-55669817D01*
X64808158Y-55726960D02*
X64827206Y-55736484D01*
X64827206Y-55736484D02*
X64865301Y-55736484D01*
X64865301Y-55736484D02*
X64884349Y-55726960D01*
X64884349Y-55726960D02*
X64893872Y-55707912D01*
X64893872Y-55707912D02*
X64893872Y-55698388D01*
X64893872Y-55698388D02*
X64884349Y-55679341D01*
X64884349Y-55679341D02*
X64865301Y-55669817D01*
X64865301Y-55669817D02*
X64836730Y-55669817D01*
X64836730Y-55669817D02*
X64817682Y-55660293D01*
X64817682Y-55660293D02*
X64808158Y-55641246D01*
X64808158Y-55641246D02*
X64808158Y-55631722D01*
X64808158Y-55631722D02*
X64817682Y-55612674D01*
X64817682Y-55612674D02*
X64836730Y-55603150D01*
X64836730Y-55603150D02*
X64865301Y-55603150D01*
X64865301Y-55603150D02*
X64884349Y-55612674D01*
X64960539Y-55812674D02*
X64970063Y-55803150D01*
X64970063Y-55803150D02*
X64989111Y-55774579D01*
X64989111Y-55774579D02*
X64998634Y-55755531D01*
X64998634Y-55755531D02*
X65008158Y-55726960D01*
X65008158Y-55726960D02*
X65017682Y-55679341D01*
X65017682Y-55679341D02*
X65017682Y-55641246D01*
X65017682Y-55641246D02*
X65008158Y-55593627D01*
X65008158Y-55593627D02*
X64998634Y-55565055D01*
X64998634Y-55565055D02*
X64989111Y-55546008D01*
X64989111Y-55546008D02*
X64970063Y-55517436D01*
X64970063Y-55517436D02*
X64960539Y-55507912D01*
D13*
X59995000Y-55909000D02*
G75*
G03*
X59995000Y-55909000I-35001J0D01*
G01*
D11*
X60293872Y-55800484D02*
X60312920Y-55800484D01*
X60312920Y-55800484D02*
X60331967Y-55810008D01*
X60331967Y-55810008D02*
X60341491Y-55819531D01*
X60341491Y-55819531D02*
X60351015Y-55838579D01*
X60351015Y-55838579D02*
X60360539Y-55876674D01*
X60360539Y-55876674D02*
X60360539Y-55924293D01*
X60360539Y-55924293D02*
X60351015Y-55962388D01*
X60351015Y-55962388D02*
X60341491Y-55981436D01*
X60341491Y-55981436D02*
X60331967Y-55990960D01*
X60331967Y-55990960D02*
X60312920Y-56000484D01*
X60312920Y-56000484D02*
X60293872Y-56000484D01*
X60293872Y-56000484D02*
X60274824Y-55990960D01*
X60274824Y-55990960D02*
X60265301Y-55981436D01*
X60265301Y-55981436D02*
X60255777Y-55962388D01*
X60255777Y-55962388D02*
X60246253Y-55924293D01*
X60246253Y-55924293D02*
X60246253Y-55876674D01*
X60246253Y-55876674D02*
X60255777Y-55838579D01*
X60255777Y-55838579D02*
X60265301Y-55819531D01*
X60265301Y-55819531D02*
X60274824Y-55810008D01*
X60274824Y-55810008D02*
X60293872Y-55800484D01*
X60446253Y-55981436D02*
X60455777Y-55990960D01*
X60455777Y-55990960D02*
X60446253Y-56000484D01*
X60446253Y-56000484D02*
X60436729Y-55990960D01*
X60436729Y-55990960D02*
X60446253Y-55981436D01*
X60446253Y-55981436D02*
X60446253Y-56000484D01*
X60522443Y-55800484D02*
X60655777Y-55800484D01*
X60655777Y-55800484D02*
X60570062Y-56000484D01*
X60770062Y-55800484D02*
X60789110Y-55800484D01*
X60789110Y-55800484D02*
X60808158Y-55810008D01*
X60808158Y-55810008D02*
X60817682Y-55819531D01*
X60817682Y-55819531D02*
X60827205Y-55838579D01*
X60827205Y-55838579D02*
X60836729Y-55876674D01*
X60836729Y-55876674D02*
X60836729Y-55924293D01*
X60836729Y-55924293D02*
X60827205Y-55962388D01*
X60827205Y-55962388D02*
X60817682Y-55981436D01*
X60817682Y-55981436D02*
X60808158Y-55990960D01*
X60808158Y-55990960D02*
X60789110Y-56000484D01*
X60789110Y-56000484D02*
X60770062Y-56000484D01*
X60770062Y-56000484D02*
X60751015Y-55990960D01*
X60751015Y-55990960D02*
X60741491Y-55981436D01*
X60741491Y-55981436D02*
X60731967Y-55962388D01*
X60731967Y-55962388D02*
X60722443Y-55924293D01*
X60722443Y-55924293D02*
X60722443Y-55876674D01*
X60722443Y-55876674D02*
X60731967Y-55838579D01*
X60731967Y-55838579D02*
X60741491Y-55819531D01*
X60741491Y-55819531D02*
X60751015Y-55810008D01*
X60751015Y-55810008D02*
X60770062Y-55800484D01*
X60960539Y-55800484D02*
X60979586Y-55800484D01*
X60979586Y-55800484D02*
X60998634Y-55810008D01*
X60998634Y-55810008D02*
X61008158Y-55819531D01*
X61008158Y-55819531D02*
X61017682Y-55838579D01*
X61017682Y-55838579D02*
X61027205Y-55876674D01*
X61027205Y-55876674D02*
X61027205Y-55924293D01*
X61027205Y-55924293D02*
X61017682Y-55962388D01*
X61017682Y-55962388D02*
X61008158Y-55981436D01*
X61008158Y-55981436D02*
X60998634Y-55990960D01*
X60998634Y-55990960D02*
X60979586Y-56000484D01*
X60979586Y-56000484D02*
X60960539Y-56000484D01*
X60960539Y-56000484D02*
X60941491Y-55990960D01*
X60941491Y-55990960D02*
X60931967Y-55981436D01*
X60931967Y-55981436D02*
X60922443Y-55962388D01*
X60922443Y-55962388D02*
X60912920Y-55924293D01*
X60912920Y-55924293D02*
X60912920Y-55876674D01*
X60912920Y-55876674D02*
X60922443Y-55838579D01*
X60922443Y-55838579D02*
X60931967Y-55819531D01*
X60931967Y-55819531D02*
X60941491Y-55810008D01*
X60941491Y-55810008D02*
X60960539Y-55800484D01*
X61112920Y-56000484D02*
X61112920Y-55867150D01*
X61112920Y-55886198D02*
X61122443Y-55876674D01*
X61122443Y-55876674D02*
X61141491Y-55867150D01*
X61141491Y-55867150D02*
X61170063Y-55867150D01*
X61170063Y-55867150D02*
X61189110Y-55876674D01*
X61189110Y-55876674D02*
X61198634Y-55895722D01*
X61198634Y-55895722D02*
X61198634Y-56000484D01*
X61198634Y-55895722D02*
X61208158Y-55876674D01*
X61208158Y-55876674D02*
X61227205Y-55867150D01*
X61227205Y-55867150D02*
X61255777Y-55867150D01*
X61255777Y-55867150D02*
X61274824Y-55876674D01*
X61274824Y-55876674D02*
X61284348Y-55895722D01*
X61284348Y-55895722D02*
X61284348Y-56000484D01*
X61379586Y-56000484D02*
X61379586Y-55867150D01*
X61379586Y-55886198D02*
X61389110Y-55876674D01*
X61389110Y-55876674D02*
X61408158Y-55867150D01*
X61408158Y-55867150D02*
X61436729Y-55867150D01*
X61436729Y-55867150D02*
X61455777Y-55876674D01*
X61455777Y-55876674D02*
X61465301Y-55895722D01*
X61465301Y-55895722D02*
X61465301Y-56000484D01*
X61465301Y-55895722D02*
X61474824Y-55876674D01*
X61474824Y-55876674D02*
X61493872Y-55867150D01*
X61493872Y-55867150D02*
X61522443Y-55867150D01*
X61522443Y-55867150D02*
X61541491Y-55876674D01*
X61541491Y-55876674D02*
X61551015Y-55895722D01*
X61551015Y-55895722D02*
X61551015Y-56000484D01*
X61941491Y-55790960D02*
X61770063Y-56048103D01*
X62198634Y-55800484D02*
X62217682Y-55800484D01*
X62217682Y-55800484D02*
X62236729Y-55810008D01*
X62236729Y-55810008D02*
X62246253Y-55819531D01*
X62246253Y-55819531D02*
X62255777Y-55838579D01*
X62255777Y-55838579D02*
X62265301Y-55876674D01*
X62265301Y-55876674D02*
X62265301Y-55924293D01*
X62265301Y-55924293D02*
X62255777Y-55962388D01*
X62255777Y-55962388D02*
X62246253Y-55981436D01*
X62246253Y-55981436D02*
X62236729Y-55990960D01*
X62236729Y-55990960D02*
X62217682Y-56000484D01*
X62217682Y-56000484D02*
X62198634Y-56000484D01*
X62198634Y-56000484D02*
X62179586Y-55990960D01*
X62179586Y-55990960D02*
X62170063Y-55981436D01*
X62170063Y-55981436D02*
X62160539Y-55962388D01*
X62160539Y-55962388D02*
X62151015Y-55924293D01*
X62151015Y-55924293D02*
X62151015Y-55876674D01*
X62151015Y-55876674D02*
X62160539Y-55838579D01*
X62160539Y-55838579D02*
X62170063Y-55819531D01*
X62170063Y-55819531D02*
X62179586Y-55810008D01*
X62179586Y-55810008D02*
X62198634Y-55800484D01*
X62351015Y-55981436D02*
X62360539Y-55990960D01*
X62360539Y-55990960D02*
X62351015Y-56000484D01*
X62351015Y-56000484D02*
X62341491Y-55990960D01*
X62341491Y-55990960D02*
X62351015Y-55981436D01*
X62351015Y-55981436D02*
X62351015Y-56000484D01*
X62484348Y-55800484D02*
X62503396Y-55800484D01*
X62503396Y-55800484D02*
X62522444Y-55810008D01*
X62522444Y-55810008D02*
X62531967Y-55819531D01*
X62531967Y-55819531D02*
X62541491Y-55838579D01*
X62541491Y-55838579D02*
X62551015Y-55876674D01*
X62551015Y-55876674D02*
X62551015Y-55924293D01*
X62551015Y-55924293D02*
X62541491Y-55962388D01*
X62541491Y-55962388D02*
X62531967Y-55981436D01*
X62531967Y-55981436D02*
X62522444Y-55990960D01*
X62522444Y-55990960D02*
X62503396Y-56000484D01*
X62503396Y-56000484D02*
X62484348Y-56000484D01*
X62484348Y-56000484D02*
X62465301Y-55990960D01*
X62465301Y-55990960D02*
X62455777Y-55981436D01*
X62455777Y-55981436D02*
X62446253Y-55962388D01*
X62446253Y-55962388D02*
X62436729Y-55924293D01*
X62436729Y-55924293D02*
X62436729Y-55876674D01*
X62436729Y-55876674D02*
X62446253Y-55838579D01*
X62446253Y-55838579D02*
X62455777Y-55819531D01*
X62455777Y-55819531D02*
X62465301Y-55810008D01*
X62465301Y-55810008D02*
X62484348Y-55800484D01*
X62627206Y-55819531D02*
X62636729Y-55810008D01*
X62636729Y-55810008D02*
X62655777Y-55800484D01*
X62655777Y-55800484D02*
X62703396Y-55800484D01*
X62703396Y-55800484D02*
X62722444Y-55810008D01*
X62722444Y-55810008D02*
X62731967Y-55819531D01*
X62731967Y-55819531D02*
X62741491Y-55838579D01*
X62741491Y-55838579D02*
X62741491Y-55857627D01*
X62741491Y-55857627D02*
X62731967Y-55886198D01*
X62731967Y-55886198D02*
X62617682Y-56000484D01*
X62617682Y-56000484D02*
X62741491Y-56000484D01*
X62808158Y-55800484D02*
X62941491Y-55800484D01*
X62941491Y-55800484D02*
X62855777Y-56000484D01*
X63103396Y-55800484D02*
X63065301Y-55800484D01*
X63065301Y-55800484D02*
X63046253Y-55810008D01*
X63046253Y-55810008D02*
X63036729Y-55819531D01*
X63036729Y-55819531D02*
X63017682Y-55848103D01*
X63017682Y-55848103D02*
X63008158Y-55886198D01*
X63008158Y-55886198D02*
X63008158Y-55962388D01*
X63008158Y-55962388D02*
X63017682Y-55981436D01*
X63017682Y-55981436D02*
X63027206Y-55990960D01*
X63027206Y-55990960D02*
X63046253Y-56000484D01*
X63046253Y-56000484D02*
X63084348Y-56000484D01*
X63084348Y-56000484D02*
X63103396Y-55990960D01*
X63103396Y-55990960D02*
X63112920Y-55981436D01*
X63112920Y-55981436D02*
X63122444Y-55962388D01*
X63122444Y-55962388D02*
X63122444Y-55914769D01*
X63122444Y-55914769D02*
X63112920Y-55895722D01*
X63112920Y-55895722D02*
X63103396Y-55886198D01*
X63103396Y-55886198D02*
X63084348Y-55876674D01*
X63084348Y-55876674D02*
X63046253Y-55876674D01*
X63046253Y-55876674D02*
X63027206Y-55886198D01*
X63027206Y-55886198D02*
X63017682Y-55895722D01*
X63017682Y-55895722D02*
X63008158Y-55914769D01*
X63198634Y-55800484D02*
X63198634Y-55838579D01*
X63274825Y-55800484D02*
X63274825Y-55838579D01*
X63570063Y-56076674D02*
X63560539Y-56067150D01*
X63560539Y-56067150D02*
X63541491Y-56038579D01*
X63541491Y-56038579D02*
X63531968Y-56019531D01*
X63531968Y-56019531D02*
X63522444Y-55990960D01*
X63522444Y-55990960D02*
X63512920Y-55943341D01*
X63512920Y-55943341D02*
X63512920Y-55905246D01*
X63512920Y-55905246D02*
X63522444Y-55857627D01*
X63522444Y-55857627D02*
X63531968Y-55829055D01*
X63531968Y-55829055D02*
X63541491Y-55810008D01*
X63541491Y-55810008D02*
X63560539Y-55781436D01*
X63560539Y-55781436D02*
X63570063Y-55771912D01*
X63684348Y-55800484D02*
X63703396Y-55800484D01*
X63703396Y-55800484D02*
X63722444Y-55810008D01*
X63722444Y-55810008D02*
X63731968Y-55819531D01*
X63731968Y-55819531D02*
X63741491Y-55838579D01*
X63741491Y-55838579D02*
X63751015Y-55876674D01*
X63751015Y-55876674D02*
X63751015Y-55924293D01*
X63751015Y-55924293D02*
X63741491Y-55962388D01*
X63741491Y-55962388D02*
X63731968Y-55981436D01*
X63731968Y-55981436D02*
X63722444Y-55990960D01*
X63722444Y-55990960D02*
X63703396Y-56000484D01*
X63703396Y-56000484D02*
X63684348Y-56000484D01*
X63684348Y-56000484D02*
X63665301Y-55990960D01*
X63665301Y-55990960D02*
X63655777Y-55981436D01*
X63655777Y-55981436D02*
X63646253Y-55962388D01*
X63646253Y-55962388D02*
X63636729Y-55924293D01*
X63636729Y-55924293D02*
X63636729Y-55876674D01*
X63636729Y-55876674D02*
X63646253Y-55838579D01*
X63646253Y-55838579D02*
X63655777Y-55819531D01*
X63655777Y-55819531D02*
X63665301Y-55810008D01*
X63665301Y-55810008D02*
X63684348Y-55800484D01*
X63989110Y-56000484D02*
X63989110Y-55800484D01*
X64074825Y-56000484D02*
X64074825Y-55895722D01*
X64074825Y-55895722D02*
X64065301Y-55876674D01*
X64065301Y-55876674D02*
X64046253Y-55867150D01*
X64046253Y-55867150D02*
X64017682Y-55867150D01*
X64017682Y-55867150D02*
X63998634Y-55876674D01*
X63998634Y-55876674D02*
X63989110Y-55886198D01*
X64198634Y-56000484D02*
X64179587Y-55990960D01*
X64179587Y-55990960D02*
X64170063Y-55981436D01*
X64170063Y-55981436D02*
X64160539Y-55962388D01*
X64160539Y-55962388D02*
X64160539Y-55905246D01*
X64160539Y-55905246D02*
X64170063Y-55886198D01*
X64170063Y-55886198D02*
X64179587Y-55876674D01*
X64179587Y-55876674D02*
X64198634Y-55867150D01*
X64198634Y-55867150D02*
X64227206Y-55867150D01*
X64227206Y-55867150D02*
X64246253Y-55876674D01*
X64246253Y-55876674D02*
X64255777Y-55886198D01*
X64255777Y-55886198D02*
X64265301Y-55905246D01*
X64265301Y-55905246D02*
X64265301Y-55962388D01*
X64265301Y-55962388D02*
X64255777Y-55981436D01*
X64255777Y-55981436D02*
X64246253Y-55990960D01*
X64246253Y-55990960D02*
X64227206Y-56000484D01*
X64227206Y-56000484D02*
X64198634Y-56000484D01*
X64379587Y-56000484D02*
X64360539Y-55990960D01*
X64360539Y-55990960D02*
X64351015Y-55971912D01*
X64351015Y-55971912D02*
X64351015Y-55800484D01*
X64531968Y-55990960D02*
X64512920Y-56000484D01*
X64512920Y-56000484D02*
X64474825Y-56000484D01*
X64474825Y-56000484D02*
X64455777Y-55990960D01*
X64455777Y-55990960D02*
X64446253Y-55971912D01*
X64446253Y-55971912D02*
X64446253Y-55895722D01*
X64446253Y-55895722D02*
X64455777Y-55876674D01*
X64455777Y-55876674D02*
X64474825Y-55867150D01*
X64474825Y-55867150D02*
X64512920Y-55867150D01*
X64512920Y-55867150D02*
X64531968Y-55876674D01*
X64531968Y-55876674D02*
X64541491Y-55895722D01*
X64541491Y-55895722D02*
X64541491Y-55914769D01*
X64541491Y-55914769D02*
X64446253Y-55933817D01*
X64617682Y-55990960D02*
X64636730Y-56000484D01*
X64636730Y-56000484D02*
X64674825Y-56000484D01*
X64674825Y-56000484D02*
X64693872Y-55990960D01*
X64693872Y-55990960D02*
X64703396Y-55971912D01*
X64703396Y-55971912D02*
X64703396Y-55962388D01*
X64703396Y-55962388D02*
X64693872Y-55943341D01*
X64693872Y-55943341D02*
X64674825Y-55933817D01*
X64674825Y-55933817D02*
X64646253Y-55933817D01*
X64646253Y-55933817D02*
X64627206Y-55924293D01*
X64627206Y-55924293D02*
X64617682Y-55905246D01*
X64617682Y-55905246D02*
X64617682Y-55895722D01*
X64617682Y-55895722D02*
X64627206Y-55876674D01*
X64627206Y-55876674D02*
X64646253Y-55867150D01*
X64646253Y-55867150D02*
X64674825Y-55867150D01*
X64674825Y-55867150D02*
X64693872Y-55876674D01*
X64941492Y-55924293D02*
X65093873Y-55924293D01*
X65017682Y-56000484D02*
X65017682Y-55848103D01*
X65427206Y-55867150D02*
X65427206Y-56000484D01*
X65379587Y-55790960D02*
X65331968Y-55933817D01*
X65331968Y-55933817D02*
X65455777Y-55933817D01*
X65674825Y-55990960D02*
X65693873Y-56000484D01*
X65693873Y-56000484D02*
X65731968Y-56000484D01*
X65731968Y-56000484D02*
X65751015Y-55990960D01*
X65751015Y-55990960D02*
X65760539Y-55971912D01*
X65760539Y-55971912D02*
X65760539Y-55962388D01*
X65760539Y-55962388D02*
X65751015Y-55943341D01*
X65751015Y-55943341D02*
X65731968Y-55933817D01*
X65731968Y-55933817D02*
X65703396Y-55933817D01*
X65703396Y-55933817D02*
X65684349Y-55924293D01*
X65684349Y-55924293D02*
X65674825Y-55905246D01*
X65674825Y-55905246D02*
X65674825Y-55895722D01*
X65674825Y-55895722D02*
X65684349Y-55876674D01*
X65684349Y-55876674D02*
X65703396Y-55867150D01*
X65703396Y-55867150D02*
X65731968Y-55867150D01*
X65731968Y-55867150D02*
X65751015Y-55876674D01*
X65874825Y-56000484D02*
X65855777Y-55990960D01*
X65855777Y-55990960D02*
X65846254Y-55971912D01*
X65846254Y-55971912D02*
X65846254Y-55800484D01*
X65979587Y-56000484D02*
X65960539Y-55990960D01*
X65960539Y-55990960D02*
X65951015Y-55981436D01*
X65951015Y-55981436D02*
X65941492Y-55962388D01*
X65941492Y-55962388D02*
X65941492Y-55905246D01*
X65941492Y-55905246D02*
X65951015Y-55886198D01*
X65951015Y-55886198D02*
X65960539Y-55876674D01*
X65960539Y-55876674D02*
X65979587Y-55867150D01*
X65979587Y-55867150D02*
X66008158Y-55867150D01*
X66008158Y-55867150D02*
X66027206Y-55876674D01*
X66027206Y-55876674D02*
X66036730Y-55886198D01*
X66036730Y-55886198D02*
X66046254Y-55905246D01*
X66046254Y-55905246D02*
X66046254Y-55962388D01*
X66046254Y-55962388D02*
X66036730Y-55981436D01*
X66036730Y-55981436D02*
X66027206Y-55990960D01*
X66027206Y-55990960D02*
X66008158Y-56000484D01*
X66008158Y-56000484D02*
X65979587Y-56000484D01*
X66103396Y-55867150D02*
X66179587Y-55867150D01*
X66131968Y-55800484D02*
X66131968Y-55971912D01*
X66131968Y-55971912D02*
X66141492Y-55990960D01*
X66141492Y-55990960D02*
X66160539Y-56000484D01*
X66160539Y-56000484D02*
X66179587Y-56000484D01*
X66236730Y-55990960D02*
X66255777Y-56000484D01*
X66255777Y-56000484D02*
X66293873Y-56000484D01*
X66293873Y-56000484D02*
X66312920Y-55990960D01*
X66312920Y-55990960D02*
X66322444Y-55971912D01*
X66322444Y-55971912D02*
X66322444Y-55962388D01*
X66322444Y-55962388D02*
X66312920Y-55943341D01*
X66312920Y-55943341D02*
X66293873Y-55933817D01*
X66293873Y-55933817D02*
X66265301Y-55933817D01*
X66265301Y-55933817D02*
X66246254Y-55924293D01*
X66246254Y-55924293D02*
X66236730Y-55905246D01*
X66236730Y-55905246D02*
X66236730Y-55895722D01*
X66236730Y-55895722D02*
X66246254Y-55876674D01*
X66246254Y-55876674D02*
X66265301Y-55867150D01*
X66265301Y-55867150D02*
X66293873Y-55867150D01*
X66293873Y-55867150D02*
X66312920Y-55876674D01*
X66389111Y-56076674D02*
X66398635Y-56067150D01*
X66398635Y-56067150D02*
X66417682Y-56038579D01*
X66417682Y-56038579D02*
X66427206Y-56019531D01*
X66427206Y-56019531D02*
X66436730Y-55990960D01*
X66436730Y-55990960D02*
X66446254Y-55943341D01*
X66446254Y-55943341D02*
X66446254Y-55905246D01*
X66446254Y-55905246D02*
X66436730Y-55857627D01*
X66436730Y-55857627D02*
X66427206Y-55829055D01*
X66427206Y-55829055D02*
X66417682Y-55810008D01*
X66417682Y-55810008D02*
X66398635Y-55781436D01*
X66398635Y-55781436D02*
X66389111Y-55771912D01*
D14*
X59955000Y-56133000D02*
X59955000Y-56213000D01*
X59915000Y-56173000D02*
X59995000Y-56173000D01*
D11*
X60293872Y-56064484D02*
X60312920Y-56064484D01*
X60312920Y-56064484D02*
X60331967Y-56074008D01*
X60331967Y-56074008D02*
X60341491Y-56083531D01*
X60341491Y-56083531D02*
X60351015Y-56102579D01*
X60351015Y-56102579D02*
X60360539Y-56140674D01*
X60360539Y-56140674D02*
X60360539Y-56188293D01*
X60360539Y-56188293D02*
X60351015Y-56226388D01*
X60351015Y-56226388D02*
X60341491Y-56245436D01*
X60341491Y-56245436D02*
X60331967Y-56254960D01*
X60331967Y-56254960D02*
X60312920Y-56264484D01*
X60312920Y-56264484D02*
X60293872Y-56264484D01*
X60293872Y-56264484D02*
X60274824Y-56254960D01*
X60274824Y-56254960D02*
X60265301Y-56245436D01*
X60265301Y-56245436D02*
X60255777Y-56226388D01*
X60255777Y-56226388D02*
X60246253Y-56188293D01*
X60246253Y-56188293D02*
X60246253Y-56140674D01*
X60246253Y-56140674D02*
X60255777Y-56102579D01*
X60255777Y-56102579D02*
X60265301Y-56083531D01*
X60265301Y-56083531D02*
X60274824Y-56074008D01*
X60274824Y-56074008D02*
X60293872Y-56064484D01*
X60446253Y-56245436D02*
X60455777Y-56254960D01*
X60455777Y-56254960D02*
X60446253Y-56264484D01*
X60446253Y-56264484D02*
X60436729Y-56254960D01*
X60436729Y-56254960D02*
X60446253Y-56245436D01*
X60446253Y-56245436D02*
X60446253Y-56264484D01*
X60570062Y-56150198D02*
X60551015Y-56140674D01*
X60551015Y-56140674D02*
X60541491Y-56131150D01*
X60541491Y-56131150D02*
X60531967Y-56112103D01*
X60531967Y-56112103D02*
X60531967Y-56102579D01*
X60531967Y-56102579D02*
X60541491Y-56083531D01*
X60541491Y-56083531D02*
X60551015Y-56074008D01*
X60551015Y-56074008D02*
X60570062Y-56064484D01*
X60570062Y-56064484D02*
X60608158Y-56064484D01*
X60608158Y-56064484D02*
X60627205Y-56074008D01*
X60627205Y-56074008D02*
X60636729Y-56083531D01*
X60636729Y-56083531D02*
X60646253Y-56102579D01*
X60646253Y-56102579D02*
X60646253Y-56112103D01*
X60646253Y-56112103D02*
X60636729Y-56131150D01*
X60636729Y-56131150D02*
X60627205Y-56140674D01*
X60627205Y-56140674D02*
X60608158Y-56150198D01*
X60608158Y-56150198D02*
X60570062Y-56150198D01*
X60570062Y-56150198D02*
X60551015Y-56159722D01*
X60551015Y-56159722D02*
X60541491Y-56169246D01*
X60541491Y-56169246D02*
X60531967Y-56188293D01*
X60531967Y-56188293D02*
X60531967Y-56226388D01*
X60531967Y-56226388D02*
X60541491Y-56245436D01*
X60541491Y-56245436D02*
X60551015Y-56254960D01*
X60551015Y-56254960D02*
X60570062Y-56264484D01*
X60570062Y-56264484D02*
X60608158Y-56264484D01*
X60608158Y-56264484D02*
X60627205Y-56254960D01*
X60627205Y-56254960D02*
X60636729Y-56245436D01*
X60636729Y-56245436D02*
X60646253Y-56226388D01*
X60646253Y-56226388D02*
X60646253Y-56188293D01*
X60646253Y-56188293D02*
X60636729Y-56169246D01*
X60636729Y-56169246D02*
X60627205Y-56159722D01*
X60627205Y-56159722D02*
X60608158Y-56150198D01*
X60770062Y-56064484D02*
X60789110Y-56064484D01*
X60789110Y-56064484D02*
X60808158Y-56074008D01*
X60808158Y-56074008D02*
X60817682Y-56083531D01*
X60817682Y-56083531D02*
X60827205Y-56102579D01*
X60827205Y-56102579D02*
X60836729Y-56140674D01*
X60836729Y-56140674D02*
X60836729Y-56188293D01*
X60836729Y-56188293D02*
X60827205Y-56226388D01*
X60827205Y-56226388D02*
X60817682Y-56245436D01*
X60817682Y-56245436D02*
X60808158Y-56254960D01*
X60808158Y-56254960D02*
X60789110Y-56264484D01*
X60789110Y-56264484D02*
X60770062Y-56264484D01*
X60770062Y-56264484D02*
X60751015Y-56254960D01*
X60751015Y-56254960D02*
X60741491Y-56245436D01*
X60741491Y-56245436D02*
X60731967Y-56226388D01*
X60731967Y-56226388D02*
X60722443Y-56188293D01*
X60722443Y-56188293D02*
X60722443Y-56140674D01*
X60722443Y-56140674D02*
X60731967Y-56102579D01*
X60731967Y-56102579D02*
X60741491Y-56083531D01*
X60741491Y-56083531D02*
X60751015Y-56074008D01*
X60751015Y-56074008D02*
X60770062Y-56064484D01*
X60960539Y-56064484D02*
X60979586Y-56064484D01*
X60979586Y-56064484D02*
X60998634Y-56074008D01*
X60998634Y-56074008D02*
X61008158Y-56083531D01*
X61008158Y-56083531D02*
X61017682Y-56102579D01*
X61017682Y-56102579D02*
X61027205Y-56140674D01*
X61027205Y-56140674D02*
X61027205Y-56188293D01*
X61027205Y-56188293D02*
X61017682Y-56226388D01*
X61017682Y-56226388D02*
X61008158Y-56245436D01*
X61008158Y-56245436D02*
X60998634Y-56254960D01*
X60998634Y-56254960D02*
X60979586Y-56264484D01*
X60979586Y-56264484D02*
X60960539Y-56264484D01*
X60960539Y-56264484D02*
X60941491Y-56254960D01*
X60941491Y-56254960D02*
X60931967Y-56245436D01*
X60931967Y-56245436D02*
X60922443Y-56226388D01*
X60922443Y-56226388D02*
X60912920Y-56188293D01*
X60912920Y-56188293D02*
X60912920Y-56140674D01*
X60912920Y-56140674D02*
X60922443Y-56102579D01*
X60922443Y-56102579D02*
X60931967Y-56083531D01*
X60931967Y-56083531D02*
X60941491Y-56074008D01*
X60941491Y-56074008D02*
X60960539Y-56064484D01*
X61112920Y-56264484D02*
X61112920Y-56131150D01*
X61112920Y-56150198D02*
X61122443Y-56140674D01*
X61122443Y-56140674D02*
X61141491Y-56131150D01*
X61141491Y-56131150D02*
X61170063Y-56131150D01*
X61170063Y-56131150D02*
X61189110Y-56140674D01*
X61189110Y-56140674D02*
X61198634Y-56159722D01*
X61198634Y-56159722D02*
X61198634Y-56264484D01*
X61198634Y-56159722D02*
X61208158Y-56140674D01*
X61208158Y-56140674D02*
X61227205Y-56131150D01*
X61227205Y-56131150D02*
X61255777Y-56131150D01*
X61255777Y-56131150D02*
X61274824Y-56140674D01*
X61274824Y-56140674D02*
X61284348Y-56159722D01*
X61284348Y-56159722D02*
X61284348Y-56264484D01*
X61379586Y-56264484D02*
X61379586Y-56131150D01*
X61379586Y-56150198D02*
X61389110Y-56140674D01*
X61389110Y-56140674D02*
X61408158Y-56131150D01*
X61408158Y-56131150D02*
X61436729Y-56131150D01*
X61436729Y-56131150D02*
X61455777Y-56140674D01*
X61455777Y-56140674D02*
X61465301Y-56159722D01*
X61465301Y-56159722D02*
X61465301Y-56264484D01*
X61465301Y-56159722D02*
X61474824Y-56140674D01*
X61474824Y-56140674D02*
X61493872Y-56131150D01*
X61493872Y-56131150D02*
X61522443Y-56131150D01*
X61522443Y-56131150D02*
X61541491Y-56140674D01*
X61541491Y-56140674D02*
X61551015Y-56159722D01*
X61551015Y-56159722D02*
X61551015Y-56264484D01*
X61941491Y-56054960D02*
X61770063Y-56312103D01*
X62198634Y-56064484D02*
X62217682Y-56064484D01*
X62217682Y-56064484D02*
X62236729Y-56074008D01*
X62236729Y-56074008D02*
X62246253Y-56083531D01*
X62246253Y-56083531D02*
X62255777Y-56102579D01*
X62255777Y-56102579D02*
X62265301Y-56140674D01*
X62265301Y-56140674D02*
X62265301Y-56188293D01*
X62265301Y-56188293D02*
X62255777Y-56226388D01*
X62255777Y-56226388D02*
X62246253Y-56245436D01*
X62246253Y-56245436D02*
X62236729Y-56254960D01*
X62236729Y-56254960D02*
X62217682Y-56264484D01*
X62217682Y-56264484D02*
X62198634Y-56264484D01*
X62198634Y-56264484D02*
X62179586Y-56254960D01*
X62179586Y-56254960D02*
X62170063Y-56245436D01*
X62170063Y-56245436D02*
X62160539Y-56226388D01*
X62160539Y-56226388D02*
X62151015Y-56188293D01*
X62151015Y-56188293D02*
X62151015Y-56140674D01*
X62151015Y-56140674D02*
X62160539Y-56102579D01*
X62160539Y-56102579D02*
X62170063Y-56083531D01*
X62170063Y-56083531D02*
X62179586Y-56074008D01*
X62179586Y-56074008D02*
X62198634Y-56064484D01*
X62351015Y-56245436D02*
X62360539Y-56254960D01*
X62360539Y-56254960D02*
X62351015Y-56264484D01*
X62351015Y-56264484D02*
X62341491Y-56254960D01*
X62341491Y-56254960D02*
X62351015Y-56245436D01*
X62351015Y-56245436D02*
X62351015Y-56264484D01*
X62484348Y-56064484D02*
X62503396Y-56064484D01*
X62503396Y-56064484D02*
X62522444Y-56074008D01*
X62522444Y-56074008D02*
X62531967Y-56083531D01*
X62531967Y-56083531D02*
X62541491Y-56102579D01*
X62541491Y-56102579D02*
X62551015Y-56140674D01*
X62551015Y-56140674D02*
X62551015Y-56188293D01*
X62551015Y-56188293D02*
X62541491Y-56226388D01*
X62541491Y-56226388D02*
X62531967Y-56245436D01*
X62531967Y-56245436D02*
X62522444Y-56254960D01*
X62522444Y-56254960D02*
X62503396Y-56264484D01*
X62503396Y-56264484D02*
X62484348Y-56264484D01*
X62484348Y-56264484D02*
X62465301Y-56254960D01*
X62465301Y-56254960D02*
X62455777Y-56245436D01*
X62455777Y-56245436D02*
X62446253Y-56226388D01*
X62446253Y-56226388D02*
X62436729Y-56188293D01*
X62436729Y-56188293D02*
X62436729Y-56140674D01*
X62436729Y-56140674D02*
X62446253Y-56102579D01*
X62446253Y-56102579D02*
X62455777Y-56083531D01*
X62455777Y-56083531D02*
X62465301Y-56074008D01*
X62465301Y-56074008D02*
X62484348Y-56064484D01*
X62617682Y-56064484D02*
X62741491Y-56064484D01*
X62741491Y-56064484D02*
X62674825Y-56140674D01*
X62674825Y-56140674D02*
X62703396Y-56140674D01*
X62703396Y-56140674D02*
X62722444Y-56150198D01*
X62722444Y-56150198D02*
X62731967Y-56159722D01*
X62731967Y-56159722D02*
X62741491Y-56178769D01*
X62741491Y-56178769D02*
X62741491Y-56226388D01*
X62741491Y-56226388D02*
X62731967Y-56245436D01*
X62731967Y-56245436D02*
X62722444Y-56254960D01*
X62722444Y-56254960D02*
X62703396Y-56264484D01*
X62703396Y-56264484D02*
X62646253Y-56264484D01*
X62646253Y-56264484D02*
X62627206Y-56254960D01*
X62627206Y-56254960D02*
X62617682Y-56245436D01*
X62931967Y-56264484D02*
X62817682Y-56264484D01*
X62874825Y-56264484D02*
X62874825Y-56064484D01*
X62874825Y-56064484D02*
X62855777Y-56093055D01*
X62855777Y-56093055D02*
X62836729Y-56112103D01*
X62836729Y-56112103D02*
X62817682Y-56121627D01*
X63112920Y-56064484D02*
X63017682Y-56064484D01*
X63017682Y-56064484D02*
X63008158Y-56159722D01*
X63008158Y-56159722D02*
X63017682Y-56150198D01*
X63017682Y-56150198D02*
X63036729Y-56140674D01*
X63036729Y-56140674D02*
X63084348Y-56140674D01*
X63084348Y-56140674D02*
X63103396Y-56150198D01*
X63103396Y-56150198D02*
X63112920Y-56159722D01*
X63112920Y-56159722D02*
X63122444Y-56178769D01*
X63122444Y-56178769D02*
X63122444Y-56226388D01*
X63122444Y-56226388D02*
X63112920Y-56245436D01*
X63112920Y-56245436D02*
X63103396Y-56254960D01*
X63103396Y-56254960D02*
X63084348Y-56264484D01*
X63084348Y-56264484D02*
X63036729Y-56264484D01*
X63036729Y-56264484D02*
X63017682Y-56254960D01*
X63017682Y-56254960D02*
X63008158Y-56245436D01*
X63198634Y-56064484D02*
X63198634Y-56102579D01*
X63274825Y-56064484D02*
X63274825Y-56102579D01*
X63570063Y-56340674D02*
X63560539Y-56331150D01*
X63560539Y-56331150D02*
X63541491Y-56302579D01*
X63541491Y-56302579D02*
X63531968Y-56283531D01*
X63531968Y-56283531D02*
X63522444Y-56254960D01*
X63522444Y-56254960D02*
X63512920Y-56207341D01*
X63512920Y-56207341D02*
X63512920Y-56169246D01*
X63512920Y-56169246D02*
X63522444Y-56121627D01*
X63522444Y-56121627D02*
X63531968Y-56093055D01*
X63531968Y-56093055D02*
X63541491Y-56074008D01*
X63541491Y-56074008D02*
X63560539Y-56045436D01*
X63560539Y-56045436D02*
X63570063Y-56035912D01*
X63731968Y-56064484D02*
X63693872Y-56064484D01*
X63693872Y-56064484D02*
X63674825Y-56074008D01*
X63674825Y-56074008D02*
X63665301Y-56083531D01*
X63665301Y-56083531D02*
X63646253Y-56112103D01*
X63646253Y-56112103D02*
X63636729Y-56150198D01*
X63636729Y-56150198D02*
X63636729Y-56226388D01*
X63636729Y-56226388D02*
X63646253Y-56245436D01*
X63646253Y-56245436D02*
X63655777Y-56254960D01*
X63655777Y-56254960D02*
X63674825Y-56264484D01*
X63674825Y-56264484D02*
X63712920Y-56264484D01*
X63712920Y-56264484D02*
X63731968Y-56254960D01*
X63731968Y-56254960D02*
X63741491Y-56245436D01*
X63741491Y-56245436D02*
X63751015Y-56226388D01*
X63751015Y-56226388D02*
X63751015Y-56178769D01*
X63751015Y-56178769D02*
X63741491Y-56159722D01*
X63741491Y-56159722D02*
X63731968Y-56150198D01*
X63731968Y-56150198D02*
X63712920Y-56140674D01*
X63712920Y-56140674D02*
X63674825Y-56140674D01*
X63674825Y-56140674D02*
X63655777Y-56150198D01*
X63655777Y-56150198D02*
X63646253Y-56159722D01*
X63646253Y-56159722D02*
X63636729Y-56178769D01*
X63989110Y-56264484D02*
X63989110Y-56064484D01*
X64074825Y-56264484D02*
X64074825Y-56159722D01*
X64074825Y-56159722D02*
X64065301Y-56140674D01*
X64065301Y-56140674D02*
X64046253Y-56131150D01*
X64046253Y-56131150D02*
X64017682Y-56131150D01*
X64017682Y-56131150D02*
X63998634Y-56140674D01*
X63998634Y-56140674D02*
X63989110Y-56150198D01*
X64198634Y-56264484D02*
X64179587Y-56254960D01*
X64179587Y-56254960D02*
X64170063Y-56245436D01*
X64170063Y-56245436D02*
X64160539Y-56226388D01*
X64160539Y-56226388D02*
X64160539Y-56169246D01*
X64160539Y-56169246D02*
X64170063Y-56150198D01*
X64170063Y-56150198D02*
X64179587Y-56140674D01*
X64179587Y-56140674D02*
X64198634Y-56131150D01*
X64198634Y-56131150D02*
X64227206Y-56131150D01*
X64227206Y-56131150D02*
X64246253Y-56140674D01*
X64246253Y-56140674D02*
X64255777Y-56150198D01*
X64255777Y-56150198D02*
X64265301Y-56169246D01*
X64265301Y-56169246D02*
X64265301Y-56226388D01*
X64265301Y-56226388D02*
X64255777Y-56245436D01*
X64255777Y-56245436D02*
X64246253Y-56254960D01*
X64246253Y-56254960D02*
X64227206Y-56264484D01*
X64227206Y-56264484D02*
X64198634Y-56264484D01*
X64379587Y-56264484D02*
X64360539Y-56254960D01*
X64360539Y-56254960D02*
X64351015Y-56235912D01*
X64351015Y-56235912D02*
X64351015Y-56064484D01*
X64531968Y-56254960D02*
X64512920Y-56264484D01*
X64512920Y-56264484D02*
X64474825Y-56264484D01*
X64474825Y-56264484D02*
X64455777Y-56254960D01*
X64455777Y-56254960D02*
X64446253Y-56235912D01*
X64446253Y-56235912D02*
X64446253Y-56159722D01*
X64446253Y-56159722D02*
X64455777Y-56140674D01*
X64455777Y-56140674D02*
X64474825Y-56131150D01*
X64474825Y-56131150D02*
X64512920Y-56131150D01*
X64512920Y-56131150D02*
X64531968Y-56140674D01*
X64531968Y-56140674D02*
X64541491Y-56159722D01*
X64541491Y-56159722D02*
X64541491Y-56178769D01*
X64541491Y-56178769D02*
X64446253Y-56197817D01*
X64617682Y-56254960D02*
X64636730Y-56264484D01*
X64636730Y-56264484D02*
X64674825Y-56264484D01*
X64674825Y-56264484D02*
X64693872Y-56254960D01*
X64693872Y-56254960D02*
X64703396Y-56235912D01*
X64703396Y-56235912D02*
X64703396Y-56226388D01*
X64703396Y-56226388D02*
X64693872Y-56207341D01*
X64693872Y-56207341D02*
X64674825Y-56197817D01*
X64674825Y-56197817D02*
X64646253Y-56197817D01*
X64646253Y-56197817D02*
X64627206Y-56188293D01*
X64627206Y-56188293D02*
X64617682Y-56169246D01*
X64617682Y-56169246D02*
X64617682Y-56159722D01*
X64617682Y-56159722D02*
X64627206Y-56140674D01*
X64627206Y-56140674D02*
X64646253Y-56131150D01*
X64646253Y-56131150D02*
X64674825Y-56131150D01*
X64674825Y-56131150D02*
X64693872Y-56140674D01*
X64770063Y-56340674D02*
X64779587Y-56331150D01*
X64779587Y-56331150D02*
X64798634Y-56302579D01*
X64798634Y-56302579D02*
X64808158Y-56283531D01*
X64808158Y-56283531D02*
X64817682Y-56254960D01*
X64817682Y-56254960D02*
X64827206Y-56207341D01*
X64827206Y-56207341D02*
X64827206Y-56169246D01*
X64827206Y-56169246D02*
X64817682Y-56121627D01*
X64817682Y-56121627D02*
X64808158Y-56093055D01*
X64808158Y-56093055D02*
X64798634Y-56074008D01*
X64798634Y-56074008D02*
X64779587Y-56045436D01*
X64779587Y-56045436D02*
X64770063Y-56035912D01*
D15*
X59980356Y-56472356D02*
X59980356Y-56401644D01*
X59909644Y-56401644D01*
X59909644Y-56472356D01*
X59980356Y-56472356D01*
D11*
X60360539Y-56528484D02*
X60246253Y-56528484D01*
X60303396Y-56528484D02*
X60303396Y-56328484D01*
X60303396Y-56328484D02*
X60284348Y-56357055D01*
X60284348Y-56357055D02*
X60265301Y-56376103D01*
X60265301Y-56376103D02*
X60246253Y-56385627D01*
X60446253Y-56509436D02*
X60455777Y-56518960D01*
X60455777Y-56518960D02*
X60446253Y-56528484D01*
X60446253Y-56528484D02*
X60436729Y-56518960D01*
X60436729Y-56518960D02*
X60446253Y-56509436D01*
X60446253Y-56509436D02*
X60446253Y-56528484D01*
X60579586Y-56328484D02*
X60598634Y-56328484D01*
X60598634Y-56328484D02*
X60617682Y-56338008D01*
X60617682Y-56338008D02*
X60627205Y-56347531D01*
X60627205Y-56347531D02*
X60636729Y-56366579D01*
X60636729Y-56366579D02*
X60646253Y-56404674D01*
X60646253Y-56404674D02*
X60646253Y-56452293D01*
X60646253Y-56452293D02*
X60636729Y-56490388D01*
X60636729Y-56490388D02*
X60627205Y-56509436D01*
X60627205Y-56509436D02*
X60617682Y-56518960D01*
X60617682Y-56518960D02*
X60598634Y-56528484D01*
X60598634Y-56528484D02*
X60579586Y-56528484D01*
X60579586Y-56528484D02*
X60560539Y-56518960D01*
X60560539Y-56518960D02*
X60551015Y-56509436D01*
X60551015Y-56509436D02*
X60541491Y-56490388D01*
X60541491Y-56490388D02*
X60531967Y-56452293D01*
X60531967Y-56452293D02*
X60531967Y-56404674D01*
X60531967Y-56404674D02*
X60541491Y-56366579D01*
X60541491Y-56366579D02*
X60551015Y-56347531D01*
X60551015Y-56347531D02*
X60560539Y-56338008D01*
X60560539Y-56338008D02*
X60579586Y-56328484D01*
X60770062Y-56328484D02*
X60789110Y-56328484D01*
X60789110Y-56328484D02*
X60808158Y-56338008D01*
X60808158Y-56338008D02*
X60817682Y-56347531D01*
X60817682Y-56347531D02*
X60827205Y-56366579D01*
X60827205Y-56366579D02*
X60836729Y-56404674D01*
X60836729Y-56404674D02*
X60836729Y-56452293D01*
X60836729Y-56452293D02*
X60827205Y-56490388D01*
X60827205Y-56490388D02*
X60817682Y-56509436D01*
X60817682Y-56509436D02*
X60808158Y-56518960D01*
X60808158Y-56518960D02*
X60789110Y-56528484D01*
X60789110Y-56528484D02*
X60770062Y-56528484D01*
X60770062Y-56528484D02*
X60751015Y-56518960D01*
X60751015Y-56518960D02*
X60741491Y-56509436D01*
X60741491Y-56509436D02*
X60731967Y-56490388D01*
X60731967Y-56490388D02*
X60722443Y-56452293D01*
X60722443Y-56452293D02*
X60722443Y-56404674D01*
X60722443Y-56404674D02*
X60731967Y-56366579D01*
X60731967Y-56366579D02*
X60741491Y-56347531D01*
X60741491Y-56347531D02*
X60751015Y-56338008D01*
X60751015Y-56338008D02*
X60770062Y-56328484D01*
X60960539Y-56328484D02*
X60979586Y-56328484D01*
X60979586Y-56328484D02*
X60998634Y-56338008D01*
X60998634Y-56338008D02*
X61008158Y-56347531D01*
X61008158Y-56347531D02*
X61017682Y-56366579D01*
X61017682Y-56366579D02*
X61027205Y-56404674D01*
X61027205Y-56404674D02*
X61027205Y-56452293D01*
X61027205Y-56452293D02*
X61017682Y-56490388D01*
X61017682Y-56490388D02*
X61008158Y-56509436D01*
X61008158Y-56509436D02*
X60998634Y-56518960D01*
X60998634Y-56518960D02*
X60979586Y-56528484D01*
X60979586Y-56528484D02*
X60960539Y-56528484D01*
X60960539Y-56528484D02*
X60941491Y-56518960D01*
X60941491Y-56518960D02*
X60931967Y-56509436D01*
X60931967Y-56509436D02*
X60922443Y-56490388D01*
X60922443Y-56490388D02*
X60912920Y-56452293D01*
X60912920Y-56452293D02*
X60912920Y-56404674D01*
X60912920Y-56404674D02*
X60922443Y-56366579D01*
X60922443Y-56366579D02*
X60931967Y-56347531D01*
X60931967Y-56347531D02*
X60941491Y-56338008D01*
X60941491Y-56338008D02*
X60960539Y-56328484D01*
X61112920Y-56528484D02*
X61112920Y-56395150D01*
X61112920Y-56414198D02*
X61122443Y-56404674D01*
X61122443Y-56404674D02*
X61141491Y-56395150D01*
X61141491Y-56395150D02*
X61170063Y-56395150D01*
X61170063Y-56395150D02*
X61189110Y-56404674D01*
X61189110Y-56404674D02*
X61198634Y-56423722D01*
X61198634Y-56423722D02*
X61198634Y-56528484D01*
X61198634Y-56423722D02*
X61208158Y-56404674D01*
X61208158Y-56404674D02*
X61227205Y-56395150D01*
X61227205Y-56395150D02*
X61255777Y-56395150D01*
X61255777Y-56395150D02*
X61274824Y-56404674D01*
X61274824Y-56404674D02*
X61284348Y-56423722D01*
X61284348Y-56423722D02*
X61284348Y-56528484D01*
X61379586Y-56528484D02*
X61379586Y-56395150D01*
X61379586Y-56414198D02*
X61389110Y-56404674D01*
X61389110Y-56404674D02*
X61408158Y-56395150D01*
X61408158Y-56395150D02*
X61436729Y-56395150D01*
X61436729Y-56395150D02*
X61455777Y-56404674D01*
X61455777Y-56404674D02*
X61465301Y-56423722D01*
X61465301Y-56423722D02*
X61465301Y-56528484D01*
X61465301Y-56423722D02*
X61474824Y-56404674D01*
X61474824Y-56404674D02*
X61493872Y-56395150D01*
X61493872Y-56395150D02*
X61522443Y-56395150D01*
X61522443Y-56395150D02*
X61541491Y-56404674D01*
X61541491Y-56404674D02*
X61551015Y-56423722D01*
X61551015Y-56423722D02*
X61551015Y-56528484D01*
X61941491Y-56318960D02*
X61770063Y-56576103D01*
X62198634Y-56328484D02*
X62217682Y-56328484D01*
X62217682Y-56328484D02*
X62236729Y-56338008D01*
X62236729Y-56338008D02*
X62246253Y-56347531D01*
X62246253Y-56347531D02*
X62255777Y-56366579D01*
X62255777Y-56366579D02*
X62265301Y-56404674D01*
X62265301Y-56404674D02*
X62265301Y-56452293D01*
X62265301Y-56452293D02*
X62255777Y-56490388D01*
X62255777Y-56490388D02*
X62246253Y-56509436D01*
X62246253Y-56509436D02*
X62236729Y-56518960D01*
X62236729Y-56518960D02*
X62217682Y-56528484D01*
X62217682Y-56528484D02*
X62198634Y-56528484D01*
X62198634Y-56528484D02*
X62179586Y-56518960D01*
X62179586Y-56518960D02*
X62170063Y-56509436D01*
X62170063Y-56509436D02*
X62160539Y-56490388D01*
X62160539Y-56490388D02*
X62151015Y-56452293D01*
X62151015Y-56452293D02*
X62151015Y-56404674D01*
X62151015Y-56404674D02*
X62160539Y-56366579D01*
X62160539Y-56366579D02*
X62170063Y-56347531D01*
X62170063Y-56347531D02*
X62179586Y-56338008D01*
X62179586Y-56338008D02*
X62198634Y-56328484D01*
X62351015Y-56509436D02*
X62360539Y-56518960D01*
X62360539Y-56518960D02*
X62351015Y-56528484D01*
X62351015Y-56528484D02*
X62341491Y-56518960D01*
X62341491Y-56518960D02*
X62351015Y-56509436D01*
X62351015Y-56509436D02*
X62351015Y-56528484D01*
X62484348Y-56328484D02*
X62503396Y-56328484D01*
X62503396Y-56328484D02*
X62522444Y-56338008D01*
X62522444Y-56338008D02*
X62531967Y-56347531D01*
X62531967Y-56347531D02*
X62541491Y-56366579D01*
X62541491Y-56366579D02*
X62551015Y-56404674D01*
X62551015Y-56404674D02*
X62551015Y-56452293D01*
X62551015Y-56452293D02*
X62541491Y-56490388D01*
X62541491Y-56490388D02*
X62531967Y-56509436D01*
X62531967Y-56509436D02*
X62522444Y-56518960D01*
X62522444Y-56518960D02*
X62503396Y-56528484D01*
X62503396Y-56528484D02*
X62484348Y-56528484D01*
X62484348Y-56528484D02*
X62465301Y-56518960D01*
X62465301Y-56518960D02*
X62455777Y-56509436D01*
X62455777Y-56509436D02*
X62446253Y-56490388D01*
X62446253Y-56490388D02*
X62436729Y-56452293D01*
X62436729Y-56452293D02*
X62436729Y-56404674D01*
X62436729Y-56404674D02*
X62446253Y-56366579D01*
X62446253Y-56366579D02*
X62455777Y-56347531D01*
X62455777Y-56347531D02*
X62465301Y-56338008D01*
X62465301Y-56338008D02*
X62484348Y-56328484D01*
X62617682Y-56328484D02*
X62741491Y-56328484D01*
X62741491Y-56328484D02*
X62674825Y-56404674D01*
X62674825Y-56404674D02*
X62703396Y-56404674D01*
X62703396Y-56404674D02*
X62722444Y-56414198D01*
X62722444Y-56414198D02*
X62731967Y-56423722D01*
X62731967Y-56423722D02*
X62741491Y-56442769D01*
X62741491Y-56442769D02*
X62741491Y-56490388D01*
X62741491Y-56490388D02*
X62731967Y-56509436D01*
X62731967Y-56509436D02*
X62722444Y-56518960D01*
X62722444Y-56518960D02*
X62703396Y-56528484D01*
X62703396Y-56528484D02*
X62646253Y-56528484D01*
X62646253Y-56528484D02*
X62627206Y-56518960D01*
X62627206Y-56518960D02*
X62617682Y-56509436D01*
X62836729Y-56528484D02*
X62874825Y-56528484D01*
X62874825Y-56528484D02*
X62893872Y-56518960D01*
X62893872Y-56518960D02*
X62903396Y-56509436D01*
X62903396Y-56509436D02*
X62922444Y-56480865D01*
X62922444Y-56480865D02*
X62931967Y-56442769D01*
X62931967Y-56442769D02*
X62931967Y-56366579D01*
X62931967Y-56366579D02*
X62922444Y-56347531D01*
X62922444Y-56347531D02*
X62912920Y-56338008D01*
X62912920Y-56338008D02*
X62893872Y-56328484D01*
X62893872Y-56328484D02*
X62855777Y-56328484D01*
X62855777Y-56328484D02*
X62836729Y-56338008D01*
X62836729Y-56338008D02*
X62827206Y-56347531D01*
X62827206Y-56347531D02*
X62817682Y-56366579D01*
X62817682Y-56366579D02*
X62817682Y-56414198D01*
X62817682Y-56414198D02*
X62827206Y-56433246D01*
X62827206Y-56433246D02*
X62836729Y-56442769D01*
X62836729Y-56442769D02*
X62855777Y-56452293D01*
X62855777Y-56452293D02*
X62893872Y-56452293D01*
X62893872Y-56452293D02*
X62912920Y-56442769D01*
X62912920Y-56442769D02*
X62922444Y-56433246D01*
X62922444Y-56433246D02*
X62931967Y-56414198D01*
X63103396Y-56395150D02*
X63103396Y-56528484D01*
X63055777Y-56318960D02*
X63008158Y-56461817D01*
X63008158Y-56461817D02*
X63131967Y-56461817D01*
X63198634Y-56328484D02*
X63198634Y-56366579D01*
X63274825Y-56328484D02*
X63274825Y-56366579D01*
X63570063Y-56604674D02*
X63560539Y-56595150D01*
X63560539Y-56595150D02*
X63541491Y-56566579D01*
X63541491Y-56566579D02*
X63531968Y-56547531D01*
X63531968Y-56547531D02*
X63522444Y-56518960D01*
X63522444Y-56518960D02*
X63512920Y-56471341D01*
X63512920Y-56471341D02*
X63512920Y-56433246D01*
X63512920Y-56433246D02*
X63522444Y-56385627D01*
X63522444Y-56385627D02*
X63531968Y-56357055D01*
X63531968Y-56357055D02*
X63541491Y-56338008D01*
X63541491Y-56338008D02*
X63560539Y-56309436D01*
X63560539Y-56309436D02*
X63570063Y-56299912D01*
X63731968Y-56328484D02*
X63693872Y-56328484D01*
X63693872Y-56328484D02*
X63674825Y-56338008D01*
X63674825Y-56338008D02*
X63665301Y-56347531D01*
X63665301Y-56347531D02*
X63646253Y-56376103D01*
X63646253Y-56376103D02*
X63636729Y-56414198D01*
X63636729Y-56414198D02*
X63636729Y-56490388D01*
X63636729Y-56490388D02*
X63646253Y-56509436D01*
X63646253Y-56509436D02*
X63655777Y-56518960D01*
X63655777Y-56518960D02*
X63674825Y-56528484D01*
X63674825Y-56528484D02*
X63712920Y-56528484D01*
X63712920Y-56528484D02*
X63731968Y-56518960D01*
X63731968Y-56518960D02*
X63741491Y-56509436D01*
X63741491Y-56509436D02*
X63751015Y-56490388D01*
X63751015Y-56490388D02*
X63751015Y-56442769D01*
X63751015Y-56442769D02*
X63741491Y-56423722D01*
X63741491Y-56423722D02*
X63731968Y-56414198D01*
X63731968Y-56414198D02*
X63712920Y-56404674D01*
X63712920Y-56404674D02*
X63674825Y-56404674D01*
X63674825Y-56404674D02*
X63655777Y-56414198D01*
X63655777Y-56414198D02*
X63646253Y-56423722D01*
X63646253Y-56423722D02*
X63636729Y-56442769D01*
X63989110Y-56528484D02*
X63989110Y-56328484D01*
X64074825Y-56528484D02*
X64074825Y-56423722D01*
X64074825Y-56423722D02*
X64065301Y-56404674D01*
X64065301Y-56404674D02*
X64046253Y-56395150D01*
X64046253Y-56395150D02*
X64017682Y-56395150D01*
X64017682Y-56395150D02*
X63998634Y-56404674D01*
X63998634Y-56404674D02*
X63989110Y-56414198D01*
X64198634Y-56528484D02*
X64179587Y-56518960D01*
X64179587Y-56518960D02*
X64170063Y-56509436D01*
X64170063Y-56509436D02*
X64160539Y-56490388D01*
X64160539Y-56490388D02*
X64160539Y-56433246D01*
X64160539Y-56433246D02*
X64170063Y-56414198D01*
X64170063Y-56414198D02*
X64179587Y-56404674D01*
X64179587Y-56404674D02*
X64198634Y-56395150D01*
X64198634Y-56395150D02*
X64227206Y-56395150D01*
X64227206Y-56395150D02*
X64246253Y-56404674D01*
X64246253Y-56404674D02*
X64255777Y-56414198D01*
X64255777Y-56414198D02*
X64265301Y-56433246D01*
X64265301Y-56433246D02*
X64265301Y-56490388D01*
X64265301Y-56490388D02*
X64255777Y-56509436D01*
X64255777Y-56509436D02*
X64246253Y-56518960D01*
X64246253Y-56518960D02*
X64227206Y-56528484D01*
X64227206Y-56528484D02*
X64198634Y-56528484D01*
X64379587Y-56528484D02*
X64360539Y-56518960D01*
X64360539Y-56518960D02*
X64351015Y-56499912D01*
X64351015Y-56499912D02*
X64351015Y-56328484D01*
X64531968Y-56518960D02*
X64512920Y-56528484D01*
X64512920Y-56528484D02*
X64474825Y-56528484D01*
X64474825Y-56528484D02*
X64455777Y-56518960D01*
X64455777Y-56518960D02*
X64446253Y-56499912D01*
X64446253Y-56499912D02*
X64446253Y-56423722D01*
X64446253Y-56423722D02*
X64455777Y-56404674D01*
X64455777Y-56404674D02*
X64474825Y-56395150D01*
X64474825Y-56395150D02*
X64512920Y-56395150D01*
X64512920Y-56395150D02*
X64531968Y-56404674D01*
X64531968Y-56404674D02*
X64541491Y-56423722D01*
X64541491Y-56423722D02*
X64541491Y-56442769D01*
X64541491Y-56442769D02*
X64446253Y-56461817D01*
X64617682Y-56518960D02*
X64636730Y-56528484D01*
X64636730Y-56528484D02*
X64674825Y-56528484D01*
X64674825Y-56528484D02*
X64693872Y-56518960D01*
X64693872Y-56518960D02*
X64703396Y-56499912D01*
X64703396Y-56499912D02*
X64703396Y-56490388D01*
X64703396Y-56490388D02*
X64693872Y-56471341D01*
X64693872Y-56471341D02*
X64674825Y-56461817D01*
X64674825Y-56461817D02*
X64646253Y-56461817D01*
X64646253Y-56461817D02*
X64627206Y-56452293D01*
X64627206Y-56452293D02*
X64617682Y-56433246D01*
X64617682Y-56433246D02*
X64617682Y-56423722D01*
X64617682Y-56423722D02*
X64627206Y-56404674D01*
X64627206Y-56404674D02*
X64646253Y-56395150D01*
X64646253Y-56395150D02*
X64674825Y-56395150D01*
X64674825Y-56395150D02*
X64693872Y-56404674D01*
X64770063Y-56604674D02*
X64779587Y-56595150D01*
X64779587Y-56595150D02*
X64798634Y-56566579D01*
X64798634Y-56566579D02*
X64808158Y-56547531D01*
X64808158Y-56547531D02*
X64817682Y-56518960D01*
X64817682Y-56518960D02*
X64827206Y-56471341D01*
X64827206Y-56471341D02*
X64827206Y-56433246D01*
X64827206Y-56433246D02*
X64817682Y-56385627D01*
X64817682Y-56385627D02*
X64808158Y-56357055D01*
X64808158Y-56357055D02*
X64798634Y-56338008D01*
X64798634Y-56338008D02*
X64779587Y-56309436D01*
X64779587Y-56309436D02*
X64770063Y-56299912D01*
D10*
X59945000Y-56751000D02*
X59995000Y-56701000D01*
X59945000Y-56651000D01*
X59895000Y-56701000D01*
X59945000Y-56751000D01*
D11*
X60360539Y-56792484D02*
X60246253Y-56792484D01*
X60303396Y-56792484D02*
X60303396Y-56592484D01*
X60303396Y-56592484D02*
X60284348Y-56621055D01*
X60284348Y-56621055D02*
X60265301Y-56640103D01*
X60265301Y-56640103D02*
X60246253Y-56649627D01*
X60446253Y-56773436D02*
X60455777Y-56782960D01*
X60455777Y-56782960D02*
X60446253Y-56792484D01*
X60446253Y-56792484D02*
X60436729Y-56782960D01*
X60436729Y-56782960D02*
X60446253Y-56773436D01*
X60446253Y-56773436D02*
X60446253Y-56792484D01*
X60579586Y-56592484D02*
X60598634Y-56592484D01*
X60598634Y-56592484D02*
X60617682Y-56602008D01*
X60617682Y-56602008D02*
X60627205Y-56611531D01*
X60627205Y-56611531D02*
X60636729Y-56630579D01*
X60636729Y-56630579D02*
X60646253Y-56668674D01*
X60646253Y-56668674D02*
X60646253Y-56716293D01*
X60646253Y-56716293D02*
X60636729Y-56754388D01*
X60636729Y-56754388D02*
X60627205Y-56773436D01*
X60627205Y-56773436D02*
X60617682Y-56782960D01*
X60617682Y-56782960D02*
X60598634Y-56792484D01*
X60598634Y-56792484D02*
X60579586Y-56792484D01*
X60579586Y-56792484D02*
X60560539Y-56782960D01*
X60560539Y-56782960D02*
X60551015Y-56773436D01*
X60551015Y-56773436D02*
X60541491Y-56754388D01*
X60541491Y-56754388D02*
X60531967Y-56716293D01*
X60531967Y-56716293D02*
X60531967Y-56668674D01*
X60531967Y-56668674D02*
X60541491Y-56630579D01*
X60541491Y-56630579D02*
X60551015Y-56611531D01*
X60551015Y-56611531D02*
X60560539Y-56602008D01*
X60560539Y-56602008D02*
X60579586Y-56592484D01*
X60770062Y-56592484D02*
X60789110Y-56592484D01*
X60789110Y-56592484D02*
X60808158Y-56602008D01*
X60808158Y-56602008D02*
X60817682Y-56611531D01*
X60817682Y-56611531D02*
X60827205Y-56630579D01*
X60827205Y-56630579D02*
X60836729Y-56668674D01*
X60836729Y-56668674D02*
X60836729Y-56716293D01*
X60836729Y-56716293D02*
X60827205Y-56754388D01*
X60827205Y-56754388D02*
X60817682Y-56773436D01*
X60817682Y-56773436D02*
X60808158Y-56782960D01*
X60808158Y-56782960D02*
X60789110Y-56792484D01*
X60789110Y-56792484D02*
X60770062Y-56792484D01*
X60770062Y-56792484D02*
X60751015Y-56782960D01*
X60751015Y-56782960D02*
X60741491Y-56773436D01*
X60741491Y-56773436D02*
X60731967Y-56754388D01*
X60731967Y-56754388D02*
X60722443Y-56716293D01*
X60722443Y-56716293D02*
X60722443Y-56668674D01*
X60722443Y-56668674D02*
X60731967Y-56630579D01*
X60731967Y-56630579D02*
X60741491Y-56611531D01*
X60741491Y-56611531D02*
X60751015Y-56602008D01*
X60751015Y-56602008D02*
X60770062Y-56592484D01*
X60960539Y-56592484D02*
X60979586Y-56592484D01*
X60979586Y-56592484D02*
X60998634Y-56602008D01*
X60998634Y-56602008D02*
X61008158Y-56611531D01*
X61008158Y-56611531D02*
X61017682Y-56630579D01*
X61017682Y-56630579D02*
X61027205Y-56668674D01*
X61027205Y-56668674D02*
X61027205Y-56716293D01*
X61027205Y-56716293D02*
X61017682Y-56754388D01*
X61017682Y-56754388D02*
X61008158Y-56773436D01*
X61008158Y-56773436D02*
X60998634Y-56782960D01*
X60998634Y-56782960D02*
X60979586Y-56792484D01*
X60979586Y-56792484D02*
X60960539Y-56792484D01*
X60960539Y-56792484D02*
X60941491Y-56782960D01*
X60941491Y-56782960D02*
X60931967Y-56773436D01*
X60931967Y-56773436D02*
X60922443Y-56754388D01*
X60922443Y-56754388D02*
X60912920Y-56716293D01*
X60912920Y-56716293D02*
X60912920Y-56668674D01*
X60912920Y-56668674D02*
X60922443Y-56630579D01*
X60922443Y-56630579D02*
X60931967Y-56611531D01*
X60931967Y-56611531D02*
X60941491Y-56602008D01*
X60941491Y-56602008D02*
X60960539Y-56592484D01*
X61112920Y-56792484D02*
X61112920Y-56659150D01*
X61112920Y-56678198D02*
X61122443Y-56668674D01*
X61122443Y-56668674D02*
X61141491Y-56659150D01*
X61141491Y-56659150D02*
X61170063Y-56659150D01*
X61170063Y-56659150D02*
X61189110Y-56668674D01*
X61189110Y-56668674D02*
X61198634Y-56687722D01*
X61198634Y-56687722D02*
X61198634Y-56792484D01*
X61198634Y-56687722D02*
X61208158Y-56668674D01*
X61208158Y-56668674D02*
X61227205Y-56659150D01*
X61227205Y-56659150D02*
X61255777Y-56659150D01*
X61255777Y-56659150D02*
X61274824Y-56668674D01*
X61274824Y-56668674D02*
X61284348Y-56687722D01*
X61284348Y-56687722D02*
X61284348Y-56792484D01*
X61379586Y-56792484D02*
X61379586Y-56659150D01*
X61379586Y-56678198D02*
X61389110Y-56668674D01*
X61389110Y-56668674D02*
X61408158Y-56659150D01*
X61408158Y-56659150D02*
X61436729Y-56659150D01*
X61436729Y-56659150D02*
X61455777Y-56668674D01*
X61455777Y-56668674D02*
X61465301Y-56687722D01*
X61465301Y-56687722D02*
X61465301Y-56792484D01*
X61465301Y-56687722D02*
X61474824Y-56668674D01*
X61474824Y-56668674D02*
X61493872Y-56659150D01*
X61493872Y-56659150D02*
X61522443Y-56659150D01*
X61522443Y-56659150D02*
X61541491Y-56668674D01*
X61541491Y-56668674D02*
X61551015Y-56687722D01*
X61551015Y-56687722D02*
X61551015Y-56792484D01*
X61941491Y-56582960D02*
X61770063Y-56840103D01*
X62198634Y-56592484D02*
X62217682Y-56592484D01*
X62217682Y-56592484D02*
X62236729Y-56602008D01*
X62236729Y-56602008D02*
X62246253Y-56611531D01*
X62246253Y-56611531D02*
X62255777Y-56630579D01*
X62255777Y-56630579D02*
X62265301Y-56668674D01*
X62265301Y-56668674D02*
X62265301Y-56716293D01*
X62265301Y-56716293D02*
X62255777Y-56754388D01*
X62255777Y-56754388D02*
X62246253Y-56773436D01*
X62246253Y-56773436D02*
X62236729Y-56782960D01*
X62236729Y-56782960D02*
X62217682Y-56792484D01*
X62217682Y-56792484D02*
X62198634Y-56792484D01*
X62198634Y-56792484D02*
X62179586Y-56782960D01*
X62179586Y-56782960D02*
X62170063Y-56773436D01*
X62170063Y-56773436D02*
X62160539Y-56754388D01*
X62160539Y-56754388D02*
X62151015Y-56716293D01*
X62151015Y-56716293D02*
X62151015Y-56668674D01*
X62151015Y-56668674D02*
X62160539Y-56630579D01*
X62160539Y-56630579D02*
X62170063Y-56611531D01*
X62170063Y-56611531D02*
X62179586Y-56602008D01*
X62179586Y-56602008D02*
X62198634Y-56592484D01*
X62351015Y-56773436D02*
X62360539Y-56782960D01*
X62360539Y-56782960D02*
X62351015Y-56792484D01*
X62351015Y-56792484D02*
X62341491Y-56782960D01*
X62341491Y-56782960D02*
X62351015Y-56773436D01*
X62351015Y-56773436D02*
X62351015Y-56792484D01*
X62484348Y-56592484D02*
X62503396Y-56592484D01*
X62503396Y-56592484D02*
X62522444Y-56602008D01*
X62522444Y-56602008D02*
X62531967Y-56611531D01*
X62531967Y-56611531D02*
X62541491Y-56630579D01*
X62541491Y-56630579D02*
X62551015Y-56668674D01*
X62551015Y-56668674D02*
X62551015Y-56716293D01*
X62551015Y-56716293D02*
X62541491Y-56754388D01*
X62541491Y-56754388D02*
X62531967Y-56773436D01*
X62531967Y-56773436D02*
X62522444Y-56782960D01*
X62522444Y-56782960D02*
X62503396Y-56792484D01*
X62503396Y-56792484D02*
X62484348Y-56792484D01*
X62484348Y-56792484D02*
X62465301Y-56782960D01*
X62465301Y-56782960D02*
X62455777Y-56773436D01*
X62455777Y-56773436D02*
X62446253Y-56754388D01*
X62446253Y-56754388D02*
X62436729Y-56716293D01*
X62436729Y-56716293D02*
X62436729Y-56668674D01*
X62436729Y-56668674D02*
X62446253Y-56630579D01*
X62446253Y-56630579D02*
X62455777Y-56611531D01*
X62455777Y-56611531D02*
X62465301Y-56602008D01*
X62465301Y-56602008D02*
X62484348Y-56592484D01*
X62617682Y-56592484D02*
X62741491Y-56592484D01*
X62741491Y-56592484D02*
X62674825Y-56668674D01*
X62674825Y-56668674D02*
X62703396Y-56668674D01*
X62703396Y-56668674D02*
X62722444Y-56678198D01*
X62722444Y-56678198D02*
X62731967Y-56687722D01*
X62731967Y-56687722D02*
X62741491Y-56706769D01*
X62741491Y-56706769D02*
X62741491Y-56754388D01*
X62741491Y-56754388D02*
X62731967Y-56773436D01*
X62731967Y-56773436D02*
X62722444Y-56782960D01*
X62722444Y-56782960D02*
X62703396Y-56792484D01*
X62703396Y-56792484D02*
X62646253Y-56792484D01*
X62646253Y-56792484D02*
X62627206Y-56782960D01*
X62627206Y-56782960D02*
X62617682Y-56773436D01*
X62836729Y-56792484D02*
X62874825Y-56792484D01*
X62874825Y-56792484D02*
X62893872Y-56782960D01*
X62893872Y-56782960D02*
X62903396Y-56773436D01*
X62903396Y-56773436D02*
X62922444Y-56744865D01*
X62922444Y-56744865D02*
X62931967Y-56706769D01*
X62931967Y-56706769D02*
X62931967Y-56630579D01*
X62931967Y-56630579D02*
X62922444Y-56611531D01*
X62922444Y-56611531D02*
X62912920Y-56602008D01*
X62912920Y-56602008D02*
X62893872Y-56592484D01*
X62893872Y-56592484D02*
X62855777Y-56592484D01*
X62855777Y-56592484D02*
X62836729Y-56602008D01*
X62836729Y-56602008D02*
X62827206Y-56611531D01*
X62827206Y-56611531D02*
X62817682Y-56630579D01*
X62817682Y-56630579D02*
X62817682Y-56678198D01*
X62817682Y-56678198D02*
X62827206Y-56697246D01*
X62827206Y-56697246D02*
X62836729Y-56706769D01*
X62836729Y-56706769D02*
X62855777Y-56716293D01*
X62855777Y-56716293D02*
X62893872Y-56716293D01*
X62893872Y-56716293D02*
X62912920Y-56706769D01*
X62912920Y-56706769D02*
X62922444Y-56697246D01*
X62922444Y-56697246D02*
X62931967Y-56678198D01*
X63103396Y-56659150D02*
X63103396Y-56792484D01*
X63055777Y-56582960D02*
X63008158Y-56725817D01*
X63008158Y-56725817D02*
X63131967Y-56725817D01*
X63198634Y-56592484D02*
X63198634Y-56630579D01*
X63274825Y-56592484D02*
X63274825Y-56630579D01*
X63570063Y-56868674D02*
X63560539Y-56859150D01*
X63560539Y-56859150D02*
X63541491Y-56830579D01*
X63541491Y-56830579D02*
X63531968Y-56811531D01*
X63531968Y-56811531D02*
X63522444Y-56782960D01*
X63522444Y-56782960D02*
X63512920Y-56735341D01*
X63512920Y-56735341D02*
X63512920Y-56697246D01*
X63512920Y-56697246D02*
X63522444Y-56649627D01*
X63522444Y-56649627D02*
X63531968Y-56621055D01*
X63531968Y-56621055D02*
X63541491Y-56602008D01*
X63541491Y-56602008D02*
X63560539Y-56573436D01*
X63560539Y-56573436D02*
X63570063Y-56563912D01*
X63627206Y-56592484D02*
X63751015Y-56592484D01*
X63751015Y-56592484D02*
X63684348Y-56668674D01*
X63684348Y-56668674D02*
X63712920Y-56668674D01*
X63712920Y-56668674D02*
X63731968Y-56678198D01*
X63731968Y-56678198D02*
X63741491Y-56687722D01*
X63741491Y-56687722D02*
X63751015Y-56706769D01*
X63751015Y-56706769D02*
X63751015Y-56754388D01*
X63751015Y-56754388D02*
X63741491Y-56773436D01*
X63741491Y-56773436D02*
X63731968Y-56782960D01*
X63731968Y-56782960D02*
X63712920Y-56792484D01*
X63712920Y-56792484D02*
X63655777Y-56792484D01*
X63655777Y-56792484D02*
X63636729Y-56782960D01*
X63636729Y-56782960D02*
X63627206Y-56773436D01*
X63922444Y-56592484D02*
X63884348Y-56592484D01*
X63884348Y-56592484D02*
X63865301Y-56602008D01*
X63865301Y-56602008D02*
X63855777Y-56611531D01*
X63855777Y-56611531D02*
X63836729Y-56640103D01*
X63836729Y-56640103D02*
X63827206Y-56678198D01*
X63827206Y-56678198D02*
X63827206Y-56754388D01*
X63827206Y-56754388D02*
X63836729Y-56773436D01*
X63836729Y-56773436D02*
X63846253Y-56782960D01*
X63846253Y-56782960D02*
X63865301Y-56792484D01*
X63865301Y-56792484D02*
X63903396Y-56792484D01*
X63903396Y-56792484D02*
X63922444Y-56782960D01*
X63922444Y-56782960D02*
X63931968Y-56773436D01*
X63931968Y-56773436D02*
X63941491Y-56754388D01*
X63941491Y-56754388D02*
X63941491Y-56706769D01*
X63941491Y-56706769D02*
X63931968Y-56687722D01*
X63931968Y-56687722D02*
X63922444Y-56678198D01*
X63922444Y-56678198D02*
X63903396Y-56668674D01*
X63903396Y-56668674D02*
X63865301Y-56668674D01*
X63865301Y-56668674D02*
X63846253Y-56678198D01*
X63846253Y-56678198D02*
X63836729Y-56687722D01*
X63836729Y-56687722D02*
X63827206Y-56706769D01*
X64179587Y-56792484D02*
X64179587Y-56592484D01*
X64265301Y-56792484D02*
X64265301Y-56687722D01*
X64265301Y-56687722D02*
X64255777Y-56668674D01*
X64255777Y-56668674D02*
X64236730Y-56659150D01*
X64236730Y-56659150D02*
X64208158Y-56659150D01*
X64208158Y-56659150D02*
X64189110Y-56668674D01*
X64189110Y-56668674D02*
X64179587Y-56678198D01*
X64389110Y-56792484D02*
X64370063Y-56782960D01*
X64370063Y-56782960D02*
X64360539Y-56773436D01*
X64360539Y-56773436D02*
X64351015Y-56754388D01*
X64351015Y-56754388D02*
X64351015Y-56697246D01*
X64351015Y-56697246D02*
X64360539Y-56678198D01*
X64360539Y-56678198D02*
X64370063Y-56668674D01*
X64370063Y-56668674D02*
X64389110Y-56659150D01*
X64389110Y-56659150D02*
X64417682Y-56659150D01*
X64417682Y-56659150D02*
X64436730Y-56668674D01*
X64436730Y-56668674D02*
X64446253Y-56678198D01*
X64446253Y-56678198D02*
X64455777Y-56697246D01*
X64455777Y-56697246D02*
X64455777Y-56754388D01*
X64455777Y-56754388D02*
X64446253Y-56773436D01*
X64446253Y-56773436D02*
X64436730Y-56782960D01*
X64436730Y-56782960D02*
X64417682Y-56792484D01*
X64417682Y-56792484D02*
X64389110Y-56792484D01*
X64570063Y-56792484D02*
X64551015Y-56782960D01*
X64551015Y-56782960D02*
X64541491Y-56763912D01*
X64541491Y-56763912D02*
X64541491Y-56592484D01*
X64722444Y-56782960D02*
X64703396Y-56792484D01*
X64703396Y-56792484D02*
X64665301Y-56792484D01*
X64665301Y-56792484D02*
X64646253Y-56782960D01*
X64646253Y-56782960D02*
X64636730Y-56763912D01*
X64636730Y-56763912D02*
X64636730Y-56687722D01*
X64636730Y-56687722D02*
X64646253Y-56668674D01*
X64646253Y-56668674D02*
X64665301Y-56659150D01*
X64665301Y-56659150D02*
X64703396Y-56659150D01*
X64703396Y-56659150D02*
X64722444Y-56668674D01*
X64722444Y-56668674D02*
X64731968Y-56687722D01*
X64731968Y-56687722D02*
X64731968Y-56706769D01*
X64731968Y-56706769D02*
X64636730Y-56725817D01*
X64808158Y-56782960D02*
X64827206Y-56792484D01*
X64827206Y-56792484D02*
X64865301Y-56792484D01*
X64865301Y-56792484D02*
X64884349Y-56782960D01*
X64884349Y-56782960D02*
X64893872Y-56763912D01*
X64893872Y-56763912D02*
X64893872Y-56754388D01*
X64893872Y-56754388D02*
X64884349Y-56735341D01*
X64884349Y-56735341D02*
X64865301Y-56725817D01*
X64865301Y-56725817D02*
X64836730Y-56725817D01*
X64836730Y-56725817D02*
X64817682Y-56716293D01*
X64817682Y-56716293D02*
X64808158Y-56697246D01*
X64808158Y-56697246D02*
X64808158Y-56687722D01*
X64808158Y-56687722D02*
X64817682Y-56668674D01*
X64817682Y-56668674D02*
X64836730Y-56659150D01*
X64836730Y-56659150D02*
X64865301Y-56659150D01*
X64865301Y-56659150D02*
X64884349Y-56668674D01*
X64960539Y-56868674D02*
X64970063Y-56859150D01*
X64970063Y-56859150D02*
X64989111Y-56830579D01*
X64989111Y-56830579D02*
X64998634Y-56811531D01*
X64998634Y-56811531D02*
X65008158Y-56782960D01*
X65008158Y-56782960D02*
X65017682Y-56735341D01*
X65017682Y-56735341D02*
X65017682Y-56697246D01*
X65017682Y-56697246D02*
X65008158Y-56649627D01*
X65008158Y-56649627D02*
X64998634Y-56621055D01*
X64998634Y-56621055D02*
X64989111Y-56602008D01*
X64989111Y-56602008D02*
X64970063Y-56573436D01*
X64970063Y-56573436D02*
X64960539Y-56563912D01*
D16*
X59875000Y-56905000D02*
X59995000Y-57025000D01*
X59995000Y-56905000D02*
X59875000Y-57025000D01*
X59995000Y-56965000D02*
G75*
G03*
X59995000Y-56965000I-60000J0D01*
G01*
D11*
X60360539Y-57056484D02*
X60246253Y-57056484D01*
X60303396Y-57056484D02*
X60303396Y-56856484D01*
X60303396Y-56856484D02*
X60284348Y-56885055D01*
X60284348Y-56885055D02*
X60265301Y-56904103D01*
X60265301Y-56904103D02*
X60246253Y-56913627D01*
X60446253Y-57037436D02*
X60455777Y-57046960D01*
X60455777Y-57046960D02*
X60446253Y-57056484D01*
X60446253Y-57056484D02*
X60436729Y-57046960D01*
X60436729Y-57046960D02*
X60446253Y-57037436D01*
X60446253Y-57037436D02*
X60446253Y-57056484D01*
X60531967Y-56875531D02*
X60541491Y-56866008D01*
X60541491Y-56866008D02*
X60560539Y-56856484D01*
X60560539Y-56856484D02*
X60608158Y-56856484D01*
X60608158Y-56856484D02*
X60627205Y-56866008D01*
X60627205Y-56866008D02*
X60636729Y-56875531D01*
X60636729Y-56875531D02*
X60646253Y-56894579D01*
X60646253Y-56894579D02*
X60646253Y-56913627D01*
X60646253Y-56913627D02*
X60636729Y-56942198D01*
X60636729Y-56942198D02*
X60522443Y-57056484D01*
X60522443Y-57056484D02*
X60646253Y-57056484D01*
X60770062Y-56856484D02*
X60789110Y-56856484D01*
X60789110Y-56856484D02*
X60808158Y-56866008D01*
X60808158Y-56866008D02*
X60817682Y-56875531D01*
X60817682Y-56875531D02*
X60827205Y-56894579D01*
X60827205Y-56894579D02*
X60836729Y-56932674D01*
X60836729Y-56932674D02*
X60836729Y-56980293D01*
X60836729Y-56980293D02*
X60827205Y-57018388D01*
X60827205Y-57018388D02*
X60817682Y-57037436D01*
X60817682Y-57037436D02*
X60808158Y-57046960D01*
X60808158Y-57046960D02*
X60789110Y-57056484D01*
X60789110Y-57056484D02*
X60770062Y-57056484D01*
X60770062Y-57056484D02*
X60751015Y-57046960D01*
X60751015Y-57046960D02*
X60741491Y-57037436D01*
X60741491Y-57037436D02*
X60731967Y-57018388D01*
X60731967Y-57018388D02*
X60722443Y-56980293D01*
X60722443Y-56980293D02*
X60722443Y-56932674D01*
X60722443Y-56932674D02*
X60731967Y-56894579D01*
X60731967Y-56894579D02*
X60741491Y-56875531D01*
X60741491Y-56875531D02*
X60751015Y-56866008D01*
X60751015Y-56866008D02*
X60770062Y-56856484D01*
X60960539Y-56856484D02*
X60979586Y-56856484D01*
X60979586Y-56856484D02*
X60998634Y-56866008D01*
X60998634Y-56866008D02*
X61008158Y-56875531D01*
X61008158Y-56875531D02*
X61017682Y-56894579D01*
X61017682Y-56894579D02*
X61027205Y-56932674D01*
X61027205Y-56932674D02*
X61027205Y-56980293D01*
X61027205Y-56980293D02*
X61017682Y-57018388D01*
X61017682Y-57018388D02*
X61008158Y-57037436D01*
X61008158Y-57037436D02*
X60998634Y-57046960D01*
X60998634Y-57046960D02*
X60979586Y-57056484D01*
X60979586Y-57056484D02*
X60960539Y-57056484D01*
X60960539Y-57056484D02*
X60941491Y-57046960D01*
X60941491Y-57046960D02*
X60931967Y-57037436D01*
X60931967Y-57037436D02*
X60922443Y-57018388D01*
X60922443Y-57018388D02*
X60912920Y-56980293D01*
X60912920Y-56980293D02*
X60912920Y-56932674D01*
X60912920Y-56932674D02*
X60922443Y-56894579D01*
X60922443Y-56894579D02*
X60931967Y-56875531D01*
X60931967Y-56875531D02*
X60941491Y-56866008D01*
X60941491Y-56866008D02*
X60960539Y-56856484D01*
X61112920Y-57056484D02*
X61112920Y-56923150D01*
X61112920Y-56942198D02*
X61122443Y-56932674D01*
X61122443Y-56932674D02*
X61141491Y-56923150D01*
X61141491Y-56923150D02*
X61170063Y-56923150D01*
X61170063Y-56923150D02*
X61189110Y-56932674D01*
X61189110Y-56932674D02*
X61198634Y-56951722D01*
X61198634Y-56951722D02*
X61198634Y-57056484D01*
X61198634Y-56951722D02*
X61208158Y-56932674D01*
X61208158Y-56932674D02*
X61227205Y-56923150D01*
X61227205Y-56923150D02*
X61255777Y-56923150D01*
X61255777Y-56923150D02*
X61274824Y-56932674D01*
X61274824Y-56932674D02*
X61284348Y-56951722D01*
X61284348Y-56951722D02*
X61284348Y-57056484D01*
X61379586Y-57056484D02*
X61379586Y-56923150D01*
X61379586Y-56942198D02*
X61389110Y-56932674D01*
X61389110Y-56932674D02*
X61408158Y-56923150D01*
X61408158Y-56923150D02*
X61436729Y-56923150D01*
X61436729Y-56923150D02*
X61455777Y-56932674D01*
X61455777Y-56932674D02*
X61465301Y-56951722D01*
X61465301Y-56951722D02*
X61465301Y-57056484D01*
X61465301Y-56951722D02*
X61474824Y-56932674D01*
X61474824Y-56932674D02*
X61493872Y-56923150D01*
X61493872Y-56923150D02*
X61522443Y-56923150D01*
X61522443Y-56923150D02*
X61541491Y-56932674D01*
X61541491Y-56932674D02*
X61551015Y-56951722D01*
X61551015Y-56951722D02*
X61551015Y-57056484D01*
X61941491Y-56846960D02*
X61770063Y-57104103D01*
X62198634Y-56856484D02*
X62217682Y-56856484D01*
X62217682Y-56856484D02*
X62236729Y-56866008D01*
X62236729Y-56866008D02*
X62246253Y-56875531D01*
X62246253Y-56875531D02*
X62255777Y-56894579D01*
X62255777Y-56894579D02*
X62265301Y-56932674D01*
X62265301Y-56932674D02*
X62265301Y-56980293D01*
X62265301Y-56980293D02*
X62255777Y-57018388D01*
X62255777Y-57018388D02*
X62246253Y-57037436D01*
X62246253Y-57037436D02*
X62236729Y-57046960D01*
X62236729Y-57046960D02*
X62217682Y-57056484D01*
X62217682Y-57056484D02*
X62198634Y-57056484D01*
X62198634Y-57056484D02*
X62179586Y-57046960D01*
X62179586Y-57046960D02*
X62170063Y-57037436D01*
X62170063Y-57037436D02*
X62160539Y-57018388D01*
X62160539Y-57018388D02*
X62151015Y-56980293D01*
X62151015Y-56980293D02*
X62151015Y-56932674D01*
X62151015Y-56932674D02*
X62160539Y-56894579D01*
X62160539Y-56894579D02*
X62170063Y-56875531D01*
X62170063Y-56875531D02*
X62179586Y-56866008D01*
X62179586Y-56866008D02*
X62198634Y-56856484D01*
X62351015Y-57037436D02*
X62360539Y-57046960D01*
X62360539Y-57046960D02*
X62351015Y-57056484D01*
X62351015Y-57056484D02*
X62341491Y-57046960D01*
X62341491Y-57046960D02*
X62351015Y-57037436D01*
X62351015Y-57037436D02*
X62351015Y-57056484D01*
X62484348Y-56856484D02*
X62503396Y-56856484D01*
X62503396Y-56856484D02*
X62522444Y-56866008D01*
X62522444Y-56866008D02*
X62531967Y-56875531D01*
X62531967Y-56875531D02*
X62541491Y-56894579D01*
X62541491Y-56894579D02*
X62551015Y-56932674D01*
X62551015Y-56932674D02*
X62551015Y-56980293D01*
X62551015Y-56980293D02*
X62541491Y-57018388D01*
X62541491Y-57018388D02*
X62531967Y-57037436D01*
X62531967Y-57037436D02*
X62522444Y-57046960D01*
X62522444Y-57046960D02*
X62503396Y-57056484D01*
X62503396Y-57056484D02*
X62484348Y-57056484D01*
X62484348Y-57056484D02*
X62465301Y-57046960D01*
X62465301Y-57046960D02*
X62455777Y-57037436D01*
X62455777Y-57037436D02*
X62446253Y-57018388D01*
X62446253Y-57018388D02*
X62436729Y-56980293D01*
X62436729Y-56980293D02*
X62436729Y-56932674D01*
X62436729Y-56932674D02*
X62446253Y-56894579D01*
X62446253Y-56894579D02*
X62455777Y-56875531D01*
X62455777Y-56875531D02*
X62465301Y-56866008D01*
X62465301Y-56866008D02*
X62484348Y-56856484D01*
X62722444Y-56923150D02*
X62722444Y-57056484D01*
X62674825Y-56846960D02*
X62627206Y-56989817D01*
X62627206Y-56989817D02*
X62751015Y-56989817D01*
X62808158Y-56856484D02*
X62941491Y-56856484D01*
X62941491Y-56856484D02*
X62855777Y-57056484D01*
X63008158Y-56875531D02*
X63017682Y-56866008D01*
X63017682Y-56866008D02*
X63036729Y-56856484D01*
X63036729Y-56856484D02*
X63084348Y-56856484D01*
X63084348Y-56856484D02*
X63103396Y-56866008D01*
X63103396Y-56866008D02*
X63112920Y-56875531D01*
X63112920Y-56875531D02*
X63122444Y-56894579D01*
X63122444Y-56894579D02*
X63122444Y-56913627D01*
X63122444Y-56913627D02*
X63112920Y-56942198D01*
X63112920Y-56942198D02*
X62998634Y-57056484D01*
X62998634Y-57056484D02*
X63122444Y-57056484D01*
X63198634Y-56856484D02*
X63198634Y-56894579D01*
X63274825Y-56856484D02*
X63274825Y-56894579D01*
X63570063Y-57132674D02*
X63560539Y-57123150D01*
X63560539Y-57123150D02*
X63541491Y-57094579D01*
X63541491Y-57094579D02*
X63531968Y-57075531D01*
X63531968Y-57075531D02*
X63522444Y-57046960D01*
X63522444Y-57046960D02*
X63512920Y-56999341D01*
X63512920Y-56999341D02*
X63512920Y-56961246D01*
X63512920Y-56961246D02*
X63522444Y-56913627D01*
X63522444Y-56913627D02*
X63531968Y-56885055D01*
X63531968Y-56885055D02*
X63541491Y-56866008D01*
X63541491Y-56866008D02*
X63560539Y-56837436D01*
X63560539Y-56837436D02*
X63570063Y-56827912D01*
X63684348Y-56856484D02*
X63703396Y-56856484D01*
X63703396Y-56856484D02*
X63722444Y-56866008D01*
X63722444Y-56866008D02*
X63731968Y-56875531D01*
X63731968Y-56875531D02*
X63741491Y-56894579D01*
X63741491Y-56894579D02*
X63751015Y-56932674D01*
X63751015Y-56932674D02*
X63751015Y-56980293D01*
X63751015Y-56980293D02*
X63741491Y-57018388D01*
X63741491Y-57018388D02*
X63731968Y-57037436D01*
X63731968Y-57037436D02*
X63722444Y-57046960D01*
X63722444Y-57046960D02*
X63703396Y-57056484D01*
X63703396Y-57056484D02*
X63684348Y-57056484D01*
X63684348Y-57056484D02*
X63665301Y-57046960D01*
X63665301Y-57046960D02*
X63655777Y-57037436D01*
X63655777Y-57037436D02*
X63646253Y-57018388D01*
X63646253Y-57018388D02*
X63636729Y-56980293D01*
X63636729Y-56980293D02*
X63636729Y-56932674D01*
X63636729Y-56932674D02*
X63646253Y-56894579D01*
X63646253Y-56894579D02*
X63655777Y-56875531D01*
X63655777Y-56875531D02*
X63665301Y-56866008D01*
X63665301Y-56866008D02*
X63684348Y-56856484D01*
X63989110Y-57056484D02*
X63989110Y-56856484D01*
X64074825Y-57056484D02*
X64074825Y-56951722D01*
X64074825Y-56951722D02*
X64065301Y-56932674D01*
X64065301Y-56932674D02*
X64046253Y-56923150D01*
X64046253Y-56923150D02*
X64017682Y-56923150D01*
X64017682Y-56923150D02*
X63998634Y-56932674D01*
X63998634Y-56932674D02*
X63989110Y-56942198D01*
X64198634Y-57056484D02*
X64179587Y-57046960D01*
X64179587Y-57046960D02*
X64170063Y-57037436D01*
X64170063Y-57037436D02*
X64160539Y-57018388D01*
X64160539Y-57018388D02*
X64160539Y-56961246D01*
X64160539Y-56961246D02*
X64170063Y-56942198D01*
X64170063Y-56942198D02*
X64179587Y-56932674D01*
X64179587Y-56932674D02*
X64198634Y-56923150D01*
X64198634Y-56923150D02*
X64227206Y-56923150D01*
X64227206Y-56923150D02*
X64246253Y-56932674D01*
X64246253Y-56932674D02*
X64255777Y-56942198D01*
X64255777Y-56942198D02*
X64265301Y-56961246D01*
X64265301Y-56961246D02*
X64265301Y-57018388D01*
X64265301Y-57018388D02*
X64255777Y-57037436D01*
X64255777Y-57037436D02*
X64246253Y-57046960D01*
X64246253Y-57046960D02*
X64227206Y-57056484D01*
X64227206Y-57056484D02*
X64198634Y-57056484D01*
X64379587Y-57056484D02*
X64360539Y-57046960D01*
X64360539Y-57046960D02*
X64351015Y-57027912D01*
X64351015Y-57027912D02*
X64351015Y-56856484D01*
X64531968Y-57046960D02*
X64512920Y-57056484D01*
X64512920Y-57056484D02*
X64474825Y-57056484D01*
X64474825Y-57056484D02*
X64455777Y-57046960D01*
X64455777Y-57046960D02*
X64446253Y-57027912D01*
X64446253Y-57027912D02*
X64446253Y-56951722D01*
X64446253Y-56951722D02*
X64455777Y-56932674D01*
X64455777Y-56932674D02*
X64474825Y-56923150D01*
X64474825Y-56923150D02*
X64512920Y-56923150D01*
X64512920Y-56923150D02*
X64531968Y-56932674D01*
X64531968Y-56932674D02*
X64541491Y-56951722D01*
X64541491Y-56951722D02*
X64541491Y-56970769D01*
X64541491Y-56970769D02*
X64446253Y-56989817D01*
X64617682Y-57046960D02*
X64636730Y-57056484D01*
X64636730Y-57056484D02*
X64674825Y-57056484D01*
X64674825Y-57056484D02*
X64693872Y-57046960D01*
X64693872Y-57046960D02*
X64703396Y-57027912D01*
X64703396Y-57027912D02*
X64703396Y-57018388D01*
X64703396Y-57018388D02*
X64693872Y-56999341D01*
X64693872Y-56999341D02*
X64674825Y-56989817D01*
X64674825Y-56989817D02*
X64646253Y-56989817D01*
X64646253Y-56989817D02*
X64627206Y-56980293D01*
X64627206Y-56980293D02*
X64617682Y-56961246D01*
X64617682Y-56961246D02*
X64617682Y-56951722D01*
X64617682Y-56951722D02*
X64627206Y-56932674D01*
X64627206Y-56932674D02*
X64646253Y-56923150D01*
X64646253Y-56923150D02*
X64674825Y-56923150D01*
X64674825Y-56923150D02*
X64693872Y-56932674D01*
X64941492Y-56980293D02*
X65093873Y-56980293D01*
X65017682Y-57056484D02*
X65017682Y-56904103D01*
X65322444Y-56856484D02*
X65446253Y-56856484D01*
X65446253Y-56856484D02*
X65379587Y-56932674D01*
X65379587Y-56932674D02*
X65408158Y-56932674D01*
X65408158Y-56932674D02*
X65427206Y-56942198D01*
X65427206Y-56942198D02*
X65436730Y-56951722D01*
X65436730Y-56951722D02*
X65446253Y-56970769D01*
X65446253Y-56970769D02*
X65446253Y-57018388D01*
X65446253Y-57018388D02*
X65436730Y-57037436D01*
X65436730Y-57037436D02*
X65427206Y-57046960D01*
X65427206Y-57046960D02*
X65408158Y-57056484D01*
X65408158Y-57056484D02*
X65351015Y-57056484D01*
X65351015Y-57056484D02*
X65331968Y-57046960D01*
X65331968Y-57046960D02*
X65322444Y-57037436D01*
X65674825Y-57046960D02*
X65693873Y-57056484D01*
X65693873Y-57056484D02*
X65731968Y-57056484D01*
X65731968Y-57056484D02*
X65751015Y-57046960D01*
X65751015Y-57046960D02*
X65760539Y-57027912D01*
X65760539Y-57027912D02*
X65760539Y-57018388D01*
X65760539Y-57018388D02*
X65751015Y-56999341D01*
X65751015Y-56999341D02*
X65731968Y-56989817D01*
X65731968Y-56989817D02*
X65703396Y-56989817D01*
X65703396Y-56989817D02*
X65684349Y-56980293D01*
X65684349Y-56980293D02*
X65674825Y-56961246D01*
X65674825Y-56961246D02*
X65674825Y-56951722D01*
X65674825Y-56951722D02*
X65684349Y-56932674D01*
X65684349Y-56932674D02*
X65703396Y-56923150D01*
X65703396Y-56923150D02*
X65731968Y-56923150D01*
X65731968Y-56923150D02*
X65751015Y-56932674D01*
X65874825Y-57056484D02*
X65855777Y-57046960D01*
X65855777Y-57046960D02*
X65846254Y-57027912D01*
X65846254Y-57027912D02*
X65846254Y-56856484D01*
X65979587Y-57056484D02*
X65960539Y-57046960D01*
X65960539Y-57046960D02*
X65951015Y-57037436D01*
X65951015Y-57037436D02*
X65941492Y-57018388D01*
X65941492Y-57018388D02*
X65941492Y-56961246D01*
X65941492Y-56961246D02*
X65951015Y-56942198D01*
X65951015Y-56942198D02*
X65960539Y-56932674D01*
X65960539Y-56932674D02*
X65979587Y-56923150D01*
X65979587Y-56923150D02*
X66008158Y-56923150D01*
X66008158Y-56923150D02*
X66027206Y-56932674D01*
X66027206Y-56932674D02*
X66036730Y-56942198D01*
X66036730Y-56942198D02*
X66046254Y-56961246D01*
X66046254Y-56961246D02*
X66046254Y-57018388D01*
X66046254Y-57018388D02*
X66036730Y-57037436D01*
X66036730Y-57037436D02*
X66027206Y-57046960D01*
X66027206Y-57046960D02*
X66008158Y-57056484D01*
X66008158Y-57056484D02*
X65979587Y-57056484D01*
X66103396Y-56923150D02*
X66179587Y-56923150D01*
X66131968Y-56856484D02*
X66131968Y-57027912D01*
X66131968Y-57027912D02*
X66141492Y-57046960D01*
X66141492Y-57046960D02*
X66160539Y-57056484D01*
X66160539Y-57056484D02*
X66179587Y-57056484D01*
X66236730Y-57046960D02*
X66255777Y-57056484D01*
X66255777Y-57056484D02*
X66293873Y-57056484D01*
X66293873Y-57056484D02*
X66312920Y-57046960D01*
X66312920Y-57046960D02*
X66322444Y-57027912D01*
X66322444Y-57027912D02*
X66322444Y-57018388D01*
X66322444Y-57018388D02*
X66312920Y-56999341D01*
X66312920Y-56999341D02*
X66293873Y-56989817D01*
X66293873Y-56989817D02*
X66265301Y-56989817D01*
X66265301Y-56989817D02*
X66246254Y-56980293D01*
X66246254Y-56980293D02*
X66236730Y-56961246D01*
X66236730Y-56961246D02*
X66236730Y-56951722D01*
X66236730Y-56951722D02*
X66246254Y-56932674D01*
X66246254Y-56932674D02*
X66265301Y-56923150D01*
X66265301Y-56923150D02*
X66293873Y-56923150D01*
X66293873Y-56923150D02*
X66312920Y-56932674D01*
X66389111Y-57132674D02*
X66398635Y-57123150D01*
X66398635Y-57123150D02*
X66417682Y-57094579D01*
X66417682Y-57094579D02*
X66427206Y-57075531D01*
X66427206Y-57075531D02*
X66436730Y-57046960D01*
X66436730Y-57046960D02*
X66446254Y-56999341D01*
X66446254Y-56999341D02*
X66446254Y-56961246D01*
X66446254Y-56961246D02*
X66436730Y-56913627D01*
X66436730Y-56913627D02*
X66427206Y-56885055D01*
X66427206Y-56885055D02*
X66417682Y-56866008D01*
X66417682Y-56866008D02*
X66398635Y-56837436D01*
X66398635Y-56837436D02*
X66389111Y-56827912D01*
D17*
X59869001Y-57166000D02*
X59995000Y-57292000D01*
X59995000Y-57166000D02*
X59869001Y-57292000D01*
X59932000Y-57166000D02*
X59932000Y-57292000D01*
X59869001Y-57229000D02*
X59995000Y-57229000D01*
D11*
X60360539Y-57320484D02*
X60246253Y-57320484D01*
X60303396Y-57320484D02*
X60303396Y-57120484D01*
X60303396Y-57120484D02*
X60284348Y-57149055D01*
X60284348Y-57149055D02*
X60265301Y-57168103D01*
X60265301Y-57168103D02*
X60246253Y-57177627D01*
X60446253Y-57301436D02*
X60455777Y-57310960D01*
X60455777Y-57310960D02*
X60446253Y-57320484D01*
X60446253Y-57320484D02*
X60436729Y-57310960D01*
X60436729Y-57310960D02*
X60446253Y-57301436D01*
X60446253Y-57301436D02*
X60446253Y-57320484D01*
X60531967Y-57139531D02*
X60541491Y-57130008D01*
X60541491Y-57130008D02*
X60560539Y-57120484D01*
X60560539Y-57120484D02*
X60608158Y-57120484D01*
X60608158Y-57120484D02*
X60627205Y-57130008D01*
X60627205Y-57130008D02*
X60636729Y-57139531D01*
X60636729Y-57139531D02*
X60646253Y-57158579D01*
X60646253Y-57158579D02*
X60646253Y-57177627D01*
X60646253Y-57177627D02*
X60636729Y-57206198D01*
X60636729Y-57206198D02*
X60522443Y-57320484D01*
X60522443Y-57320484D02*
X60646253Y-57320484D01*
X60817682Y-57120484D02*
X60779586Y-57120484D01*
X60779586Y-57120484D02*
X60760539Y-57130008D01*
X60760539Y-57130008D02*
X60751015Y-57139531D01*
X60751015Y-57139531D02*
X60731967Y-57168103D01*
X60731967Y-57168103D02*
X60722443Y-57206198D01*
X60722443Y-57206198D02*
X60722443Y-57282388D01*
X60722443Y-57282388D02*
X60731967Y-57301436D01*
X60731967Y-57301436D02*
X60741491Y-57310960D01*
X60741491Y-57310960D02*
X60760539Y-57320484D01*
X60760539Y-57320484D02*
X60798634Y-57320484D01*
X60798634Y-57320484D02*
X60817682Y-57310960D01*
X60817682Y-57310960D02*
X60827205Y-57301436D01*
X60827205Y-57301436D02*
X60836729Y-57282388D01*
X60836729Y-57282388D02*
X60836729Y-57234769D01*
X60836729Y-57234769D02*
X60827205Y-57215722D01*
X60827205Y-57215722D02*
X60817682Y-57206198D01*
X60817682Y-57206198D02*
X60798634Y-57196674D01*
X60798634Y-57196674D02*
X60760539Y-57196674D01*
X60760539Y-57196674D02*
X60741491Y-57206198D01*
X60741491Y-57206198D02*
X60731967Y-57215722D01*
X60731967Y-57215722D02*
X60722443Y-57234769D01*
X60960539Y-57120484D02*
X60979586Y-57120484D01*
X60979586Y-57120484D02*
X60998634Y-57130008D01*
X60998634Y-57130008D02*
X61008158Y-57139531D01*
X61008158Y-57139531D02*
X61017682Y-57158579D01*
X61017682Y-57158579D02*
X61027205Y-57196674D01*
X61027205Y-57196674D02*
X61027205Y-57244293D01*
X61027205Y-57244293D02*
X61017682Y-57282388D01*
X61017682Y-57282388D02*
X61008158Y-57301436D01*
X61008158Y-57301436D02*
X60998634Y-57310960D01*
X60998634Y-57310960D02*
X60979586Y-57320484D01*
X60979586Y-57320484D02*
X60960539Y-57320484D01*
X60960539Y-57320484D02*
X60941491Y-57310960D01*
X60941491Y-57310960D02*
X60931967Y-57301436D01*
X60931967Y-57301436D02*
X60922443Y-57282388D01*
X60922443Y-57282388D02*
X60912920Y-57244293D01*
X60912920Y-57244293D02*
X60912920Y-57196674D01*
X60912920Y-57196674D02*
X60922443Y-57158579D01*
X60922443Y-57158579D02*
X60931967Y-57139531D01*
X60931967Y-57139531D02*
X60941491Y-57130008D01*
X60941491Y-57130008D02*
X60960539Y-57120484D01*
X61112920Y-57320484D02*
X61112920Y-57187150D01*
X61112920Y-57206198D02*
X61122443Y-57196674D01*
X61122443Y-57196674D02*
X61141491Y-57187150D01*
X61141491Y-57187150D02*
X61170063Y-57187150D01*
X61170063Y-57187150D02*
X61189110Y-57196674D01*
X61189110Y-57196674D02*
X61198634Y-57215722D01*
X61198634Y-57215722D02*
X61198634Y-57320484D01*
X61198634Y-57215722D02*
X61208158Y-57196674D01*
X61208158Y-57196674D02*
X61227205Y-57187150D01*
X61227205Y-57187150D02*
X61255777Y-57187150D01*
X61255777Y-57187150D02*
X61274824Y-57196674D01*
X61274824Y-57196674D02*
X61284348Y-57215722D01*
X61284348Y-57215722D02*
X61284348Y-57320484D01*
X61379586Y-57320484D02*
X61379586Y-57187150D01*
X61379586Y-57206198D02*
X61389110Y-57196674D01*
X61389110Y-57196674D02*
X61408158Y-57187150D01*
X61408158Y-57187150D02*
X61436729Y-57187150D01*
X61436729Y-57187150D02*
X61455777Y-57196674D01*
X61455777Y-57196674D02*
X61465301Y-57215722D01*
X61465301Y-57215722D02*
X61465301Y-57320484D01*
X61465301Y-57215722D02*
X61474824Y-57196674D01*
X61474824Y-57196674D02*
X61493872Y-57187150D01*
X61493872Y-57187150D02*
X61522443Y-57187150D01*
X61522443Y-57187150D02*
X61541491Y-57196674D01*
X61541491Y-57196674D02*
X61551015Y-57215722D01*
X61551015Y-57215722D02*
X61551015Y-57320484D01*
X61941491Y-57110960D02*
X61770063Y-57368103D01*
X62198634Y-57120484D02*
X62217682Y-57120484D01*
X62217682Y-57120484D02*
X62236729Y-57130008D01*
X62236729Y-57130008D02*
X62246253Y-57139531D01*
X62246253Y-57139531D02*
X62255777Y-57158579D01*
X62255777Y-57158579D02*
X62265301Y-57196674D01*
X62265301Y-57196674D02*
X62265301Y-57244293D01*
X62265301Y-57244293D02*
X62255777Y-57282388D01*
X62255777Y-57282388D02*
X62246253Y-57301436D01*
X62246253Y-57301436D02*
X62236729Y-57310960D01*
X62236729Y-57310960D02*
X62217682Y-57320484D01*
X62217682Y-57320484D02*
X62198634Y-57320484D01*
X62198634Y-57320484D02*
X62179586Y-57310960D01*
X62179586Y-57310960D02*
X62170063Y-57301436D01*
X62170063Y-57301436D02*
X62160539Y-57282388D01*
X62160539Y-57282388D02*
X62151015Y-57244293D01*
X62151015Y-57244293D02*
X62151015Y-57196674D01*
X62151015Y-57196674D02*
X62160539Y-57158579D01*
X62160539Y-57158579D02*
X62170063Y-57139531D01*
X62170063Y-57139531D02*
X62179586Y-57130008D01*
X62179586Y-57130008D02*
X62198634Y-57120484D01*
X62351015Y-57301436D02*
X62360539Y-57310960D01*
X62360539Y-57310960D02*
X62351015Y-57320484D01*
X62351015Y-57320484D02*
X62341491Y-57310960D01*
X62341491Y-57310960D02*
X62351015Y-57301436D01*
X62351015Y-57301436D02*
X62351015Y-57320484D01*
X62484348Y-57120484D02*
X62503396Y-57120484D01*
X62503396Y-57120484D02*
X62522444Y-57130008D01*
X62522444Y-57130008D02*
X62531967Y-57139531D01*
X62531967Y-57139531D02*
X62541491Y-57158579D01*
X62541491Y-57158579D02*
X62551015Y-57196674D01*
X62551015Y-57196674D02*
X62551015Y-57244293D01*
X62551015Y-57244293D02*
X62541491Y-57282388D01*
X62541491Y-57282388D02*
X62531967Y-57301436D01*
X62531967Y-57301436D02*
X62522444Y-57310960D01*
X62522444Y-57310960D02*
X62503396Y-57320484D01*
X62503396Y-57320484D02*
X62484348Y-57320484D01*
X62484348Y-57320484D02*
X62465301Y-57310960D01*
X62465301Y-57310960D02*
X62455777Y-57301436D01*
X62455777Y-57301436D02*
X62446253Y-57282388D01*
X62446253Y-57282388D02*
X62436729Y-57244293D01*
X62436729Y-57244293D02*
X62436729Y-57196674D01*
X62436729Y-57196674D02*
X62446253Y-57158579D01*
X62446253Y-57158579D02*
X62455777Y-57139531D01*
X62455777Y-57139531D02*
X62465301Y-57130008D01*
X62465301Y-57130008D02*
X62484348Y-57120484D01*
X62722444Y-57187150D02*
X62722444Y-57320484D01*
X62674825Y-57110960D02*
X62627206Y-57253817D01*
X62627206Y-57253817D02*
X62751015Y-57253817D01*
X62836729Y-57320484D02*
X62874825Y-57320484D01*
X62874825Y-57320484D02*
X62893872Y-57310960D01*
X62893872Y-57310960D02*
X62903396Y-57301436D01*
X62903396Y-57301436D02*
X62922444Y-57272865D01*
X62922444Y-57272865D02*
X62931967Y-57234769D01*
X62931967Y-57234769D02*
X62931967Y-57158579D01*
X62931967Y-57158579D02*
X62922444Y-57139531D01*
X62922444Y-57139531D02*
X62912920Y-57130008D01*
X62912920Y-57130008D02*
X62893872Y-57120484D01*
X62893872Y-57120484D02*
X62855777Y-57120484D01*
X62855777Y-57120484D02*
X62836729Y-57130008D01*
X62836729Y-57130008D02*
X62827206Y-57139531D01*
X62827206Y-57139531D02*
X62817682Y-57158579D01*
X62817682Y-57158579D02*
X62817682Y-57206198D01*
X62817682Y-57206198D02*
X62827206Y-57225246D01*
X62827206Y-57225246D02*
X62836729Y-57234769D01*
X62836729Y-57234769D02*
X62855777Y-57244293D01*
X62855777Y-57244293D02*
X62893872Y-57244293D01*
X62893872Y-57244293D02*
X62912920Y-57234769D01*
X62912920Y-57234769D02*
X62922444Y-57225246D01*
X62922444Y-57225246D02*
X62931967Y-57206198D01*
X63103396Y-57120484D02*
X63065301Y-57120484D01*
X63065301Y-57120484D02*
X63046253Y-57130008D01*
X63046253Y-57130008D02*
X63036729Y-57139531D01*
X63036729Y-57139531D02*
X63017682Y-57168103D01*
X63017682Y-57168103D02*
X63008158Y-57206198D01*
X63008158Y-57206198D02*
X63008158Y-57282388D01*
X63008158Y-57282388D02*
X63017682Y-57301436D01*
X63017682Y-57301436D02*
X63027206Y-57310960D01*
X63027206Y-57310960D02*
X63046253Y-57320484D01*
X63046253Y-57320484D02*
X63084348Y-57320484D01*
X63084348Y-57320484D02*
X63103396Y-57310960D01*
X63103396Y-57310960D02*
X63112920Y-57301436D01*
X63112920Y-57301436D02*
X63122444Y-57282388D01*
X63122444Y-57282388D02*
X63122444Y-57234769D01*
X63122444Y-57234769D02*
X63112920Y-57215722D01*
X63112920Y-57215722D02*
X63103396Y-57206198D01*
X63103396Y-57206198D02*
X63084348Y-57196674D01*
X63084348Y-57196674D02*
X63046253Y-57196674D01*
X63046253Y-57196674D02*
X63027206Y-57206198D01*
X63027206Y-57206198D02*
X63017682Y-57215722D01*
X63017682Y-57215722D02*
X63008158Y-57234769D01*
X63198634Y-57120484D02*
X63198634Y-57158579D01*
X63274825Y-57120484D02*
X63274825Y-57158579D01*
X63570063Y-57396674D02*
X63560539Y-57387150D01*
X63560539Y-57387150D02*
X63541491Y-57358579D01*
X63541491Y-57358579D02*
X63531968Y-57339531D01*
X63531968Y-57339531D02*
X63522444Y-57310960D01*
X63522444Y-57310960D02*
X63512920Y-57263341D01*
X63512920Y-57263341D02*
X63512920Y-57225246D01*
X63512920Y-57225246D02*
X63522444Y-57177627D01*
X63522444Y-57177627D02*
X63531968Y-57149055D01*
X63531968Y-57149055D02*
X63541491Y-57130008D01*
X63541491Y-57130008D02*
X63560539Y-57101436D01*
X63560539Y-57101436D02*
X63570063Y-57091912D01*
X63627206Y-57120484D02*
X63751015Y-57120484D01*
X63751015Y-57120484D02*
X63684348Y-57196674D01*
X63684348Y-57196674D02*
X63712920Y-57196674D01*
X63712920Y-57196674D02*
X63731968Y-57206198D01*
X63731968Y-57206198D02*
X63741491Y-57215722D01*
X63741491Y-57215722D02*
X63751015Y-57234769D01*
X63751015Y-57234769D02*
X63751015Y-57282388D01*
X63751015Y-57282388D02*
X63741491Y-57301436D01*
X63741491Y-57301436D02*
X63731968Y-57310960D01*
X63731968Y-57310960D02*
X63712920Y-57320484D01*
X63712920Y-57320484D02*
X63655777Y-57320484D01*
X63655777Y-57320484D02*
X63636729Y-57310960D01*
X63636729Y-57310960D02*
X63627206Y-57301436D01*
X63989110Y-57320484D02*
X63989110Y-57120484D01*
X64074825Y-57320484D02*
X64074825Y-57215722D01*
X64074825Y-57215722D02*
X64065301Y-57196674D01*
X64065301Y-57196674D02*
X64046253Y-57187150D01*
X64046253Y-57187150D02*
X64017682Y-57187150D01*
X64017682Y-57187150D02*
X63998634Y-57196674D01*
X63998634Y-57196674D02*
X63989110Y-57206198D01*
X64198634Y-57320484D02*
X64179587Y-57310960D01*
X64179587Y-57310960D02*
X64170063Y-57301436D01*
X64170063Y-57301436D02*
X64160539Y-57282388D01*
X64160539Y-57282388D02*
X64160539Y-57225246D01*
X64160539Y-57225246D02*
X64170063Y-57206198D01*
X64170063Y-57206198D02*
X64179587Y-57196674D01*
X64179587Y-57196674D02*
X64198634Y-57187150D01*
X64198634Y-57187150D02*
X64227206Y-57187150D01*
X64227206Y-57187150D02*
X64246253Y-57196674D01*
X64246253Y-57196674D02*
X64255777Y-57206198D01*
X64255777Y-57206198D02*
X64265301Y-57225246D01*
X64265301Y-57225246D02*
X64265301Y-57282388D01*
X64265301Y-57282388D02*
X64255777Y-57301436D01*
X64255777Y-57301436D02*
X64246253Y-57310960D01*
X64246253Y-57310960D02*
X64227206Y-57320484D01*
X64227206Y-57320484D02*
X64198634Y-57320484D01*
X64379587Y-57320484D02*
X64360539Y-57310960D01*
X64360539Y-57310960D02*
X64351015Y-57291912D01*
X64351015Y-57291912D02*
X64351015Y-57120484D01*
X64531968Y-57310960D02*
X64512920Y-57320484D01*
X64512920Y-57320484D02*
X64474825Y-57320484D01*
X64474825Y-57320484D02*
X64455777Y-57310960D01*
X64455777Y-57310960D02*
X64446253Y-57291912D01*
X64446253Y-57291912D02*
X64446253Y-57215722D01*
X64446253Y-57215722D02*
X64455777Y-57196674D01*
X64455777Y-57196674D02*
X64474825Y-57187150D01*
X64474825Y-57187150D02*
X64512920Y-57187150D01*
X64512920Y-57187150D02*
X64531968Y-57196674D01*
X64531968Y-57196674D02*
X64541491Y-57215722D01*
X64541491Y-57215722D02*
X64541491Y-57234769D01*
X64541491Y-57234769D02*
X64446253Y-57253817D01*
X64617682Y-57310960D02*
X64636730Y-57320484D01*
X64636730Y-57320484D02*
X64674825Y-57320484D01*
X64674825Y-57320484D02*
X64693872Y-57310960D01*
X64693872Y-57310960D02*
X64703396Y-57291912D01*
X64703396Y-57291912D02*
X64703396Y-57282388D01*
X64703396Y-57282388D02*
X64693872Y-57263341D01*
X64693872Y-57263341D02*
X64674825Y-57253817D01*
X64674825Y-57253817D02*
X64646253Y-57253817D01*
X64646253Y-57253817D02*
X64627206Y-57244293D01*
X64627206Y-57244293D02*
X64617682Y-57225246D01*
X64617682Y-57225246D02*
X64617682Y-57215722D01*
X64617682Y-57215722D02*
X64627206Y-57196674D01*
X64627206Y-57196674D02*
X64646253Y-57187150D01*
X64646253Y-57187150D02*
X64674825Y-57187150D01*
X64674825Y-57187150D02*
X64693872Y-57196674D01*
X64770063Y-57396674D02*
X64779587Y-57387150D01*
X64779587Y-57387150D02*
X64798634Y-57358579D01*
X64798634Y-57358579D02*
X64808158Y-57339531D01*
X64808158Y-57339531D02*
X64817682Y-57310960D01*
X64817682Y-57310960D02*
X64827206Y-57263341D01*
X64827206Y-57263341D02*
X64827206Y-57225246D01*
X64827206Y-57225246D02*
X64817682Y-57177627D01*
X64817682Y-57177627D02*
X64808158Y-57149055D01*
X64808158Y-57149055D02*
X64798634Y-57130008D01*
X64798634Y-57130008D02*
X64779587Y-57101436D01*
X64779587Y-57101436D02*
X64770063Y-57091912D01*
M02*
