M48
; DRILL file {KiCad 7.0.8} date 2023 November 02, Thursday 15:02:20
; FORMAT={-:-/ absolute / metric / decimal}
; #@! TF.CreationDate,2023-11-02T15:02:20+01:00
; #@! TF.GenerationSoftware,Kicad,Pcbnew,7.0.8
; #@! TF.FileFunction,Plated,1,2,PTH
FMAT,2
METRIC
; #@! TA.AperFunction,Plated,PTH,ViaDrill
T1C0.400
; #@! TA.AperFunction,Plated,PTH,ComponentDrill
T2C0.700
; #@! TA.AperFunction,Plated,PTH,ViaDrill
T3C0.800
; #@! TA.AperFunction,Plated,PTH,ComponentDrill
T4C1.000
; #@! TA.AperFunction,Plated,PTH,ComponentDrill
T5C1.000
; #@! TA.AperFunction,Plated,PTH,ComponentDrill
T6C1.200
; #@! TA.AperFunction,Plated,PTH,ComponentDrill
T7C1.260
%
G90
G05
T1
X600.9Y-452.3
X602.7Y-472.8
X602.9Y-434.1
X607.992Y-535.781
X608.15Y-515.6
X609.35Y-532.1
X610.373Y-532.362
X610.75Y-537.0
X610.755Y-533.285
X611.6Y-508.8
X612.061Y-530.7
X612.15Y-534.6
X612.7Y-527.8
X615.1Y-499.75
X615.437Y-539.5
X617.62Y-545.351
X618.9Y-527.4
X618.95Y-535.4
X618.95Y-536.4
X619.6Y-525.6
X619.85Y-530.5
X620.0Y-527.8
X620.05Y-532.95
X622.9Y-540.3
X627.9Y-417.1
X628.8Y-466.1
X628.8Y-495.0
X629.65Y-541.8
X629.675Y-500.3
X631.125Y-495.2
T3
X606.241Y-534.455
X610.47Y-543.451
X611.0Y-540.7
X611.005Y-500.305
X616.0Y-522.7
X617.25Y-539.45
T4
X601.1Y-439.25
X601.1Y-446.75
X601.1Y-456.25
X601.1Y-463.75
X601.1Y-473.1
X601.1Y-480.6
T5
X602.027Y-518.006
X602.027Y-520.546
X602.027Y-523.086
X602.027Y-525.626
X602.027Y-528.166
X602.027Y-530.706
X602.027Y-533.246
X602.027Y-535.786
X602.027Y-538.326
X604.567Y-518.006
X604.567Y-520.546
X604.567Y-523.086
X604.567Y-525.626
X604.567Y-528.166
X604.567Y-530.706
X604.567Y-533.246
X604.567Y-535.786
X604.567Y-538.326
X627.427Y-518.006
X627.427Y-520.546
X627.427Y-523.086
X627.427Y-525.626
X627.427Y-528.166
X627.427Y-530.706
X627.427Y-533.246
X627.427Y-535.786
X627.427Y-538.326
X629.967Y-518.006
X629.967Y-520.546
X629.967Y-523.086
X629.967Y-525.626
X629.967Y-528.166
X629.967Y-530.706
X629.967Y-533.246
X629.967Y-535.786
X629.967Y-538.326
T7
X612.1Y-408.0
X615.91Y-408.0
X619.72Y-408.0
T2
X612.0Y-544.0G85X612.0Y-545.1
G05
X612.0Y-548.43G85X612.0Y-549.03
G05
X620.64Y-544.0G85X620.64Y-545.1
G05
X620.64Y-548.43G85X620.64Y-549.03
G05
T6
X627.95Y-503.3G85X628.65Y-503.3
G05
X627.95Y-508.0G85X628.65Y-508.0
G05
X627.95Y-512.7G85X628.65Y-512.7
G05
T0
M30
