%TF.GenerationSoftware,KiCad,Pcbnew,7.0.8*%
%TF.CreationDate,2023-11-02T15:01:11+01:00*%
%TF.ProjectId,led-tube,6c65642d-7475-4626-952e-6b696361645f,rev?*%
%TF.SameCoordinates,Original*%
%TF.FileFunction,Paste,Top*%
%TF.FilePolarity,Positive*%
%FSLAX46Y46*%
G04 Gerber Fmt 4.6, Leading zero omitted, Abs format (unit mm)*
G04 Created by KiCad (PCBNEW 7.0.8) date 2023-11-02 15:01:11*
%MOMM*%
%LPD*%
G01*
G04 APERTURE LIST*
G04 Aperture macros list*
%AMRoundRect*
0 Rectangle with rounded corners*
0 $1 Rounding radius*
0 $2 $3 $4 $5 $6 $7 $8 $9 X,Y pos of 4 corners*
0 Add a 4 corners polygon primitive as box body*
4,1,4,$2,$3,$4,$5,$6,$7,$8,$9,$2,$3,0*
0 Add four circle primitives for the rounded corners*
1,1,$1+$1,$2,$3*
1,1,$1+$1,$4,$5*
1,1,$1+$1,$6,$7*
1,1,$1+$1,$8,$9*
0 Add four rect primitives between the rounded corners*
20,1,$1+$1,$2,$3,$4,$5,0*
20,1,$1+$1,$4,$5,$6,$7,0*
20,1,$1+$1,$6,$7,$8,$9,0*
20,1,$1+$1,$8,$9,$2,$3,0*%
G04 Aperture macros list end*
%ADD10RoundRect,0.237500X-0.300000X-0.237500X0.300000X-0.237500X0.300000X0.237500X-0.300000X0.237500X0*%
%ADD11RoundRect,0.237500X0.250000X0.237500X-0.250000X0.237500X-0.250000X-0.237500X0.250000X-0.237500X0*%
%ADD12RoundRect,0.237500X0.237500X-0.250000X0.237500X0.250000X-0.237500X0.250000X-0.237500X-0.250000X0*%
%ADD13RoundRect,0.250000X0.475000X-0.337500X0.475000X0.337500X-0.475000X0.337500X-0.475000X-0.337500X0*%
%ADD14RoundRect,0.237500X-0.250000X-0.237500X0.250000X-0.237500X0.250000X0.237500X-0.250000X0.237500X0*%
%ADD15RoundRect,0.250000X0.337500X0.475000X-0.337500X0.475000X-0.337500X-0.475000X0.337500X-0.475000X0*%
%ADD16R,1.200000X1.200000*%
%ADD17RoundRect,0.237500X0.237500X-0.300000X0.237500X0.300000X-0.237500X0.300000X-0.237500X-0.300000X0*%
%ADD18R,1.130000X1.380000*%
%ADD19R,0.950000X0.400000*%
%ADD20R,2.300000X0.350000*%
%ADD21R,0.350000X0.650000*%
%ADD22C,0.800000*%
%ADD23R,1.750000X6.200000*%
%ADD24R,0.800000X0.800000*%
%ADD25R,7.620000X5.080000*%
%ADD26R,5.300000X2.000000*%
%ADD27R,0.600000X1.300000*%
%ADD28R,0.300000X1.300000*%
%ADD29R,0.304801X0.990602*%
%ADD30R,0.600000X1.070000*%
%ADD31RoundRect,0.237500X-0.237500X0.250000X-0.237500X-0.250000X0.237500X-0.250000X0.237500X0.250000X0*%
%ADD32RoundRect,0.237500X0.300000X0.237500X-0.300000X0.237500X-0.300000X-0.237500X0.300000X-0.237500X0*%
%ADD33R,0.660000X0.280000*%
%ADD34R,0.280000X0.660000*%
%ADD35R,4.420000X4.420000*%
%ADD36R,3.500000X3.500000*%
%ADD37R,1.070000X0.600000*%
G04 APERTURE END LIST*
D10*
%TO.C,C2*%
X622887487Y-527925070D03*
X624612487Y-527925070D03*
%TD*%
D11*
%TO.C,R9*%
X602912500Y-436000000D03*
X601087500Y-436000000D03*
%TD*%
D12*
%TO.C,R15*%
X602700000Y-471212500D03*
X602700000Y-469387500D03*
%TD*%
D13*
%TO.C,C17*%
X609700000Y-499537500D03*
X609700000Y-497462500D03*
%TD*%
D14*
%TO.C,R8*%
X628787500Y-498800000D03*
X630612500Y-498800000D03*
%TD*%
D15*
%TO.C,C8*%
X609537500Y-525300000D03*
X607462500Y-525300000D03*
%TD*%
D13*
%TO.C,C19*%
X605700000Y-499537500D03*
X605700000Y-497462500D03*
%TD*%
D16*
%TO.C,SW2*%
X602700000Y-457900000D03*
X602700000Y-462100000D03*
%TD*%
D17*
%TO.C,C15*%
X624300000Y-544885000D03*
X624300000Y-543160000D03*
%TD*%
D18*
%TO.C,RT1*%
X621300000Y-529700000D03*
X623300000Y-529700000D03*
%TD*%
D13*
%TO.C,C18*%
X607700000Y-499537500D03*
X607700000Y-497462500D03*
%TD*%
D16*
%TO.C,SW1*%
X602700000Y-440900000D03*
X602700000Y-445100000D03*
%TD*%
D14*
%TO.C,R7*%
X628611198Y-468400000D03*
X630436198Y-468400000D03*
%TD*%
D10*
%TO.C,C3*%
X607237500Y-533300000D03*
X608962500Y-533300000D03*
%TD*%
%TO.C,C51*%
X622137500Y-546600000D03*
X623862500Y-546600000D03*
%TD*%
D19*
%TO.C,MIC1*%
X628340000Y-544600000D03*
X629700000Y-544600000D03*
X629700000Y-543760000D03*
X628340000Y-543760000D03*
D20*
X629020000Y-542950000D03*
X629020000Y-545410000D03*
D21*
X630740000Y-544505000D03*
%TD*%
D22*
%TO.C,U11*%
X604050000Y-548486400D03*
X603008600Y-548283200D03*
X605091400Y-548257800D03*
X602145000Y-547724400D03*
X606005800Y-547699000D03*
X601510000Y-546835400D03*
X606615400Y-546784600D03*
X601281400Y-545743200D03*
X606818600Y-545743200D03*
X606590000Y-544651000D03*
X601535400Y-544600200D03*
X602119600Y-543762000D03*
X606005800Y-543762000D03*
X603034000Y-543177800D03*
X605142200Y-543177800D03*
X604050000Y-543000000D03*
%TD*%
%TO.C,U10*%
X625225600Y-411014600D03*
X625428800Y-409973200D03*
X625454200Y-412056000D03*
X625987600Y-409109600D03*
X626013000Y-412970400D03*
X626876600Y-408474600D03*
X626927400Y-413580000D03*
X627968800Y-408246000D03*
X627968800Y-413783200D03*
X629061000Y-413554600D03*
X629111800Y-408500000D03*
X629950000Y-409084200D03*
X629950000Y-412970400D03*
X630534200Y-409998600D03*
X630534200Y-412106800D03*
X630712000Y-411014600D03*
%TD*%
D11*
%TO.C,R2*%
X614062500Y-537200000D03*
X612237500Y-537200000D03*
%TD*%
D15*
%TO.C,C10*%
X609537500Y-523300000D03*
X607462500Y-523300000D03*
%TD*%
D12*
%TO.C,R5*%
X611150000Y-526312500D03*
X611150000Y-524487500D03*
%TD*%
D17*
%TO.C,C6*%
X609422500Y-530912500D03*
X609422500Y-529187500D03*
%TD*%
D22*
%TO.C,U15*%
X603907800Y-406861400D03*
X602866400Y-406658200D03*
X604949200Y-406632800D03*
X602002800Y-406099400D03*
X605863600Y-406074000D03*
X601367800Y-405210400D03*
X606473200Y-405159600D03*
X601139200Y-404118200D03*
X606676400Y-404118200D03*
X606447800Y-403026000D03*
X601393200Y-402975200D03*
X601977400Y-402137000D03*
X605863600Y-402137000D03*
X602891800Y-401552800D03*
X605000000Y-401552800D03*
X603907800Y-401375000D03*
%TD*%
D16*
%TO.C,SW3*%
X602700000Y-474750000D03*
X602700000Y-478950000D03*
%TD*%
D12*
%TO.C,R6*%
X630600000Y-493625000D03*
X630600000Y-491800000D03*
%TD*%
D11*
%TO.C,R4*%
X623312500Y-531400000D03*
X621487500Y-531400000D03*
%TD*%
D23*
%TO.C,C63*%
X617700000Y-512650000D03*
X617700000Y-502350000D03*
%TD*%
D14*
%TO.C,R10*%
X607587500Y-537000000D03*
X609412500Y-537000000D03*
%TD*%
D24*
%TO.C,U4*%
X628847396Y-476000000D03*
X630549200Y-476000000D03*
%TD*%
D15*
%TO.C,C12*%
X609537500Y-519300000D03*
X607462500Y-519300000D03*
%TD*%
D13*
%TO.C,C20*%
X603700000Y-499537500D03*
X603700000Y-497462500D03*
%TD*%
D25*
%TO.C,BT1*%
X615600000Y-413090000D03*
X615600000Y-495710000D03*
%TD*%
D24*
%TO.C,U9*%
X630500000Y-470100000D03*
X628798196Y-470100000D03*
%TD*%
D26*
%TO.C,F1*%
X616000000Y-517900000D03*
X616000000Y-524500000D03*
%TD*%
D27*
%TO.C,U2*%
X613120061Y-543807556D03*
X613919908Y-543807556D03*
D28*
X615070023Y-543807556D03*
X616070023Y-543807556D03*
X616569895Y-543807556D03*
X617569895Y-543807556D03*
D27*
X619519857Y-543807556D03*
X618720010Y-543807556D03*
D28*
X618070023Y-543807556D03*
X617070023Y-543807556D03*
X615569895Y-543807556D03*
X614569895Y-543807556D03*
%TD*%
D29*
%TO.C,U6*%
X624799949Y-520600000D03*
X624149962Y-520600000D03*
X623499974Y-520600000D03*
X622849987Y-520600000D03*
X622200000Y-520600000D03*
X621550012Y-520600000D03*
X620900025Y-520600000D03*
X620900025Y-526450140D03*
X621550012Y-526450140D03*
X622200000Y-526450140D03*
X622849987Y-526450140D03*
X623499974Y-526450140D03*
X624149962Y-526450140D03*
X624799949Y-526450140D03*
%TD*%
D17*
%TO.C,C1*%
X625200000Y-535562500D03*
X625200000Y-533837500D03*
%TD*%
D15*
%TO.C,C11*%
X609537500Y-521300000D03*
X607462500Y-521300000D03*
%TD*%
D30*
%TO.C,Q1*%
X609450000Y-538520000D03*
X607550000Y-538520000D03*
X608500000Y-541000000D03*
%TD*%
D31*
%TO.C,R3*%
X610950000Y-529437500D03*
X610950000Y-531262500D03*
%TD*%
D17*
%TO.C,C16*%
X625800000Y-544885000D03*
X625800000Y-543160000D03*
%TD*%
D24*
%TO.C,U3*%
X628847396Y-490100000D03*
X630549200Y-490100000D03*
%TD*%
%TO.C,U8*%
X630600000Y-497100000D03*
X628898196Y-497100000D03*
%TD*%
D10*
%TO.C,C7*%
X607660000Y-527100000D03*
X609385000Y-527100000D03*
%TD*%
D32*
%TO.C,C13*%
X609462500Y-517500000D03*
X607737500Y-517500000D03*
%TD*%
D11*
%TO.C,R13*%
X630562500Y-477750000D03*
X628737500Y-477750000D03*
%TD*%
D14*
%TO.C,R14*%
X600887500Y-454000000D03*
X602712500Y-454000000D03*
%TD*%
D13*
%TO.C,C5*%
X607622500Y-530837500D03*
X607622500Y-528762500D03*
%TD*%
D32*
%TO.C,C52*%
X616162500Y-540650000D03*
X614437500Y-540650000D03*
%TD*%
D22*
%TO.C,U14*%
X627994200Y-406871600D03*
X626952800Y-406668400D03*
X629035600Y-406643000D03*
X626089200Y-406109600D03*
X629950000Y-406084200D03*
X625454200Y-405220600D03*
X630559600Y-405169800D03*
X625225600Y-404128400D03*
X630762800Y-404128400D03*
X630534200Y-403036200D03*
X625479600Y-402985400D03*
X626063800Y-402147200D03*
X629950000Y-402147200D03*
X626978200Y-401563000D03*
X629086400Y-401563000D03*
X627994200Y-401385200D03*
%TD*%
D33*
%TO.C,U5*%
X618810000Y-533950000D03*
X618810000Y-533450000D03*
X618810000Y-532950000D03*
X618810000Y-532450000D03*
X618810000Y-531950000D03*
X618810000Y-531450000D03*
X618810000Y-530950000D03*
X618810000Y-530450000D03*
X618810000Y-529950000D03*
X618810000Y-529450000D03*
D34*
X618150000Y-528790000D03*
X617650000Y-528790000D03*
X617150000Y-528790000D03*
X616650000Y-528790000D03*
X616150000Y-528790000D03*
X615650000Y-528790000D03*
X615150000Y-528790000D03*
X614650000Y-528790000D03*
X614150000Y-528790000D03*
X613650000Y-528790000D03*
D33*
X612990000Y-529450000D03*
X612990000Y-529950000D03*
X612990000Y-530450000D03*
X612990000Y-530950000D03*
X612990000Y-531450000D03*
X612990000Y-531950000D03*
X612990000Y-532450000D03*
X612990000Y-532950000D03*
X612990000Y-533450000D03*
X612990000Y-533950000D03*
D34*
X613650000Y-534610000D03*
X614150000Y-534610000D03*
X614650000Y-534610000D03*
X615150000Y-534610000D03*
X615650000Y-534610000D03*
X616150000Y-534610000D03*
X616650000Y-534610000D03*
X617150000Y-534610000D03*
X617650000Y-534610000D03*
X618150000Y-534610000D03*
D35*
X615900000Y-531700000D03*
%TD*%
D10*
%TO.C,C4*%
X612287500Y-538700000D03*
X614012500Y-538700000D03*
%TD*%
D36*
%TO.C,L1*%
X605400000Y-513950000D03*
X605400000Y-504050000D03*
%TD*%
D37*
%TO.C,Q2*%
X615660000Y-536450000D03*
X615660000Y-538350000D03*
X618140000Y-537400000D03*
%TD*%
D24*
%TO.C,U7*%
X630500000Y-482900000D03*
X628798196Y-482900000D03*
%TD*%
D32*
%TO.C,C9*%
X616012500Y-527350000D03*
X614287500Y-527350000D03*
%TD*%
D31*
%TO.C,R1*%
X623500000Y-517287500D03*
X623500000Y-519112500D03*
%TD*%
M02*
