%TF.GenerationSoftware,KiCad,Pcbnew,7.0.8*%
%TF.CreationDate,2023-11-02T15:01:11+01:00*%
%TF.ProjectId,led-tube,6c65642d-7475-4626-952e-6b696361645f,rev?*%
%TF.SameCoordinates,Original*%
%TF.FileFunction,Legend,Top*%
%TF.FilePolarity,Positive*%
%FSLAX46Y46*%
G04 Gerber Fmt 4.6, Leading zero omitted, Abs format (unit mm)*
G04 Created by KiCad (PCBNEW 7.0.8) date 2023-11-02 15:01:11*
%MOMM*%
%LPD*%
G01*
G04 APERTURE LIST*
G04 Aperture macros list*
%AMRoundRect*
0 Rectangle with rounded corners*
0 $1 Rounding radius*
0 $2 $3 $4 $5 $6 $7 $8 $9 X,Y pos of 4 corners*
0 Add a 4 corners polygon primitive as box body*
4,1,4,$2,$3,$4,$5,$6,$7,$8,$9,$2,$3,0*
0 Add four circle primitives for the rounded corners*
1,1,$1+$1,$2,$3*
1,1,$1+$1,$4,$5*
1,1,$1+$1,$6,$7*
1,1,$1+$1,$8,$9*
0 Add four rect primitives between the rounded corners*
20,1,$1+$1,$2,$3,$4,$5,0*
20,1,$1+$1,$4,$5,$6,$7,0*
20,1,$1+$1,$6,$7,$8,$9,0*
20,1,$1+$1,$8,$9,$2,$3,0*%
%AMFreePoly0*
4,1,19,0.500000,-0.750000,0.000000,-0.750000,0.000000,-0.744911,-0.071157,-0.744911,-0.207708,-0.704816,-0.327430,-0.627875,-0.420627,-0.520320,-0.479746,-0.390866,-0.500000,-0.250000,-0.500000,0.250000,-0.479746,0.390866,-0.420627,0.520320,-0.327430,0.627875,-0.207708,0.704816,-0.071157,0.744911,0.000000,0.744911,0.000000,0.750000,0.500000,0.750000,0.500000,-0.750000,0.500000,-0.750000,
$1*%
%AMFreePoly1*
4,1,19,0.000000,0.744911,0.071157,0.744911,0.207708,0.704816,0.327430,0.627875,0.420627,0.520320,0.479746,0.390866,0.500000,0.250000,0.500000,-0.250000,0.479746,-0.390866,0.420627,-0.520320,0.327430,-0.627875,0.207708,-0.704816,0.071157,-0.744911,0.000000,-0.744911,0.000000,-0.750000,-0.500000,-0.750000,-0.500000,0.750000,0.000000,0.750000,0.000000,0.744911,0.000000,0.744911,
$1*%
G04 Aperture macros list end*
%ADD10C,0.120000*%
%ADD11C,0.250000*%
%ADD12C,0.150000*%
%ADD13C,0.127991*%
%ADD14C,0.254000*%
%ADD15C,0.202997*%
%ADD16C,0.300000*%
%ADD17C,0.059995*%
%ADD18RoundRect,0.237500X-0.300000X-0.237500X0.300000X-0.237500X0.300000X0.237500X-0.300000X0.237500X0*%
%ADD19RoundRect,0.237500X0.250000X0.237500X-0.250000X0.237500X-0.250000X-0.237500X0.250000X-0.237500X0*%
%ADD20RoundRect,0.237500X0.237500X-0.250000X0.237500X0.250000X-0.237500X0.250000X-0.237500X-0.250000X0*%
%ADD21RoundRect,0.250000X0.475000X-0.337500X0.475000X0.337500X-0.475000X0.337500X-0.475000X-0.337500X0*%
%ADD22RoundRect,0.237500X-0.250000X-0.237500X0.250000X-0.237500X0.250000X0.237500X-0.250000X0.237500X0*%
%ADD23RoundRect,0.250000X0.337500X0.475000X-0.337500X0.475000X-0.337500X-0.475000X0.337500X-0.475000X0*%
%ADD24C,0.950000*%
%ADD25R,1.200000X1.200000*%
%ADD26C,1.600000*%
%ADD27RoundRect,0.237500X0.237500X-0.300000X0.237500X0.300000X-0.237500X0.300000X-0.237500X-0.300000X0*%
%ADD28R,1.130000X1.380000*%
%ADD29O,2.700000X1.800000*%
%ADD30FreePoly0,270.000000*%
%ADD31FreePoly1,270.000000*%
%ADD32R,0.950000X0.400000*%
%ADD33R,2.300000X0.350000*%
%ADD34R,0.350000X0.650000*%
%ADD35C,4.249987*%
%ADD36C,0.800000*%
%ADD37R,2.200000X2.200000*%
%ADD38C,2.200000*%
%ADD39R,1.750000X6.200000*%
%ADD40R,0.800000X0.800000*%
%ADD41C,2.400000*%
%ADD42R,7.620000X5.080000*%
%ADD43R,5.300000X2.000000*%
%ADD44C,0.700025*%
%ADD45R,0.600000X1.300000*%
%ADD46R,0.300000X1.300000*%
%ADD47O,1.200000X2.200000*%
%ADD48O,1.200000X1.800000*%
%ADD49R,0.304801X0.990602*%
%ADD50R,0.600000X1.070000*%
%ADD51RoundRect,0.237500X-0.237500X0.250000X-0.237500X-0.250000X0.237500X-0.250000X0.237500X0.250000X0*%
%ADD52RoundRect,0.237500X0.300000X0.237500X-0.300000X0.237500X-0.300000X-0.237500X0.300000X-0.237500X0*%
%ADD53C,1.700000*%
%ADD54R,0.660000X0.280000*%
%ADD55R,0.280000X0.660000*%
%ADD56R,4.420000X4.420000*%
%ADD57R,3.500000X3.500000*%
%ADD58R,1.070000X0.600000*%
%ADD59FreePoly0,180.000000*%
%ADD60FreePoly1,180.000000*%
G04 APERTURE END LIST*
D10*
%TO.C,C2*%
X623603720Y-527415070D02*
X623896254Y-527415070D01*
X623603720Y-528435070D02*
X623896254Y-528435070D01*
%TO.C,R9*%
X602254724Y-436522500D02*
X601745276Y-436522500D01*
X602254724Y-435477500D02*
X601745276Y-435477500D01*
%TO.C,R15*%
X602177500Y-470554724D02*
X602177500Y-470045276D01*
X603222500Y-470554724D02*
X603222500Y-470045276D01*
%TO.C,C17*%
X608965000Y-498761252D02*
X608965000Y-498238748D01*
X610435000Y-498761252D02*
X610435000Y-498238748D01*
%TO.C,R8*%
X629445276Y-498277500D02*
X629954724Y-498277500D01*
X629445276Y-499322500D02*
X629954724Y-499322500D01*
%TO.C,C8*%
X608761252Y-526035000D02*
X608238748Y-526035000D01*
X608761252Y-524565000D02*
X608238748Y-524565000D01*
%TO.C,C19*%
X604965000Y-498761252D02*
X604965000Y-498238748D01*
X606435000Y-498761252D02*
X606435000Y-498238748D01*
D11*
%TO.C,SW2*%
X602700000Y-463500000D02*
X602700000Y-462930000D01*
X602700000Y-461270000D02*
X602700000Y-458730000D01*
X602700000Y-457070000D02*
X602700000Y-456500000D01*
X602700000Y-456500000D02*
X602100000Y-456500000D01*
X602100000Y-463500000D02*
X602700000Y-463500000D01*
X600400000Y-462950000D02*
X600400000Y-462990000D01*
X600400000Y-462950000D02*
X600400000Y-461500000D01*
X600400000Y-461500000D02*
X600400000Y-458350000D01*
X600400000Y-458500000D02*
X600400000Y-457010000D01*
D10*
%TO.C,C15*%
X623790000Y-544168767D02*
X623790000Y-543876233D01*
X624810000Y-544168767D02*
X624810000Y-543876233D01*
D12*
%TO.C,RT1*%
X620540000Y-528780000D02*
X621820000Y-528780000D01*
X620540000Y-530620000D02*
X620540000Y-528780000D01*
X621820000Y-530620000D02*
X620540000Y-530620000D01*
X622780000Y-530620000D02*
X624060000Y-530620000D01*
X624060000Y-528780000D02*
X622780000Y-528780000D01*
X624060000Y-530620000D02*
X624060000Y-528780000D01*
D10*
%TO.C,C18*%
X606965000Y-498761252D02*
X606965000Y-498238748D01*
X608435000Y-498761252D02*
X608435000Y-498238748D01*
D11*
%TO.C,SW1*%
X602700000Y-446500000D02*
X602700000Y-445930000D01*
X602700000Y-444270000D02*
X602700000Y-441730000D01*
X602700000Y-440070000D02*
X602700000Y-439500000D01*
X602700000Y-439500000D02*
X602100000Y-439500000D01*
X602100000Y-446500000D02*
X602700000Y-446500000D01*
X600400000Y-445950000D02*
X600400000Y-445990000D01*
X600400000Y-445950000D02*
X600400000Y-444500000D01*
X600400000Y-444500000D02*
X600400000Y-441350000D01*
X600400000Y-441500000D02*
X600400000Y-440010000D01*
D10*
%TO.C,R7*%
X629268974Y-467877500D02*
X629778422Y-467877500D01*
X629268974Y-468922500D02*
X629778422Y-468922500D01*
D11*
%TO.C,SW4*%
X626650000Y-510920000D02*
X629950000Y-510920000D01*
X626650000Y-510410000D02*
X629950000Y-510410000D01*
X626650000Y-510030000D02*
X629950000Y-510030000D01*
X626650000Y-509520000D02*
X629950000Y-509520000D01*
D10*
%TO.C,C3*%
X607953733Y-532790000D02*
X608246267Y-532790000D01*
X607953733Y-533810000D02*
X608246267Y-533810000D01*
%TO.C,C51*%
X622853733Y-546090000D02*
X623146267Y-546090000D01*
X622853733Y-547110000D02*
X623146267Y-547110000D01*
%TO.C,JP1*%
X624200000Y-539300000D02*
X624800000Y-539300000D01*
X625500000Y-540000000D02*
X625500000Y-541400000D01*
X623500000Y-541400000D02*
X623500000Y-540000000D01*
X624800000Y-542100000D02*
X624200000Y-542100000D01*
X625500000Y-540000000D02*
G75*
G03*
X624800000Y-539300000I-699999J1D01*
G01*
X624200000Y-539300000D02*
G75*
G03*
X623500000Y-540000000I-1J-699999D01*
G01*
X624800000Y-542100000D02*
G75*
G03*
X625500000Y-541400000I0J700000D01*
G01*
X623500000Y-541400000D02*
G75*
G03*
X624200000Y-542100000I700000J0D01*
G01*
D11*
%TO.C,MIC1*%
X627020000Y-542660000D02*
X627020000Y-543320000D01*
X627020000Y-542660000D02*
X627670000Y-542660000D01*
X627020000Y-545040000D02*
X627020000Y-545320000D01*
X627020000Y-545320000D02*
X627380000Y-545680000D01*
X627380000Y-545680000D02*
X627660000Y-545680000D01*
X630370000Y-542660000D02*
X631000000Y-542660000D01*
X630380000Y-545680000D02*
X631020000Y-545680000D01*
X631000000Y-542660000D02*
X631020000Y-542680000D01*
X631020000Y-542680000D02*
X631020000Y-543320000D01*
X631020000Y-545040000D02*
X631020000Y-545680000D01*
D13*
%TO.C,U11*%
X607352540Y-545733205D02*
G75*
G03*
X607352540Y-545733205I-3300000J0D01*
G01*
%TO.C,U10*%
X631278795Y-411017140D02*
G75*
G03*
X631278795Y-411017140I-3300000J0D01*
G01*
D10*
%TO.C,R2*%
X613404724Y-537722500D02*
X612895276Y-537722500D01*
X613404724Y-536677500D02*
X612895276Y-536677500D01*
%TO.C,C10*%
X608761252Y-524035000D02*
X608238748Y-524035000D01*
X608761252Y-522565000D02*
X608238748Y-522565000D01*
%TO.C,R5*%
X610627500Y-525654724D02*
X610627500Y-525145276D01*
X611672500Y-525654724D02*
X611672500Y-525145276D01*
%TO.C,C6*%
X608912500Y-530196267D02*
X608912500Y-529903733D01*
X609932500Y-530196267D02*
X609932500Y-529903733D01*
D13*
%TO.C,U15*%
X607210340Y-404108205D02*
G75*
G03*
X607210340Y-404108205I-3300000J0D01*
G01*
D11*
%TO.C,SW3*%
X602700000Y-480350000D02*
X602700000Y-479780000D01*
X602700000Y-478120000D02*
X602700000Y-475580000D01*
X602700000Y-473920000D02*
X602700000Y-473350000D01*
X602700000Y-473350000D02*
X602100000Y-473350000D01*
X602100000Y-480350000D02*
X602700000Y-480350000D01*
X600400000Y-479800000D02*
X600400000Y-479840000D01*
X600400000Y-479800000D02*
X600400000Y-478350000D01*
X600400000Y-478350000D02*
X600400000Y-475200000D01*
X600400000Y-475350000D02*
X600400000Y-473860000D01*
D10*
%TO.C,R6*%
X630077500Y-492967224D02*
X630077500Y-492457776D01*
X631122500Y-492967224D02*
X631122500Y-492457776D01*
D11*
%TO.C,P1*%
X622060000Y-409600000D02*
X622060000Y-400450000D01*
X622060000Y-400450000D02*
X609760000Y-400450000D01*
X609760000Y-409600000D02*
X622060000Y-409600000D01*
X609760000Y-400450000D02*
X609760000Y-409600000D01*
D10*
%TO.C,R4*%
X622654724Y-531922500D02*
X622145276Y-531922500D01*
X622654724Y-530877500D02*
X622145276Y-530877500D01*
D12*
%TO.C,C63*%
X613800000Y-514080000D02*
X616670000Y-514080000D01*
X621600000Y-514080000D02*
X618730000Y-514080000D01*
X611120000Y-511400000D02*
X613800000Y-514080000D01*
X624280000Y-511400000D02*
X621600000Y-514080000D01*
X611120000Y-500920000D02*
X611120000Y-511400000D01*
X616670000Y-500920000D02*
X611120000Y-500920000D01*
X618730000Y-500920000D02*
X624280000Y-500920000D01*
X624280000Y-500920000D02*
X624280000Y-511400000D01*
D10*
%TO.C,R10*%
X608245276Y-536477500D02*
X608754724Y-536477500D01*
X608245276Y-537522500D02*
X608754724Y-537522500D01*
D14*
%TO.C,U4*%
X631514402Y-476508001D02*
X631158801Y-476863602D01*
X631514402Y-475491999D02*
X631514402Y-476508001D01*
X631158801Y-475136398D02*
X631514402Y-475491999D01*
X630015799Y-475136398D02*
X631158801Y-475136398D01*
X629990399Y-476863602D02*
X631158801Y-476863602D01*
D15*
X629622098Y-475992050D02*
X629797460Y-475992050D01*
X629622098Y-475593599D02*
X629622098Y-476381001D01*
D14*
X627932994Y-476863602D02*
X629406197Y-476863602D01*
X627932994Y-475136398D02*
X629406197Y-475136398D01*
X627932994Y-475136398D02*
X627932994Y-476863602D01*
D10*
%TO.C,C12*%
X608761252Y-520035000D02*
X608238748Y-520035000D01*
X608761252Y-518565000D02*
X608238748Y-518565000D01*
%TO.C,C20*%
X602965000Y-498761252D02*
X602965000Y-498238748D01*
X604435000Y-498761252D02*
X604435000Y-498238748D01*
D11*
%TO.C,BT1*%
X615600000Y-483360000D02*
X615600000Y-481070000D01*
X615600000Y-427730000D02*
X615600000Y-425450000D01*
X614450000Y-482210000D02*
X616740000Y-482210000D01*
X617200000Y-482210000D02*
G75*
G03*
X617200000Y-482210000I-1600000J0D01*
G01*
X617200000Y-426590000D02*
G75*
G03*
X617200000Y-426590000I-1600000J0D01*
G01*
D14*
%TO.C,U9*%
X627832994Y-469591999D02*
X628188595Y-469236398D01*
X627832994Y-470608001D02*
X627832994Y-469591999D01*
X628188595Y-470963602D02*
X627832994Y-470608001D01*
X629331597Y-470963602D02*
X628188595Y-470963602D01*
X629356997Y-469236398D02*
X628188595Y-469236398D01*
D15*
X629725298Y-470107950D02*
X629549936Y-470107950D01*
X629725298Y-470506401D02*
X629725298Y-469718999D01*
D14*
X631414402Y-469236398D02*
X629941199Y-469236398D01*
X631414402Y-470963602D02*
X629941199Y-470963602D01*
X631414402Y-470963602D02*
X631414402Y-469236398D01*
D11*
%TO.C,F1*%
X618500000Y-516600000D02*
X613500000Y-516600000D01*
X618900000Y-516900000D02*
X618900000Y-518900000D01*
X613100000Y-516900000D02*
X613100000Y-518900000D01*
X618900000Y-523500000D02*
X618900000Y-525500000D01*
X613100000Y-523500000D02*
X613100000Y-525500000D01*
X618500000Y-525800000D02*
X613500000Y-525800000D01*
X616000000Y-521200000D02*
G75*
G03*
X617520000Y-521200000I760000J0D01*
G01*
X616000000Y-521200000D02*
G75*
G03*
X614480000Y-521460000I-760000J-130000D01*
G01*
D14*
%TO.C,U6*%
X625349987Y-521325070D02*
X625349987Y-525725070D01*
X625349987Y-521325070D02*
X620349987Y-521325070D01*
X620349987Y-525725070D02*
X625349987Y-525725070D01*
X620349987Y-525725070D02*
X620349987Y-521325070D01*
D16*
X625536296Y-520608128D02*
G75*
G03*
X625536296Y-520608128I-150114J0D01*
G01*
D17*
X625349860Y-520355144D02*
G75*
G03*
X625349860Y-520355144I-29972J0D01*
G01*
D16*
X624625704Y-522305868D02*
G75*
G03*
X624625704Y-522305868I-150114J0D01*
G01*
D10*
%TO.C,C1*%
X624690000Y-534846267D02*
X624690000Y-534553733D01*
X625710000Y-534846267D02*
X625710000Y-534553733D01*
%TO.C,C11*%
X608761252Y-522035000D02*
X608238748Y-522035000D01*
X608761252Y-520565000D02*
X608238748Y-520565000D01*
D12*
%TO.C,Q1*%
X606960000Y-540640000D02*
X608010000Y-540640000D01*
X610040000Y-540640000D02*
X608990000Y-540640000D01*
X606960000Y-538880000D02*
X606960000Y-540640000D01*
X608040000Y-538880000D02*
X608960000Y-538880000D01*
X610040000Y-538880000D02*
X610040000Y-540640000D01*
D10*
%TO.C,R3*%
X611472500Y-530095276D02*
X611472500Y-530604724D01*
X610427500Y-530095276D02*
X610427500Y-530604724D01*
%TO.C,C16*%
X625290000Y-544168767D02*
X625290000Y-543876233D01*
X626310000Y-544168767D02*
X626310000Y-543876233D01*
D14*
%TO.C,U3*%
X631514402Y-490608001D02*
X631158801Y-490963602D01*
X631514402Y-489591999D02*
X631514402Y-490608001D01*
X631158801Y-489236398D02*
X631514402Y-489591999D01*
X630015799Y-489236398D02*
X631158801Y-489236398D01*
X629990399Y-490963602D02*
X631158801Y-490963602D01*
D15*
X629622098Y-490092050D02*
X629797460Y-490092050D01*
X629622098Y-489693599D02*
X629622098Y-490481001D01*
D14*
X627932994Y-490963602D02*
X629406197Y-490963602D01*
X627932994Y-489236398D02*
X629406197Y-489236398D01*
X627932994Y-489236398D02*
X627932994Y-490963602D01*
%TO.C,U8*%
X627932994Y-496591999D02*
X628288595Y-496236398D01*
X627932994Y-497608001D02*
X627932994Y-496591999D01*
X628288595Y-497963602D02*
X627932994Y-497608001D01*
X629431597Y-497963602D02*
X628288595Y-497963602D01*
X629456997Y-496236398D02*
X628288595Y-496236398D01*
D15*
X629825298Y-497107950D02*
X629649936Y-497107950D01*
X629825298Y-497506401D02*
X629825298Y-496718999D01*
D14*
X631514402Y-496236398D02*
X630041199Y-496236398D01*
X631514402Y-497963602D02*
X630041199Y-497963602D01*
X631514402Y-497963602D02*
X631514402Y-496236398D01*
D10*
%TO.C,C7*%
X608376233Y-526590000D02*
X608668767Y-526590000D01*
X608376233Y-527610000D02*
X608668767Y-527610000D01*
%TO.C,C13*%
X608746267Y-518010000D02*
X608453733Y-518010000D01*
X608746267Y-516990000D02*
X608453733Y-516990000D01*
%TO.C,R13*%
X629904724Y-478272500D02*
X629395276Y-478272500D01*
X629904724Y-477227500D02*
X629395276Y-477227500D01*
%TO.C,R14*%
X601545276Y-453477500D02*
X602054724Y-453477500D01*
X601545276Y-454522500D02*
X602054724Y-454522500D01*
%TO.C,C5*%
X606887500Y-530061252D02*
X606887500Y-529538748D01*
X608357500Y-530061252D02*
X608357500Y-529538748D01*
%TO.C,C52*%
X615446267Y-541160000D02*
X615153733Y-541160000D01*
X615446267Y-540140000D02*
X615153733Y-540140000D01*
D13*
%TO.C,U14*%
X631296740Y-404118405D02*
G75*
G03*
X631296740Y-404118405I-3300000J0D01*
G01*
D12*
%TO.C,U5*%
X612820000Y-534780000D02*
X612820000Y-534280000D01*
X613320000Y-534780000D02*
X612820000Y-534780000D01*
X618480000Y-534780000D02*
X618980000Y-534780000D01*
X618980000Y-534780000D02*
X618980000Y-534280000D01*
X612820000Y-528620000D02*
X612820000Y-529120000D01*
X613320000Y-528620000D02*
X612820000Y-528620000D01*
X618480000Y-528620000D02*
X618980000Y-528620000D01*
X618980000Y-528620000D02*
X618980000Y-529120000D01*
X619510000Y-533950000D02*
G75*
G03*
X619510000Y-533950000I-70000J0D01*
G01*
D10*
%TO.C,C4*%
X613003733Y-538190000D02*
X613296267Y-538190000D01*
X613003733Y-539210000D02*
X613296267Y-539210000D01*
D11*
%TO.C,L1*%
X600400000Y-514500000D02*
X600400000Y-503500000D01*
X603120000Y-514500000D02*
X600400000Y-514500000D01*
X610400000Y-514500000D02*
X607680000Y-514500000D01*
X610400000Y-514500000D02*
X610400000Y-503500000D01*
X603120000Y-503500000D02*
X600400000Y-503500000D01*
X610400000Y-503500000D02*
X607680000Y-503500000D01*
D12*
%TO.C,Q2*%
X617780000Y-538940000D02*
X617780000Y-537890000D01*
X617780000Y-535860000D02*
X617780000Y-536910000D01*
X616020000Y-538940000D02*
X617780000Y-538940000D01*
X616020000Y-537860000D02*
X616020000Y-536940000D01*
X616020000Y-535860000D02*
X617780000Y-535860000D01*
D14*
%TO.C,U7*%
X627832994Y-482391999D02*
X628188595Y-482036398D01*
X627832994Y-483408001D02*
X627832994Y-482391999D01*
X628188595Y-483763602D02*
X627832994Y-483408001D01*
X629331597Y-483763602D02*
X628188595Y-483763602D01*
X629356997Y-482036398D02*
X628188595Y-482036398D01*
D15*
X629725298Y-482907950D02*
X629549936Y-482907950D01*
X629725298Y-483306401D02*
X629725298Y-482518999D01*
D14*
X631414402Y-482036398D02*
X629941199Y-482036398D01*
X631414402Y-483763602D02*
X629941199Y-483763602D01*
X631414402Y-483763602D02*
X631414402Y-482036398D01*
D10*
%TO.C,C9*%
X615296267Y-527860000D02*
X615003733Y-527860000D01*
X615296267Y-526840000D02*
X615003733Y-526840000D01*
%TO.C,R1*%
X624022500Y-517945276D02*
X624022500Y-518454724D01*
X622977500Y-517945276D02*
X622977500Y-518454724D01*
%TO.C,JP2*%
X609100000Y-407700000D02*
X609100000Y-408300000D01*
X608400000Y-409000000D02*
X607000000Y-409000000D01*
X607000000Y-407000000D02*
X608400000Y-407000000D01*
X606300000Y-408300000D02*
X606300000Y-407700000D01*
X608400000Y-409000000D02*
G75*
G03*
X609100000Y-408300000I1J699999D01*
G01*
X609100000Y-407700000D02*
G75*
G03*
X608400000Y-407000000I-699999J1D01*
G01*
X606300000Y-408300000D02*
G75*
G03*
X607000000Y-409000000I700000J0D01*
G01*
X607000000Y-407000000D02*
G75*
G03*
X606300000Y-407700000I0J-700000D01*
G01*
%TD*%
%LPC*%
D18*
%TO.C,C2*%
X622887487Y-527925070D03*
X624612487Y-527925070D03*
%TD*%
D19*
%TO.C,R9*%
X602912500Y-436000000D03*
X601087500Y-436000000D03*
%TD*%
D20*
%TO.C,R15*%
X602700000Y-471212500D03*
X602700000Y-469387500D03*
%TD*%
D21*
%TO.C,C17*%
X609700000Y-499537500D03*
X609700000Y-497462500D03*
%TD*%
D22*
%TO.C,R8*%
X628787500Y-498800000D03*
X630612500Y-498800000D03*
%TD*%
D23*
%TO.C,C8*%
X609537500Y-525300000D03*
X607462500Y-525300000D03*
%TD*%
D21*
%TO.C,C19*%
X605700000Y-499537500D03*
X605700000Y-497462500D03*
%TD*%
D24*
%TO.C,SW2*%
X601400000Y-461150000D03*
X601400000Y-458850000D03*
D25*
X602700000Y-457900000D03*
X602700000Y-462100000D03*
D26*
X601100000Y-463750000D03*
X601100000Y-456250000D03*
%TD*%
D27*
%TO.C,C15*%
X624300000Y-544885000D03*
X624300000Y-543160000D03*
%TD*%
D28*
%TO.C,RT1*%
X621300000Y-529700000D03*
X623300000Y-529700000D03*
%TD*%
D21*
%TO.C,C18*%
X607700000Y-499537500D03*
X607700000Y-497462500D03*
%TD*%
D24*
%TO.C,SW1*%
X601400000Y-444150000D03*
X601400000Y-441850000D03*
D25*
X602700000Y-440900000D03*
X602700000Y-445100000D03*
D26*
X601100000Y-446750000D03*
X601100000Y-439250000D03*
%TD*%
D22*
%TO.C,R7*%
X628611198Y-468400000D03*
X630436198Y-468400000D03*
%TD*%
D29*
%TO.C,SW4*%
X628300000Y-512700000D03*
X628300000Y-508000000D03*
X628300000Y-503300000D03*
%TD*%
D18*
%TO.C,C3*%
X607237500Y-533300000D03*
X608962500Y-533300000D03*
%TD*%
%TO.C,C51*%
X622137500Y-546600000D03*
X623862500Y-546600000D03*
%TD*%
D30*
%TO.C,JP1*%
X624500000Y-540050000D03*
D31*
X624500000Y-541350000D03*
%TD*%
D32*
%TO.C,MIC1*%
X628340000Y-544600000D03*
X629700000Y-544600000D03*
X629700000Y-543760000D03*
X628340000Y-543760000D03*
D33*
X629020000Y-542950000D03*
X629020000Y-545410000D03*
D34*
X630740000Y-544505000D03*
%TD*%
D35*
%TO.C,U11*%
X604052540Y-545733230D03*
D36*
X604050000Y-548486400D03*
X603008600Y-548283200D03*
X605091400Y-548257800D03*
X602145000Y-547724400D03*
X606005800Y-547699000D03*
X601510000Y-546835400D03*
X606615400Y-546784600D03*
X601281400Y-545743200D03*
X606818600Y-545743200D03*
X606590000Y-544651000D03*
X601535400Y-544600200D03*
X602119600Y-543762000D03*
X606005800Y-543762000D03*
X603034000Y-543177800D03*
X605142200Y-543177800D03*
X604050000Y-543000000D03*
%TD*%
D35*
%TO.C,U10*%
X627978770Y-411017140D03*
D36*
X625225600Y-411014600D03*
X625428800Y-409973200D03*
X625454200Y-412056000D03*
X625987600Y-409109600D03*
X626013000Y-412970400D03*
X626876600Y-408474600D03*
X626927400Y-413580000D03*
X627968800Y-408246000D03*
X627968800Y-413783200D03*
X629061000Y-413554600D03*
X629111800Y-408500000D03*
X629950000Y-409084200D03*
X629950000Y-412970400D03*
X630534200Y-409998600D03*
X630534200Y-412106800D03*
X630712000Y-411014600D03*
%TD*%
D19*
%TO.C,R2*%
X614062500Y-537200000D03*
X612237500Y-537200000D03*
%TD*%
D23*
%TO.C,C10*%
X609537500Y-523300000D03*
X607462500Y-523300000D03*
%TD*%
D20*
%TO.C,R5*%
X611150000Y-526312500D03*
X611150000Y-524487500D03*
%TD*%
D27*
%TO.C,C6*%
X609422500Y-530912500D03*
X609422500Y-529187500D03*
%TD*%
D35*
%TO.C,U15*%
X603910340Y-404108230D03*
D36*
X603907800Y-406861400D03*
X602866400Y-406658200D03*
X604949200Y-406632800D03*
X602002800Y-406099400D03*
X605863600Y-406074000D03*
X601367800Y-405210400D03*
X606473200Y-405159600D03*
X601139200Y-404118200D03*
X606676400Y-404118200D03*
X606447800Y-403026000D03*
X601393200Y-402975200D03*
X601977400Y-402137000D03*
X605863600Y-402137000D03*
X602891800Y-401552800D03*
X605000000Y-401552800D03*
X603907800Y-401375000D03*
%TD*%
D24*
%TO.C,SW3*%
X601400000Y-478000000D03*
X601400000Y-475700000D03*
D25*
X602700000Y-474750000D03*
X602700000Y-478950000D03*
D26*
X601100000Y-480600000D03*
X601100000Y-473100000D03*
%TD*%
D20*
%TO.C,R6*%
X630600000Y-493625000D03*
X630600000Y-491800000D03*
%TD*%
D37*
%TO.C,P1*%
X619720000Y-408000000D03*
D38*
X615910000Y-408000000D03*
X612100000Y-408000000D03*
%TD*%
D19*
%TO.C,R4*%
X623312500Y-531400000D03*
X621487500Y-531400000D03*
%TD*%
D39*
%TO.C,C63*%
X617700000Y-512650000D03*
X617700000Y-502350000D03*
%TD*%
D22*
%TO.C,R10*%
X607587500Y-537000000D03*
X609412500Y-537000000D03*
%TD*%
D40*
%TO.C,U4*%
X628847396Y-476000000D03*
X630549200Y-476000000D03*
%TD*%
D23*
%TO.C,C12*%
X609537500Y-519300000D03*
X607462500Y-519300000D03*
%TD*%
D21*
%TO.C,C20*%
X603700000Y-499537500D03*
X603700000Y-497462500D03*
%TD*%
D41*
%TO.C,BT1*%
X607600000Y-490240000D03*
D42*
X615600000Y-413090000D03*
X615600000Y-495710000D03*
%TD*%
D40*
%TO.C,U9*%
X630500000Y-470100000D03*
X628798196Y-470100000D03*
%TD*%
D43*
%TO.C,F1*%
X616000000Y-517900000D03*
X616000000Y-524500000D03*
%TD*%
D44*
%TO.C,U2*%
X613429941Y-545050127D03*
X619209977Y-545050127D03*
D45*
X613120061Y-543807556D03*
X613919908Y-543807556D03*
D46*
X615070023Y-543807556D03*
X616070023Y-543807556D03*
X616569895Y-543807556D03*
X617569895Y-543807556D03*
D45*
X619519857Y-543807556D03*
X618720010Y-543807556D03*
D46*
X618070023Y-543807556D03*
X617070023Y-543807556D03*
X615569895Y-543807556D03*
X614569895Y-543807556D03*
D47*
X611999918Y-544550000D03*
D48*
X611999918Y-548730086D03*
D47*
X620640000Y-544550000D03*
D48*
X620640000Y-548730086D03*
%TD*%
D49*
%TO.C,U6*%
X624799949Y-520600000D03*
X624149962Y-520600000D03*
X623499974Y-520600000D03*
X622849987Y-520600000D03*
X622200000Y-520600000D03*
X621550012Y-520600000D03*
X620900025Y-520600000D03*
X620900025Y-526450140D03*
X621550012Y-526450140D03*
X622200000Y-526450140D03*
X622849987Y-526450140D03*
X623499974Y-526450140D03*
X624149962Y-526450140D03*
X624799949Y-526450140D03*
%TD*%
D27*
%TO.C,C1*%
X625200000Y-535562500D03*
X625200000Y-533837500D03*
%TD*%
D23*
%TO.C,C11*%
X609537500Y-521300000D03*
X607462500Y-521300000D03*
%TD*%
D50*
%TO.C,Q1*%
X609450000Y-538520000D03*
X607550000Y-538520000D03*
X608500000Y-541000000D03*
%TD*%
D51*
%TO.C,R3*%
X610950000Y-529437500D03*
X610950000Y-531262500D03*
%TD*%
D27*
%TO.C,C16*%
X625800000Y-544885000D03*
X625800000Y-543160000D03*
%TD*%
D40*
%TO.C,U3*%
X628847396Y-490100000D03*
X630549200Y-490100000D03*
%TD*%
%TO.C,U8*%
X630600000Y-497100000D03*
X628898196Y-497100000D03*
%TD*%
D18*
%TO.C,C7*%
X607660000Y-527100000D03*
X609385000Y-527100000D03*
%TD*%
D52*
%TO.C,C13*%
X609462500Y-517500000D03*
X607737500Y-517500000D03*
%TD*%
D19*
%TO.C,R13*%
X630562500Y-477750000D03*
X628737500Y-477750000D03*
%TD*%
D22*
%TO.C,R14*%
X600887500Y-454000000D03*
X602712500Y-454000000D03*
%TD*%
D21*
%TO.C,C5*%
X607622500Y-530837500D03*
X607622500Y-528762500D03*
%TD*%
D52*
%TO.C,C52*%
X616162500Y-540650000D03*
X614437500Y-540650000D03*
%TD*%
D53*
%TO.C,U1*%
X602027300Y-518005700D03*
X602027300Y-520545700D03*
X602027300Y-523085700D03*
X602027300Y-525625700D03*
X602027300Y-528165700D03*
X602027300Y-530705700D03*
X602027300Y-533245700D03*
X602027300Y-535785700D03*
X602027300Y-538325700D03*
X604567300Y-518005700D03*
X604567300Y-520545700D03*
X604567300Y-523085700D03*
X604567300Y-525625700D03*
X604567300Y-528165700D03*
X604567300Y-530705700D03*
X604567300Y-533245700D03*
X604567300Y-535785700D03*
X604567300Y-538325700D03*
X627427300Y-518005700D03*
X627427300Y-520545700D03*
X627427300Y-523085700D03*
X627427300Y-525625700D03*
X627427300Y-528165700D03*
X627427300Y-530705700D03*
X627427300Y-533245700D03*
X627427300Y-535785700D03*
X627427300Y-538325700D03*
X629967300Y-518005700D03*
X629967300Y-520545700D03*
X629967300Y-523085700D03*
X629967300Y-525625700D03*
X629967300Y-528165700D03*
X629967300Y-530705700D03*
X629967300Y-533245700D03*
X629967300Y-535785700D03*
X629967300Y-538325700D03*
%TD*%
D35*
%TO.C,U14*%
X627996740Y-404118430D03*
D36*
X627994200Y-406871600D03*
X626952800Y-406668400D03*
X629035600Y-406643000D03*
X626089200Y-406109600D03*
X629950000Y-406084200D03*
X625454200Y-405220600D03*
X630559600Y-405169800D03*
X625225600Y-404128400D03*
X630762800Y-404128400D03*
X630534200Y-403036200D03*
X625479600Y-402985400D03*
X626063800Y-402147200D03*
X629950000Y-402147200D03*
X626978200Y-401563000D03*
X629086400Y-401563000D03*
X627994200Y-401385200D03*
%TD*%
D54*
%TO.C,U5*%
X618810000Y-533950000D03*
X618810000Y-533450000D03*
X618810000Y-532950000D03*
X618810000Y-532450000D03*
X618810000Y-531950000D03*
X618810000Y-531450000D03*
X618810000Y-530950000D03*
X618810000Y-530450000D03*
X618810000Y-529950000D03*
X618810000Y-529450000D03*
D55*
X618150000Y-528790000D03*
X617650000Y-528790000D03*
X617150000Y-528790000D03*
X616650000Y-528790000D03*
X616150000Y-528790000D03*
X615650000Y-528790000D03*
X615150000Y-528790000D03*
X614650000Y-528790000D03*
X614150000Y-528790000D03*
X613650000Y-528790000D03*
D54*
X612990000Y-529450000D03*
X612990000Y-529950000D03*
X612990000Y-530450000D03*
X612990000Y-530950000D03*
X612990000Y-531450000D03*
X612990000Y-531950000D03*
X612990000Y-532450000D03*
X612990000Y-532950000D03*
X612990000Y-533450000D03*
X612990000Y-533950000D03*
D55*
X613650000Y-534610000D03*
X614150000Y-534610000D03*
X614650000Y-534610000D03*
X615150000Y-534610000D03*
X615650000Y-534610000D03*
X616150000Y-534610000D03*
X616650000Y-534610000D03*
X617150000Y-534610000D03*
X617650000Y-534610000D03*
X618150000Y-534610000D03*
D56*
X615900000Y-531700000D03*
%TD*%
D18*
%TO.C,C4*%
X612287500Y-538700000D03*
X614012500Y-538700000D03*
%TD*%
D57*
%TO.C,L1*%
X605400000Y-513950000D03*
X605400000Y-504050000D03*
%TD*%
D58*
%TO.C,Q2*%
X615660000Y-536450000D03*
X615660000Y-538350000D03*
X618140000Y-537400000D03*
%TD*%
D40*
%TO.C,U7*%
X630500000Y-482900000D03*
X628798196Y-482900000D03*
%TD*%
D52*
%TO.C,C9*%
X616012500Y-527350000D03*
X614287500Y-527350000D03*
%TD*%
D51*
%TO.C,R1*%
X623500000Y-517287500D03*
X623500000Y-519112500D03*
%TD*%
D59*
%TO.C,JP2*%
X608350000Y-408000000D03*
D60*
X607050000Y-408000000D03*
%TD*%
D41*
%TO.C,BT2*%
X623600000Y-490230000D03*
%TD*%
%LPD*%
M02*
