%TF.GenerationSoftware,KiCad,Pcbnew,7.0.8*%
%TF.CreationDate,2023-11-02T15:01:12+01:00*%
%TF.ProjectId,led-tube,6c65642d-7475-4626-952e-6b696361645f,rev?*%
%TF.SameCoordinates,Original*%
%TF.FileFunction,Soldermask,Bot*%
%TF.FilePolarity,Negative*%
%FSLAX46Y46*%
G04 Gerber Fmt 4.6, Leading zero omitted, Abs format (unit mm)*
G04 Created by KiCad (PCBNEW 7.0.8) date 2023-11-02 15:01:12*
%MOMM*%
%LPD*%
G01*
G04 APERTURE LIST*
G04 Aperture macros list*
%AMRoundRect*
0 Rectangle with rounded corners*
0 $1 Rounding radius*
0 $2 $3 $4 $5 $6 $7 $8 $9 X,Y pos of 4 corners*
0 Add a 4 corners polygon primitive as box body*
4,1,4,$2,$3,$4,$5,$6,$7,$8,$9,$2,$3,0*
0 Add four circle primitives for the rounded corners*
1,1,$1+$1,$2,$3*
1,1,$1+$1,$4,$5*
1,1,$1+$1,$6,$7*
1,1,$1+$1,$8,$9*
0 Add four rect primitives between the rounded corners*
20,1,$1+$1,$2,$3,$4,$5,0*
20,1,$1+$1,$4,$5,$6,$7,0*
20,1,$1+$1,$6,$7,$8,$9,0*
20,1,$1+$1,$8,$9,$2,$3,0*%
G04 Aperture macros list end*
%ADD10C,0.950000*%
%ADD11C,1.600000*%
%ADD12O,2.700000X1.800000*%
%ADD13C,4.249987*%
%ADD14R,2.200000X2.200000*%
%ADD15C,2.200000*%
%ADD16C,2.400000*%
%ADD17C,0.700025*%
%ADD18O,1.200000X2.200000*%
%ADD19O,1.200000X1.800000*%
%ADD20C,1.700000*%
%ADD21RoundRect,0.237500X0.250000X0.237500X-0.250000X0.237500X-0.250000X-0.237500X0.250000X-0.237500X0*%
%ADD22RoundRect,0.237500X-0.250000X-0.237500X0.250000X-0.237500X0.250000X0.237500X-0.250000X0.237500X0*%
%ADD23R,7.620000X5.080000*%
G04 APERTURE END LIST*
D10*
%TO.C,SW2*%
X601400000Y-461150000D03*
X601400000Y-458850000D03*
D11*
X601100000Y-463750000D03*
X601100000Y-456250000D03*
%TD*%
D10*
%TO.C,SW1*%
X601400000Y-444150000D03*
X601400000Y-441850000D03*
D11*
X601100000Y-446750000D03*
X601100000Y-439250000D03*
%TD*%
D12*
%TO.C,SW4*%
X628300000Y-512700000D03*
X628300000Y-508000000D03*
X628300000Y-503300000D03*
%TD*%
D13*
%TO.C,U11*%
X604052540Y-545733230D03*
%TD*%
%TO.C,U10*%
X627978770Y-411017140D03*
%TD*%
%TO.C,U15*%
X603910340Y-404108230D03*
%TD*%
D10*
%TO.C,SW3*%
X601400000Y-478000000D03*
X601400000Y-475700000D03*
D11*
X601100000Y-480600000D03*
X601100000Y-473100000D03*
%TD*%
D14*
%TO.C,P1*%
X619720000Y-408000000D03*
D15*
X615910000Y-408000000D03*
X612100000Y-408000000D03*
%TD*%
D16*
%TO.C,BT1*%
X607600000Y-490240000D03*
%TD*%
D17*
%TO.C,U2*%
X613429941Y-545050127D03*
X619209977Y-545050127D03*
D18*
X611999918Y-544550000D03*
D19*
X611999918Y-548730086D03*
D18*
X620640000Y-544550000D03*
D19*
X620640000Y-548730086D03*
%TD*%
D20*
%TO.C,U1*%
X602027300Y-518005700D03*
X602027300Y-520545700D03*
X602027300Y-523085700D03*
X602027300Y-525625700D03*
X602027300Y-528165700D03*
X602027300Y-530705700D03*
X602027300Y-533245700D03*
X602027300Y-535785700D03*
X602027300Y-538325700D03*
X604567300Y-518005700D03*
X604567300Y-520545700D03*
X604567300Y-523085700D03*
X604567300Y-525625700D03*
X604567300Y-528165700D03*
X604567300Y-530705700D03*
X604567300Y-533245700D03*
X604567300Y-535785700D03*
X604567300Y-538325700D03*
X627427300Y-518005700D03*
X627427300Y-520545700D03*
X627427300Y-523085700D03*
X627427300Y-525625700D03*
X627427300Y-528165700D03*
X627427300Y-530705700D03*
X627427300Y-533245700D03*
X627427300Y-535785700D03*
X627427300Y-538325700D03*
X629967300Y-518005700D03*
X629967300Y-520545700D03*
X629967300Y-523085700D03*
X629967300Y-525625700D03*
X629967300Y-528165700D03*
X629967300Y-530705700D03*
X629967300Y-533245700D03*
X629967300Y-535785700D03*
X629967300Y-538325700D03*
%TD*%
D13*
%TO.C,U14*%
X627996740Y-404118430D03*
%TD*%
D21*
%TO.C,R12*%
X622862500Y-535450000D03*
X621037500Y-535450000D03*
%TD*%
D22*
%TO.C,R11*%
X621037500Y-536950000D03*
X622862500Y-536950000D03*
%TD*%
D16*
%TO.C,BT2*%
X623600000Y-490230000D03*
D23*
X615600000Y-413080000D03*
X615600000Y-495700000D03*
%TD*%
M02*
